<svg width="985" height="1167" viewBox="0 0 985 1167" fill="none" xmlns="http://www.w3.org/2000/svg">
<path fill-rule="evenodd" clip-rule="evenodd" d="M757.047 215.397C789.857 210.767 820.147 233.77 824.507 266.618C828.857 299.466 805.597 329.565 772.717 333.644C740.227 337.674 710.557 314.754 706.247 282.293C701.947 249.833 724.617 219.972 757.047 215.397ZM780.946 232.405C759.736 224.418 735.907 233.598 725.537 253.75C715.177 273.901 721.557 298.624 740.377 311.238C759.207 323.853 784.506 320.352 799.196 303.098C803.656 297.861 806.847 291.665 808.517 284.992C814.006 263.007 802.156 240.391 780.946 232.405Z" fill="#020303"/>
<path d="M774.827 269.744C778.567 268.297 782.807 269.038 785.827 271.669C788.857 274.3 790.187 278.389 789.277 282.296C788.367 286.202 785.367 289.284 781.487 290.305C775.937 291.767 770.207 288.636 768.437 283.173C766.667 277.71 769.477 271.816 774.827 269.744Z" fill="#020303"/>
<path d="M680.337 275.93C693.867 275.363 695.407 285.966 696.827 297.332C697.777 305.026 697.507 314.426 690.417 319.203C682.587 319.841 680.967 314.672 678.477 308.348C675.587 300.028 665.587 316.818 657.637 308.633C655.317 297.067 671.657 281.954 680.337 275.93Z" fill="#020303"/>
<path d="M858.277 341.168C867.167 340.557 880.997 343.688 881.967 354.296C880.657 357.131 881.157 357.208 878.977 358.7C874.227 356.218 866.807 350.708 862.057 353.319C862.787 361.237 864.397 363.225 862.677 370.837C859.577 374.358 851.847 380.051 847.267 376.547C846.927 372.984 852.577 368.236 852.407 365.335C852.037 358.707 841.577 358.26 842.127 350.931C845.463 346.707 852.679 343.588 857.763 341.39C857.937 341.315 858.108 341.241 858.277 341.168Z" fill="#020303"/>
<path d="M408.267 421.064C413.007 420.764 420.077 422.083 424.967 422.811C419.287 429.344 413.457 435.744 407.477 442.006C402.937 445.43 399.297 447.118 395.157 442.436C391.987 432.114 400.977 425.866 408.267 421.064Z" fill="#020303"/>
<path d="M728.657 658.787C730.767 660.12 730.617 660.085 732.037 662.172C731.457 666.833 723.067 674.974 721.897 680.473C719.587 691.35 729.427 697.346 734.167 705.155C733.687 705.364 728.797 707.669 728.717 707.829C722.717 720.895 712.397 730.672 704.777 742.493L704.137 743.501C702.012 746.685 701.977 746.696 698.957 747.651C698.879 747.675 698.799 747.701 698.717 747.727L697.857 746.022C698.057 734.454 710.787 715.027 717.137 704.748C708.927 685.343 707.877 671.074 728.657 658.787Z" fill="#020303"/>
<path d="M320.367 275.598C320.4 275.613 320.433 275.629 320.465 275.644C323.746 277.18 324.237 277.41 326.287 280.44C327.977 292.143 311.147 299.141 301.997 301.734C303.007 306.232 303.347 310.666 303.837 315.25C318.277 312.112 339.557 310.04 348.347 327.951C349.247 329.798 348.877 330.497 347.987 332.1C340.277 335.261 322.347 323.308 315.317 325.041C289.857 331.316 295.617 352.479 263.477 351.592C255.977 350.889 238.897 346.081 240.337 336.54C247.407 331.782 263.637 340.305 270.977 339.29C285.187 335.763 291.287 323.407 291.337 310.156C291.397 295.133 267.557 290.53 267.027 281.1C278.687 268.811 289.777 291.763 302.237 289.95C310.297 288.777 315.317 281.463 320.367 275.598Z" fill="#020303"/>
<path d="M479.487 339.487C483.857 341.486 493.087 369.137 502.747 375.332C508.627 379.108 528.757 387.771 530.387 390.712L528.627 393.505C503.357 401.444 467.067 366.238 479.487 339.487Z" fill="#020303"/>
<path d="M510.717 325.785C516.107 323.811 522.097 326.496 524.217 331.841C526.337 337.186 523.807 343.244 518.527 345.503C514.977 347.019 510.887 346.49 507.847 344.122C504.797 341.754 503.277 337.919 503.877 334.108C504.467 330.297 507.087 327.11 510.717 325.785Z" fill="#020303"/>
<path d="M190.127 339.237C191.577 329.834 192.367 325.988 197.267 317.903C197.457 319.847 197.997 321.662 197.337 323.095C195.107 327.948 202.047 340.834 196.587 344.333C193.497 340.476 196.637 336.744 194.137 335.033L190.127 339.237Z" fill="#080B12"/>
<path d="M612.267 222.58C615.657 221.204 619.527 221.765 622.387 224.046C625.247 226.327 626.657 229.974 626.077 233.587C625.487 237.199 622.997 240.216 619.567 241.477C614.377 243.384 608.617 240.776 606.627 235.619C604.627 230.461 607.137 224.658 612.267 222.58Z" fill="#020303"/>
<path d="M597.087 179.557C597.036 179.483 596.985 179.409 596.937 179.336L596.736 179.028C596.847 179.204 596.965 179.381 597.087 179.557Z" fill="#020303"/>
<path fill-rule="evenodd" clip-rule="evenodd" d="M780.946 232.405C759.736 224.418 735.907 233.598 725.537 253.75C715.177 273.901 721.557 298.624 740.377 311.238C759.207 323.853 784.506 320.352 799.196 303.098C803.656 297.861 806.847 291.665 808.517 284.992C814.006 263.007 802.156 240.391 780.946 232.405ZM785.827 271.669C782.807 269.038 778.567 268.297 774.827 269.744C769.477 271.816 766.667 277.71 768.437 283.173C770.207 288.636 775.937 291.767 781.487 290.305C785.367 289.284 788.367 286.202 789.277 282.296C790.187 278.389 788.857 274.3 785.827 271.669Z" fill="white"/>
<path fill-rule="evenodd" clip-rule="evenodd" d="M669.687 227.604C666.366 207.036 647.016 193.045 626.437 196.343C605.827 199.646 591.807 219.041 595.137 239.645C598.467 260.249 617.877 274.245 638.477 270.892C659.046 267.546 673.006 248.173 669.687 227.604ZM622.387 224.046C619.527 221.765 615.657 221.204 612.267 222.58C607.137 224.658 604.627 230.461 606.627 235.619C608.617 240.776 614.377 243.384 619.567 241.477C622.997 240.216 625.487 237.199 626.077 233.587C626.657 229.974 625.247 226.327 622.387 224.046Z" fill="white"/>
<path d="M89.9365 563.616C50.0879 586.166 90.0565 609.387 117.026 612.813C122.226 612.14 125.617 611.289 128.707 606.738C138.726 591.946 103.678 584.491 95.5967 579.603C90.8575 576.739 95.0754 568.168 92.9971 564.133L89.9365 563.616Z" fill="#6A994E"/>
<path d="M336.437 912.006C328.037 921.635 320.526 931.567 312.347 941.276C329.885 962.795 321.677 971.796 332.417 994.556C336.258 1002.71 353.007 1017.76 359.587 1026.08C364.937 1020.62 368.058 1016.95 372.787 1010.94C380.847 1001.41 389.857 990.966 397.497 981.196L397.503 980.808C397.591 974.757 397.669 969.375 397.307 963.306C389.776 964.736 348.93 977.043 349.507 963.846C350.227 947.406 352.097 928.665 353.227 911.975L336.437 912.006Z" fill="#6A994E"/>
<path d="M71.0547 612.486C64.6085 635.319 83.6933 641.735 101.883 647.851L102.667 648.114C110.657 650.804 122.167 651.994 129.967 648.235L130.036 648.155C132.796 644.941 135.175 642.171 134.987 637.59C134.867 635.162 133.697 632.907 131.777 631.414C127.047 627.701 109.767 628.896 101.937 626.764C89.3469 623.335 81.6243 617.144 71.0547 612.486Z" fill="#6A994E"/>
<path d="M73.4756 654.481C64.13 674.32 108.316 685.966 121.387 679.503L121.616 679.247C125.614 674.777 127.864 672.261 123.537 667.089C116.307 663.871 104.327 664.929 96.4668 662.87C88.9569 660.9 80.7295 656.654 73.4756 654.481Z" fill="#6A994E"/>
<path d="M80.7275 691.101C77.8311 707.975 101.287 711.059 113.396 707.445C115.106 704.43 115.376 704.254 115.017 700.976C111.116 696.345 89.3366 693.526 80.7275 691.101Z" fill="#6A994E"/>
<path fill-rule="evenodd" clip-rule="evenodd" d="M749.597 611.007C742.347 612.402 733.776 615.045 726.557 617.071C718.637 627.317 705.357 651.091 698.527 662.719L655.167 735.89C651.657 741.71 647.547 749.163 643.107 754.117C639.857 754.274 632.197 754.479 629.377 754.994L628.646 755.036C618.437 755.181 611.217 757.105 602.957 763.36C595.207 768.967 587.997 774.598 579.607 778.3C571.967 781.669 553.977 780.136 554.167 790.276C554.728 821.393 601.117 789.697 613.037 798.04C614.416 801.321 614.446 803.418 612.687 806.902C607.456 817.266 592.136 847.306 581.146 850.596C570.447 853.795 561.816 856.416 550.887 860.935C572.046 888.164 594.927 874.595 613.537 853.456C617.627 848.816 625.977 837.366 632.297 844.796C633.675 854.946 616.217 871.966 609.337 878.355C612.828 883.594 626.437 878.545 630.697 876.355C639.527 871.815 648.087 852.616 656.657 851.286C660.996 853.476 661.097 855.456 661.277 860.225C658.477 863.026 655.017 868.736 652.697 872.286L652.747 873.916C658.677 873.506 669.356 866.106 673.127 861.706C676.947 857.106 678.648 854.375 681.787 849.225C688.287 844.365 695.066 818.127 696.337 809.342C697.827 805.467 698.158 794.068 700.287 790.048C708.117 775.286 718.237 759.89 727.097 745.751C748.836 711.704 770.357 677.511 791.646 643.178C783.656 646.544 767.827 655.054 759.797 651.506C755.147 647.153 751.497 619.65 749.597 611.007ZM732.037 662.172C730.617 660.085 730.767 660.12 728.657 658.787C707.877 671.074 708.927 685.343 717.137 704.748C710.787 715.027 698.057 734.454 697.857 746.022L698.717 747.727L698.957 747.651C701.977 746.696 702.012 746.685 704.137 743.501L704.777 742.493C712.397 730.672 722.717 720.895 728.717 707.829C728.797 707.669 733.687 705.364 734.167 705.155C729.427 697.346 719.587 691.35 721.897 680.473C723.067 674.974 731.457 666.833 732.037 662.172Z" fill="#6A994E"/>
<path fill-rule="evenodd" clip-rule="evenodd" d="M698.396 119.896C674.627 112.52 664.247 132.92 649.817 147.121C655.188 150.084 665.146 153.493 666.896 158.42C665.787 161.232 666.716 160.271 664.227 161.588C637.697 161.125 631.897 159.279 616.737 183.191C632.907 180.497 647.278 179.841 661.357 189.833C673.007 197.95 680.857 210.468 683.077 224.497C685.497 239.085 681.896 254.029 673.097 265.914C658.547 285.598 629.336 294.819 607.427 280.24C602.937 277.25 599.917 273.242 594.637 271.293C588.627 273.163 590.997 286.299 592.837 291.48C597.078 303.387 616.577 311.159 627.137 317.319C657.317 331.72 706.567 350.215 740.137 352.423C735.457 345.824 734.257 343.787 730.957 336.464C764.576 357.387 774.807 363.373 806.637 340.742C807.107 340.409 810.187 341.755 810.917 342.029C811.737 343.033 812.967 344.102 812.447 345.505C807.927 357.75 795.566 364.937 784.807 369.167C781.597 376.948 779.567 381.667 775.447 389.125C774.507 392.378 771.606 398.892 767.977 399.208C765.197 394.711 768.257 386.099 769.487 380.956C770.097 376.519 771.756 372.329 767.487 369.904C762.047 372.064 754.067 388.723 749.867 394.436C717.037 439.175 648.567 423.222 616.697 386.186C602.248 369.39 608.387 346.128 611.177 325.541L602.987 318.088C600.547 334.238 593.057 355.606 594.837 371.755C596.087 383.151 603.097 389.08 611.677 395.391C612.557 403.117 612.937 409.135 616.167 416.298C622.428 430.228 649.897 438.155 663.557 443.265C675.797 447.24 698.287 452.853 710.537 445.899C733.707 432.749 754.397 436.569 778.997 427.904C800.137 420.458 809.117 376.943 820.396 371.257C827.586 372.011 835.557 398.955 864.927 390.253C873.816 387.643 881.267 381.516 885.547 373.291C890.427 364.008 891.366 353.156 888.177 343.168C880.623 319.684 858.065 328.179 842.031 334.217L841.547 334.399L839.667 333.544C833.327 318.856 855.336 312.256 865.727 310.236C875.496 291.721 881.167 280.745 885.677 260.092C875.867 251.66 869.626 246.741 860.137 237.629C860.277 231.981 861.117 225.223 858.777 220.326L856.437 220.052C851.867 225.293 849.387 232.683 847.577 239.257C851.467 248.418 857.417 260.754 855.967 270.661C855.097 276.641 853.637 284.492 848.787 288.397L847.137 287.991C844.667 281.755 847.976 269.596 846.407 265.871C835.297 239.468 827.547 239.457 847.807 212.388C849.457 195.658 848.407 190.098 846.297 173.267C839.066 178.249 807.808 194.87 802.057 183.831C802.767 178.757 809.176 163.285 811.257 157.032C797.556 161.05 733.579 176.75 726.767 162.11C727.657 153.687 736.127 143.437 741.817 137.531C741.207 137.425 740.587 137.328 739.967 137.238C728.857 135.655 716.596 136.012 706.396 142.538C700.738 146.705 705.397 154.289 703.957 160.164C702.327 166.769 694.657 174.077 687.697 172.541C684.747 166.477 693.236 164.164 694.837 154.918C691.947 144.401 679.948 149.861 681.357 140.874C683.437 137.072 686.697 136.196 690.657 134.467C696.627 133.505 704.836 131.504 706.387 124.888C704.017 121.414 702.826 121.791 698.396 119.896ZM824.507 266.618C820.147 233.77 789.857 210.767 757.047 215.397C724.617 219.972 701.947 249.833 706.247 282.293C710.557 314.754 740.227 337.674 772.717 333.644C805.597 329.565 828.857 299.466 824.507 266.618ZM696.827 297.332C695.407 285.966 693.867 275.363 680.337 275.93C671.657 281.954 655.317 297.067 657.637 308.633C665.587 316.818 675.587 300.028 678.477 308.348C680.967 314.672 682.587 319.841 690.417 319.203C697.507 314.426 697.777 305.026 696.827 297.332ZM881.967 354.296C880.997 343.688 867.167 340.557 858.277 341.168L857.763 341.39C852.679 343.588 845.463 346.707 842.127 350.931C841.577 358.26 852.037 358.707 852.407 365.335C852.577 368.236 846.927 372.984 847.267 376.547C851.847 380.051 859.577 374.358 862.677 370.837C864.397 363.225 862.787 361.237 862.057 353.319C866.807 350.708 874.227 356.218 878.977 358.7C881.157 357.208 880.657 357.131 881.967 354.296Z" fill="#6A994E"/>
<path d="M700.607 357.438C697.838 372.05 705.787 380.155 719.977 374.37C722.166 370.847 722.367 370.343 723.177 366.274C720.407 358.643 708.057 360.359 700.607 357.438Z" fill="#FFE6A7"/>
<path d="M628.816 331.405C624.527 347.703 623.867 352.147 642.667 356.473C643.587 356.182 644.746 355.901 645.526 355.444C648.336 350.155 649.837 346.943 652.057 341.38C642.797 338.123 637.616 335.714 628.816 331.405Z" fill="#FFE6A7"/>
<path d="M495.127 468.348C489.225 481.894 455.257 584.611 450.507 586.37C447.527 587.474 440.717 585.778 437.587 585.12C405.287 578.337 373.237 569.564 341.127 561.892L114.417 507.925C114.547 527.986 114.547 548.049 114.407 568.11C138.587 577.321 157.557 587.674 145.997 617.724C157.066 634.037 157.046 645.987 144.437 661.478C146.076 676.735 145.267 682.635 133.987 693.803C136.267 712.609 130.896 718.152 115.037 726.532C114.947 735.202 114.737 744.122 114.777 752.767C148.307 759.432 190.648 772.902 224.567 781.724C307.227 803.183 389.777 825.066 472.207 847.376C479.937 849.206 487.657 851.095 495.367 853.035C496.957 781.952 494.757 710.187 495.487 639.018C495.747 613.448 496.547 584.815 495.157 559.438C496.567 532.605 495.317 495.956 495.127 468.348Z" fill="#D4A373"/>
<path fill-rule="evenodd" clip-rule="evenodd" d="M106.307 349.059C80.1709 380.064 54.201 411.214 28.4053 442.506L248.927 495.48C284.907 503.952 320.837 512.612 356.717 521.459C374.487 525.773 396.137 530.344 413.367 535.344C414.377 533.98 417.964 529.34 418.486 528.114C423.116 523.059 427.477 516.618 431.507 510.996C447.357 489.072 470.757 454.651 487.347 434.742L410.247 417.109C399.967 414.731 375.086 408.367 365.856 407.932C356.437 415.366 354.966 417.83 352.316 430.988C349.688 444.029 362.336 476.623 339.387 477.252C336.977 477.318 333.858 474.864 332.707 473.023C322.597 459.634 348.136 418.961 330.606 410.871C328.657 411.362 326.706 411.881 324.767 412.427C320.747 417.186 316.966 423.105 310.187 419.83C305.257 413.218 306.816 402.751 306.937 394.417C291.917 389.8 274.977 386.49 259.537 383.033C235.387 377.528 211.187 372.201 186.957 367.05C160.807 361.494 132.157 353.72 106.307 349.059ZM424.967 422.811C420.077 422.083 413.007 420.764 408.267 421.064C400.977 425.866 391.987 432.114 395.157 442.436C399.297 447.118 402.937 445.43 407.477 442.006C413.457 435.744 419.287 429.344 424.967 422.811Z" fill="#D4A373"/>
<path d="M823.567 400.351C801.568 447.734 788.757 447.049 739.527 455.866C729.557 457.652 716.876 464.309 706.646 466.547C681.547 472.746 648.686 458.412 625.847 448.251C611.667 441.943 602.327 434.15 597.237 419.493C596.457 417.214 595.756 414.909 595.146 412.582C572.667 418.054 540.767 430.402 519.947 433.854C535.527 454.885 550.887 476.085 566.017 497.448C574.896 509.297 585.437 525.133 594.447 535.974C609.467 530.478 627.077 525.688 642.517 520.87C675.556 510.281 708.687 499.958 741.896 489.901C786.476 476.103 838.717 457.834 882.927 445.796C876.837 438.482 858.618 415.014 853.247 410.077C839.057 409.16 835.977 407.506 823.567 400.351Z" fill="#D4A373"/>
<path d="M147.507 232.269C140.827 233.344 135.227 234.566 128.637 236.075C101.927 238.777 66.1564 248.585 38.2295 252.357C50.5894 265.452 62.8452 278.646 74.9922 291.937C84.437 302.42 93.8274 312.948 103.657 323.068C107.239 326.747 109.926 325.863 114.513 324.354L114.697 324.293C122.417 304.784 114.977 309.026 133.347 289.112C133.687 273.738 139.808 261.325 150.857 250.681L153.447 248.558C155.327 243.67 149.337 238.386 147.507 232.269Z" fill="#D4A373"/>
<path d="M591.677 118.397C555.347 108.819 533.547 113.773 514.077 146.894C524.397 141.253 548.128 126.834 559.317 130.095C558.167 135.928 558.087 136.078 552.667 139.103C545.357 143.016 533.747 148.856 527.427 153.466C524.477 155.361 523.257 155.365 522.257 157.949C525.297 159.476 529.297 159.107 532.867 159.15C565.087 158.371 575.797 143.65 591.677 118.397Z" fill="#588157"/>
<path d="M582.327 14.5165C545.787 19.3955 526.947 29.9834 520.977 67.9794C528.447 59.9124 544.107 41.7546 554.157 38.3456L556.837 38.6776C557.927 40.3235 557.987 40.0064 558.447 41.8134C549.487 54.7284 539.067 63.287 529.537 77.955L529.646 77.9221C550.449 71.6334 565.317 67.1388 576.577 46.2333C580.947 38.1203 584.537 24.6701 584.767 15.5682C583.127 14.2905 583.977 14.4255 582.327 14.5165Z" fill="#588157"/>
<path d="M430.167 62.2147C426.897 91.3797 431.498 115.476 455.638 134.08C459.218 137.033 464.677 139.912 468.827 142.274C466.157 135.267 464.047 129.573 460.647 122.838C458.617 116.378 447.287 99.4129 451.287 93.5468C458.147 94.6043 466.817 110.177 470.277 115.877L479.728 134.555C480.357 124.835 479.857 117.419 478.747 107.893C470.097 84.3448 459.157 75.6293 436.147 64.9354C434.158 64.0145 432.167 63.1077 430.167 62.2147Z" fill="#588157"/>
<path d="M680.027 385.623C676.837 382.619 666.296 382.918 661.896 383.117C656.207 385.272 650.887 386.433 647.827 391.554C649.019 404.925 694.627 408.753 706.667 406.663C711.097 405.919 715.447 404.738 719.646 403.14L722.487 401.484C721.427 397.121 715.167 394.284 712.127 391.67C700.367 381.591 682.137 398.571 673.337 395.022C673.927 391.622 677.477 389.501 680.027 385.623Z" fill="#FF8B8B"/>
<path d="M837.977 510.049C834.237 502.564 822.877 489.286 813.707 490.145C800.877 493.722 787.847 497.261 775.077 501.099C770.157 502.58 763.877 504.208 764.537 510.001C767.216 513.746 768.137 513.781 768.447 517.955C765.048 524.2 760.992 530.637 757.182 536.683L757.18 536.686L756.977 537.009C744.537 556.705 733.637 577.183 722.027 597.332C733.977 594.227 751.927 589.228 763.777 588.621C766.697 596.775 771.868 625.026 773.817 627.737L775.357 627.794C786.497 623.357 798.037 618.541 809.217 614.286C815.156 625.33 819.767 638.572 823.417 650.582C835.137 611.462 857.066 548.271 837.977 510.049Z" fill="#008F8F"/>
<path d="M805.837 658.395C801.067 666.364 794.746 676.437 789.387 683.897C788.797 694.375 791.617 763.509 785.927 770.816C785.524 771.286 748.552 784.601 743.427 786.704C736.496 789.132 721.157 793.055 717.807 798.577C717.907 801.719 718.107 801.875 719.657 804.719C725.417 814.854 734.767 828.126 741.337 837.935C745.207 830.415 758.357 805.198 764.887 802.337C766.477 802.283 768.646 802.34 769.896 803.353C780.796 812.149 791.877 822.676 802.727 831.605C802.537 796.757 805.397 757.797 808.187 723.031C809.476 707.013 813.247 688.093 813.837 673.347C811.207 667.934 809.127 663.427 805.837 658.395Z" fill="#008F8F"/>
<path d="M788.577 900.435C791.057 908.295 795.837 920.266 794.577 928.056C789.074 934.404 750.458 932.166 741.027 932.126C741.108 940.099 742.706 974.995 739.177 978.725C729.996 981.875 688.167 963.766 676.467 959.296C672.137 966.035 669.166 972.587 665.727 979.776C670.436 985.345 671.947 986.787 677.707 991.316C700.186 1006.26 710.738 1001.37 735.287 997.106C764.237 992.076 788.647 980.705 805.697 955.806C813.837 943.916 826.216 916.846 808.307 907.746C805.117 906.126 791.838 900.866 788.577 900.435Z" fill="#6A994E"/>
<path d="M319.827 47.368C327.887 72.3855 338.336 85.3382 314.267 104.787C311.307 107.181 309.946 109.413 306.137 111.696C295.277 109.986 283.757 108.132 273.267 104.774C268.437 96.9832 262.327 76.939 258.717 67.6669C253.297 78.5754 250.057 86.3146 250.167 98.5741C250.337 118.703 262.987 134.217 280.737 142.406C286.137 144.9 292.377 146.762 297.707 149.371C306.287 161.372 313.507 193.482 319.667 209.134L334.427 214.396L330.777 205.312C327.607 194.911 317.547 171.157 321.847 162.97C325.197 160.916 323.687 161.382 327.817 161.607C333.199 164.29 335.105 170.248 336.965 176.059L337.087 176.441C342.647 193.8 348.177 210.501 354.467 227.624C359.187 228.707 363.897 229.612 368.367 231.432C358.397 201.298 346.667 171.306 339.067 140.525C338.388 137.773 343.056 126.79 344.646 124.34C363.246 95.5668 355.247 57.3202 319.827 47.368Z" fill="#9D9D9D"/>
<path d="M166.677 98.5136C156.587 82.6478 132.487 85.0018 126.507 104.555C125.367 108.388 124.276 112.24 123.236 116.105C112.457 112.637 104.467 108.615 93.417 113.667C82.0371 118.87 78.8412 136.408 85.0771 145.974C96.6771 163.761 118.767 145.707 130.977 165.22C145.456 188.359 155.887 214.892 170.447 237.717C175.047 236.9 179.157 236.233 183.667 234.952C187.777 229.485 190.837 224.988 196.106 220.501C192.887 213.878 189.737 207.122 186.057 200.753C181.887 192.428 176.737 181.409 171.667 173.939C168.057 164.87 153.687 145.857 158.066 136.471C163.076 125.723 172.287 112.19 166.677 98.5136Z" fill="white"/>
<path fill-rule="evenodd" clip-rule="evenodd" d="M342.627 245.11C329.527 232.92 322.397 226.369 303.507 227.12C302.617 227.156 301.736 227.202 300.856 227.259C290.077 229.958 282.376 233.306 273.606 240.405C284.666 241.819 296.197 244.536 303.467 253.716C306.837 257.966 307.527 260.854 303.947 265.105C295.067 266.384 288.947 256.241 281.537 253.782C263.727 247.866 245.727 259.303 235.167 273.084C230.337 279.378 224.047 289.928 229.287 297.519L230.307 297.541C237.167 297.734 258.707 299.535 256.477 309.584C254.917 311.121 253.556 313.162 251.106 312.923C239.127 311.757 229.517 307.876 219.077 316.543C210.417 323.743 203.837 338.048 206.837 349.255C206.986 349.421 207.134 349.587 207.282 349.752C207.326 349.802 207.37 349.851 207.413 349.9C207.497 349.994 207.581 350.088 207.665 350.182C207.718 350.242 207.771 350.301 207.824 350.361C208.021 350.582 208.218 350.804 208.417 351.025C231.177 356.253 268.407 365.866 290.307 369.549C315.247 358.978 312.287 344.341 344.776 354.141C385.606 366.914 369.157 332.847 375.047 320.95C378.297 319.206 376.637 319.527 380.137 319.715C389.207 325.106 388.457 339.251 386.927 348.249L388.066 348.497C392.826 344.554 400.897 338.199 404.927 333.898C407.627 301.891 395.507 294.401 366.177 290.772L366.173 290.884C366.063 294.464 365.371 316.846 354.087 306.956C352.127 305.239 354.836 287.004 353.267 284.079C350.447 275.106 336.497 271.402 337.526 261.903C346.716 251.638 360.376 271.515 364.736 278.885C372.996 278.99 380.077 279.199 388.337 279.771C378.297 256.345 370.797 245.212 342.627 245.11ZM320.465 275.644L320.367 275.598C315.317 281.463 310.297 288.777 302.237 289.95C289.777 291.763 278.687 268.811 267.027 281.1C267.557 290.53 291.397 295.133 291.337 310.156C291.287 323.407 285.187 335.763 270.977 339.29C263.637 340.305 247.407 331.782 240.337 336.54C238.897 346.081 255.977 350.889 263.477 351.592C295.617 352.479 289.857 331.316 315.317 325.041C322.347 323.308 340.277 335.261 347.987 332.1C348.877 330.497 349.247 329.798 348.347 327.951C339.557 310.04 318.277 312.112 303.837 315.25C303.347 310.666 303.007 306.232 301.997 301.734C311.147 299.141 327.977 292.143 326.287 280.44C324.237 277.41 323.746 277.18 320.465 275.644Z" fill="#FFD0D0"/>
<path d="M190.127 339.237C191.577 329.834 192.367 325.988 197.267 317.903C201.927 310.993 205.117 308.168 212.007 303.37C211.237 284.8 212.967 272.68 226.247 258.192C228.077 256.228 229.967 254.326 231.927 252.491C226.787 250.644 217.507 248.45 219.307 241.391C226.76 235.505 236.322 240.579 243.475 244.374L243.637 244.46C250.177 238.655 259.696 229.619 266.276 224.455C237.387 215.697 216.106 221.702 198.356 246.039C200.226 254.148 204.486 262.449 201.146 268.276C197.427 269.833 199.026 269.64 195.066 269.043C190.127 265.502 188.577 259.058 186.467 253.249C172.567 256.275 162.847 262.802 154.617 274.934C147.45 285.5 154.307 288.617 162.893 292.521L163.117 292.623C169.457 286.17 184.266 277.422 193.066 282.135C195.046 285.748 193.717 287.688 191.307 290.915C183.137 294.831 176.427 293.694 171.537 302.664C167.248 310.525 183.876 332.621 166.627 330.128C156.667 324.411 160.686 308.315 155.687 302.061L155.508 301.985C153.219 301.005 151.885 300.434 149.497 301.73C134.817 309.681 133.767 321.336 134.087 335.157L135.566 335.337C146.996 336.794 181.545 346.76 188.606 345.689C190.186 343.38 189.977 342.034 190.127 339.237Z" fill="#FFD0D0"/>
<path fill-rule="evenodd" clip-rule="evenodd" d="M546.037 306.221C485.387 309.936 441.167 342.129 419.087 398.388L442.217 403.229C445.647 399.112 450.827 392.634 454.977 389.657C460.537 384.48 467.927 379.091 475.787 379.344L477.587 380.69C477.927 387.524 467.197 394.02 462.197 397.739L456.317 404.462C463.917 406.426 469.407 407.546 477.087 408.887C479.977 404.175 484.837 393.774 491.217 395.409C494.066 400.872 490.607 408.021 488.767 413.681C501.836 416.141 519.697 417.808 529.977 406.72C547.296 388.048 560.516 353.881 562.517 328.992C554.597 333.95 547.027 338.177 538.877 342.712L546.037 306.221ZM502.747 375.332C493.087 369.137 483.857 341.486 479.487 339.487C467.067 366.238 503.357 401.444 528.627 393.505L530.387 390.712C528.757 387.771 508.627 379.108 502.747 375.332ZM524.217 331.841C522.097 326.496 516.107 323.811 510.717 325.785C507.087 327.11 504.467 330.297 503.877 334.108C503.277 337.919 504.797 341.754 507.847 344.122C510.887 346.49 514.977 347.019 518.527 345.503C523.807 343.244 526.337 337.186 524.217 331.841Z" fill="#B3B3B3"/>
<path d="M437.037 340.323C424.707 342.724 409.007 347.376 399.837 356.546L409.597 364.502L417.057 371.409C421.127 364.147 424.907 358.114 429.927 351.477C432.287 348.369 436.207 344.152 438.067 341.16L437.037 340.323Z" fill="#B3B3B3"/>
<path d="M330.047 365.074C325.687 367.996 321.347 370.945 317.027 373.919L333.807 378.588L342.807 380.703C339.707 376.107 334.567 367.653 330.047 365.074Z" fill="#B3B3B3"/>
<path d="M414.377 220.412C412.367 242.301 409.396 264.046 407.146 285.886C409.866 289.221 412.367 292.241 415.237 295.457C431.697 286.356 449.668 284.76 468.067 287.059C478.617 281.581 479.677 250.45 482.197 239.247C460.007 233.122 436.317 227.018 414.377 220.412Z" fill="#FFDB8E"/>
<path d="M408.767 179.716C407.727 186.856 406.597 193.982 405.377 201.092C446.007 213.398 487.527 223.104 528.247 235.168C532.697 236.488 538.538 238.883 543.067 239.055C544.857 237.707 544.538 238.49 545.027 236.841C547.037 230.996 548.757 225.79 551.387 220.156C520.827 211.987 490.397 203.364 460.097 194.287C448.287 190.807 419.327 181.658 408.767 179.716Z" fill="#FFDB8E"/>
<path d="M200.437 870.286C190.387 856.416 166.687 850.076 151.297 851.346C146.167 853.665 141.907 856.066 144.566 862.246C151.166 867.215 160.157 863.016 167.667 865.076C175.827 867.316 184.967 874.016 192.577 878.416C196.367 877.456 197.027 876.755 200.146 874.306C200.746 872.926 201.505 871.745 200.437 870.286Z" fill="white"/>
<path d="M108.067 877.036C102.678 880.696 101.606 881.806 97.1465 886.626C102.776 887.836 111.717 889.656 116.687 892.076C168.666 917.986 193.607 976.456 227.727 1020.36C238.636 1034.39 253.377 1043.84 264.887 1057.07C268.495 1061.22 264.307 1067.89 261.847 1071.53C278.346 1087.67 294.077 1103.28 302.957 1125.12L304.167 1125.34C307.627 1121.79 311.937 1114.46 314.737 1110.06C301.467 1072.62 266.567 1045.28 241.827 1014.67C209.867 975.106 167.597 876.297 108.067 877.036Z" fill="white"/>
<path d="M255.517 925.605C256.627 932.897 258.747 956.686 261.547 960.496L261.679 960.56C264.437 961.887 264.487 961.911 268.217 960.966C270.587 949.186 269.646 929.386 255.517 925.605Z" fill="white"/>
<path d="M279.157 939.806C282.927 951.205 283.217 958.356 286.227 969.636C286.727 971.514 288.457 972.096 289.977 972.916C291.236 972.896 293.007 972.946 294.187 972.716C296.377 959.836 296.317 941.206 279.157 939.806Z" fill="white"/>
<path d="M726.327 1065.46C722.977 1062.93 720.237 1062.71 716.027 1063.03C705.887 1067.85 686.357 1082.27 690.227 1095.42C692.537 1098.13 697.307 1097.27 700.037 1095.57C702.057 1091.96 703.738 1088.72 706.657 1085.72C712.317 1079.91 728.605 1074.46 726.327 1065.46Z" fill="white"/>
<path d="M806.157 1015.85C803.337 1006.43 788.737 1002.99 780.107 1003.86C773.928 1007.17 768.706 1009.65 762.307 1012.52C772.197 1014.16 781.817 1015.6 791.527 1018.16C796.587 1019.6 804.127 1022.67 806.157 1015.85Z" fill="white"/>
<path d="M759.547 1026.12C751.157 1027.78 750.817 1029.45 745.867 1036.63C762.527 1037.49 772.867 1039.17 788.657 1046.03C792.106 1046.66 792.298 1046.8 795.527 1045.75L796.817 1044.3C795.527 1031.13 770.537 1025.98 759.547 1026.12Z" fill="white"/>
<path fill-rule="evenodd" clip-rule="evenodd" d="M508.137 59.9003C513.957 13.4133 558.137 -1.1859 599.037 0.0741039C599.857 49.7578 582.096 83.8046 530.707 91.0995C522.56 92.2571 517.791 93.3213 514.782 101.105L514.497 101.88C507.618 115.389 504.347 127.054 500.407 141.556C510.106 123.113 515.257 117.359 533.184 106.442H533.187C537.266 104.996 547.766 100.893 551.767 100.415C567.417 98.5439 589.037 100.509 603.717 106.589C615.635 111.712 602.797 128.526 598.767 135.264C591.196 147.925 576.796 162.218 563.337 168.74C547.367 176.48 523.257 174.004 506.407 171.372C499.628 176.457 498.046 178.484 494.307 186.119C503.566 189.444 514.158 191.565 522.857 194.84C530.62 197.756 569.897 204.955 568.997 213.414C566.684 235.378 547.973 273.252 560.056 294.62L560.347 295.122C571.946 308.873 572.767 307.272 586.437 318.382C575.732 303.908 573.455 302.244 570.604 284.979L570.327 283.259L570.468 282.011C571.989 269.338 575.644 263.68 582.977 253.082C573.187 203.338 598.826 208.344 599.527 182.392L599.526 182.391C601.646 171.876 605.086 166.226 611.765 158.158H611.767C617.916 153.973 619.068 152.027 626.247 149.412C638.727 127.319 644.348 121.525 664.687 106.96C654.157 102.434 646.046 100.988 635.007 98.2772C658.087 83.8663 678.787 81.2588 705.057 82.2138C701.727 75.9133 696.139 62.6958 700.057 56.2362C703.516 55.9532 703.557 56.9287 706.977 59.3944C711.657 63.7874 719.358 70.4067 725.067 73.2264C743.227 83.0878 753.618 81.1449 773.077 85.7938C814.087 95.592 874.057 125.345 891.277 166.381C899.717 162.07 918.417 153.662 924.927 164.881C923.754 170.237 909.717 176.521 903.817 183.469C915.557 185.976 935.187 193.826 933.057 208.941L931.167 210.582C923.177 209.5 916.877 204.812 906.347 203.41C915.186 235.223 904.446 281.809 888.646 310.007C887.797 311.531 886.906 313.038 885.977 314.522C893.426 318.654 895.218 319.914 900.777 326.644C918.577 311.327 936.068 295.661 953.237 279.654C946.818 278.064 921.411 272.834 917.957 269.592C918.027 264.646 920.497 256.402 921.797 251.343C932.278 253.895 978.505 262.685 982.687 269.679C983.926 271.758 984.467 274.795 983.837 277.162C981.289 286.811 919.896 335.893 908.597 346.713C912.096 373.785 900.116 393.367 876.577 405.954L928.557 469.732C937.156 480.318 946.567 490.816 953.887 502.279C956.655 506.623 954.127 511.867 950.737 514.992C942.863 518.301 866.229 497.406 851.947 494.483C869.386 520.398 868.387 553.16 862.277 582.539C856.117 612.126 847.997 641.16 838.787 669.916C837.187 674.896 835.627 680.098 834.337 685.177C826.767 727.703 824.307 771.711 823.187 814.853C822.797 829.505 824.007 844.737 822.727 859.246C822.364 863.354 815.636 865.575 811.767 863.966C801.377 859.666 794.007 850.746 784.827 844.506C783.487 880.083 782.447 872.776 811.847 888.576C828.327 883.096 842.427 884.196 858.197 893.066C876.337 903.276 896.348 920.946 914.067 932.886C916.997 934.857 921.077 941.476 922.197 944.806C927.186 970.666 913.776 1010.1 904.307 1034.55C902.957 1038.04 901.336 1038.92 898.807 1039.86C894.677 1041.39 889.757 1040.05 888.497 1043.09C885.467 1050.39 883.177 1058.54 880.457 1065.94C869.007 1097.09 854.116 1124.89 826.247 1144.65C848.357 1145.02 870.467 1145.09 892.577 1144.86C902.947 1144.83 914.317 1144.4 924.567 1145.13C937.877 1146.07 938.377 1165.81 923.027 1166.1C907.877 1166.39 892.737 1165.97 877.587 1165.97L182.027 1166.03C163.427 1166.02 144.307 1166.55 125.667 1165.86C106.727 1165.16 109.497 1145.07 124.307 1144.88C163.567 1144.36 203.287 1145.99 242.557 1145.13C224.437 1136.67 196.148 1111.33 184.037 1095.65C185.467 1088.8 186.587 1084.77 188.797 1078.13C173.737 1066.17 157.196 1056.6 142.427 1043.86C110.957 1016.72 85.2969 983.815 70.1738 944.696C60.235 918.987 59.3371 889.436 83.832 871.206C91.5565 865.456 98.2572 856.966 104.717 849.906C134.587 821.836 182.737 823.236 213.047 849.886C231.236 865.355 238.897 882.087 250.257 902.236C251.268 904.015 254.997 905.236 256.847 905.946C263.257 909.356 271.437 912.446 276.247 917.116C280.009 919.786 292.037 924.016 297.517 926.485L310.167 912.525C300.847 913.115 288.287 915.025 280.017 911.565C279.012 909.384 278.822 908.015 278.668 906.094L278.497 903.935L278.908 903.313C283.29 896.841 291.816 889.046 297.057 883.166C311.346 867.156 328.617 850.796 342.057 834.276C323.647 830.096 302.177 823.706 283.697 818.746L186.767 792.871C173.117 789.181 105.122 772.657 96.457 766.996C92.2074 759.822 93.8165 735.809 93.9268 726.485C71.2944 718.714 57.4611 710.66 63.5869 683.915C51.1574 669.797 49.5412 661.717 56.5762 644.023C46.5855 627.98 48.1437 614.845 58.4736 599.701C50.2128 584.049 54.716 565.352 68.9092 554.949C76.9779 549.034 84.5472 546.788 93.9668 544.107L93.9766 479.087C65.3998 473.541 35.1623 464.472 6.64355 457.984C2.35847 457.009 1.66839 453.532 0 449.902C2.16909 437.758 15.1781 427.207 23.3691 415.733C30.0748 408.896 39.9632 396.373 46.4482 388.655L89.3066 337.721C76.7478 322.729 12.5424 258.59 9.69434 247.432C9.15455 245.311 9.24 243.081 10.4141 241.181C12.148 238.376 15.4794 236.868 18.4951 235.86C29.836 232.069 43.294 230.747 55.1279 228.594C82.2887 223.652 109.677 219.276 136.637 213.325C133.897 209.056 117.109 175.353 114.577 174.834C99.6676 171.81 88.2565 174.89 75.6709 161.669C70.4034 156.135 66.9158 150.345 65.0566 142.65C59.7247 108.552 81.1049 92.6006 111.467 93.8475C123.227 71.0358 146.917 61.908 169.097 76.8397C178.136 82.8648 184.297 92.3566 186.097 103.07C188.656 117.8 183.257 128.703 175.157 140.35C184.657 161.412 200.697 189.388 211.807 210.579C213.986 209.54 216.197 208.562 218.437 207.646C241.047 198.565 261.027 202.438 282.637 211.822C288.657 210.489 294.927 209.453 301.007 208.365C295.847 195.088 290.357 177.114 286.237 163.314C265.218 155.359 251.517 148.853 239.657 126.772C225.187 100.593 233.318 60.2904 258.677 44.08C272.177 35.451 282.077 81.4062 284.967 90.2782C289.927 91.2772 295.767 92.0745 300.837 92.8925C306.096 88.4199 307.818 86.4899 312.257 81.1239C309.617 71.4175 306.267 60.2774 302.837 50.7958C294.697 28.2949 302.407 24.7909 323.507 29.3749C332.926 32.3108 337.027 34.0258 345.167 39.6337C360.616 51.4394 368.667 63.8634 371.217 83.455C374.576 109.22 367.107 119.16 356.457 139.493C368.647 176.5 380.427 213.602 394.127 250.082C395.867 241.871 399.956 224.494 397.027 217.048C393.798 213.166 388.857 213.49 387.896 208.557C386.757 202.62 394.207 160.896 401.457 162.013C426.047 165.8 451.527 175.377 476.137 181.706C476.497 155.572 470.806 160.521 449.957 147.928C415.568 127.155 407.568 81.6676 420.167 45.7479C436.287 49.4279 450.497 54.1173 464.407 63.6132C468.376 66.8635 471.207 69.1215 474.727 72.869C484.156 82.7503 487.027 88.8854 491.437 101.963L494.797 114.466C496.237 109.715 498.297 104.542 500.057 99.8485C501.686 95.6073 506.055 87.6032 506.887 84.1171C508.507 77.2758 507.227 67.1541 508.137 59.9003ZM197.267 317.903C197.457 319.847 197.997 321.662 197.337 323.095C195.107 327.948 202.047 340.834 196.587 344.333C193.497 340.476 196.637 336.744 194.137 335.033L190.127 339.237C189.977 342.034 190.186 343.38 188.606 345.689C181.545 346.76 146.996 336.794 135.566 335.337L134.087 335.157C133.767 321.336 134.817 309.681 149.497 301.73C151.885 300.434 153.219 301.005 155.508 301.985L155.687 302.061C160.686 308.315 156.667 324.411 166.627 330.128C183.876 332.621 167.248 310.525 171.537 302.664C176.427 293.694 183.137 294.831 191.307 290.915C193.717 287.688 195.046 285.748 193.066 282.135C184.266 277.422 169.457 286.17 163.117 292.623L162.893 292.521C154.307 288.617 147.45 285.5 154.617 274.934C162.847 262.802 172.567 256.275 186.467 253.249C188.577 259.058 190.127 265.502 195.066 269.043C199.026 269.64 197.427 269.833 201.146 268.276C204.486 262.449 200.226 254.148 198.356 246.039C216.106 221.702 237.387 215.697 266.276 224.455C259.696 229.619 250.177 238.655 243.637 244.46L243.475 244.374C236.322 240.579 226.76 235.505 219.307 241.391C217.507 248.45 226.787 250.644 231.927 252.491C229.967 254.326 228.077 256.228 226.247 258.192C212.967 272.68 211.237 284.8 212.007 303.37C205.117 308.168 201.927 310.993 197.267 317.903ZM417.747 1046.54C465.277 992.766 497.457 944.715 564.146 912.195C568.656 915.456 573.077 925.956 575.977 931.006C585.228 947.158 622.478 1015.96 631.197 1022.93C633.776 1024.98 635.338 1025.17 638.487 1024.81C645.047 1020.8 650.937 1007.45 655.146 999.945C679.766 1022.69 702.378 1023.85 733.697 1018.7C730.787 1023.43 727.356 1031.72 724.977 1037C698.657 1044.88 687.727 1045.81 669.317 1072.08C657.798 1088.52 657.477 1126.13 661.977 1144.84C599.857 1145.94 535.087 1145.03 472.797 1145.03L313.146 1144.85C320.666 1137.11 325.577 1128.69 331.797 1121.74C355.856 1094.86 367.566 1083.4 371.347 1045.43C380.286 1033.71 392.627 1020.67 400.047 1008.29C400.976 1019.07 398.428 1043.6 407.327 1049.39C411.196 1050.13 414.967 1049.68 417.747 1046.54ZM815.377 1107.25C845.857 1081.71 886.066 979.636 889.387 941.235C896.126 944.225 897.857 945.356 902.937 950.346C903.506 964.647 896.366 1006.69 887.927 1016.29L887.297 1016.1C878.376 1013.41 876.176 1012.75 873.137 1021.91C861.637 1056.85 854.096 1090.06 827.127 1116.84C793.057 1150.65 745.437 1144.73 701.067 1144.56C695.897 1144.63 674.319 1148.39 681.857 1129.25C682.247 1128.26 697.986 1129.2 701.896 1129.15C740.826 1128.69 783.007 1134.06 815.377 1107.25ZM97.1465 886.626C101.606 881.806 102.678 880.696 108.067 877.036C167.597 876.297 209.867 975.106 241.827 1014.67C266.567 1045.28 301.467 1072.62 314.737 1110.06C311.937 1114.46 307.627 1121.79 304.167 1125.34L302.957 1125.12C294.077 1103.28 278.346 1087.67 261.847 1071.53C264.307 1067.89 268.495 1061.22 264.887 1057.07C253.377 1043.84 238.636 1034.39 227.727 1020.36C193.607 976.456 168.666 917.986 116.687 892.076C111.717 889.656 102.776 887.836 97.1465 886.626ZM716.027 1063.03C720.237 1062.71 722.977 1062.93 726.327 1065.46C728.605 1074.46 712.317 1079.91 706.657 1085.72C703.738 1088.72 702.057 1091.96 700.037 1095.57C697.307 1097.27 692.537 1098.13 690.227 1095.42C686.357 1082.27 705.887 1067.85 716.027 1063.03ZM745.867 1036.63C750.817 1029.45 751.157 1027.78 759.547 1026.12C770.537 1025.98 795.527 1031.13 796.817 1044.3L795.527 1045.75C792.298 1046.8 792.106 1046.66 788.657 1046.03C772.867 1039.17 762.527 1037.49 745.867 1036.63ZM312.347 941.276C320.526 931.567 328.037 921.635 336.437 912.006L353.227 911.975C352.097 928.665 350.227 947.406 349.507 963.846C348.93 977.043 389.776 964.736 397.307 963.306C397.669 969.375 397.591 974.757 397.503 980.808L397.497 981.196C389.857 990.966 380.847 1001.41 372.787 1010.94C368.058 1016.95 364.937 1020.62 359.587 1026.08C353.007 1017.76 336.258 1002.71 332.417 994.556C321.677 971.796 329.885 962.795 312.347 941.276ZM780.107 1003.86C788.737 1002.99 803.337 1006.43 806.157 1015.85C804.127 1022.67 796.587 1019.6 791.527 1018.16C781.817 1015.6 772.197 1014.16 762.307 1012.52C768.706 1009.65 773.928 1007.17 780.107 1003.86ZM794.577 928.056C795.837 920.266 791.057 908.295 788.577 900.435C791.838 900.866 805.117 906.126 808.307 907.746C826.216 916.846 813.837 943.916 805.697 955.806C788.647 980.705 764.237 992.076 735.287 997.106C710.738 1001.37 700.186 1006.26 677.707 991.316C671.947 986.787 670.436 985.345 665.727 979.776C669.166 972.587 672.137 966.035 676.467 959.296C688.167 963.766 729.996 981.875 739.177 978.725C742.706 974.995 741.108 940.099 741.027 932.126C750.458 932.166 789.074 934.404 794.577 928.056ZM286.227 969.636C283.217 958.356 282.927 951.205 279.157 939.806C296.317 941.206 296.377 959.836 294.187 972.716C293.007 972.946 291.236 972.896 289.977 972.916C288.457 972.096 286.727 971.514 286.227 969.636ZM261.547 960.496C258.747 956.686 256.627 932.897 255.517 925.605C269.646 929.386 270.587 949.186 268.217 960.966C264.487 961.911 264.437 961.887 261.679 960.56L261.547 960.496ZM726.557 617.071C733.776 615.045 742.347 612.402 749.597 611.007C751.497 619.65 755.147 647.153 759.797 651.506C767.827 655.054 783.656 646.544 791.646 643.178C770.357 677.511 748.836 711.704 727.097 745.751C718.237 759.89 708.117 775.286 700.287 790.048C698.158 794.068 697.827 805.467 696.337 809.342C695.066 818.127 688.287 844.365 681.787 849.225C678.648 854.375 676.947 857.106 673.127 861.706C669.356 866.106 658.677 873.506 652.747 873.916L652.697 872.286C655.017 868.736 658.477 863.026 661.277 860.225C661.097 855.456 660.996 853.476 656.657 851.286C648.087 852.616 639.527 871.815 630.697 876.355C626.437 878.545 612.828 883.594 609.337 878.355C616.217 871.966 633.675 854.946 632.297 844.796C625.977 837.366 617.627 848.816 613.537 853.456C594.927 874.595 572.046 888.164 550.887 860.935C561.816 856.416 570.447 853.795 581.146 850.596C592.136 847.306 607.456 817.266 612.687 806.902C614.446 803.418 614.416 801.321 613.037 798.04C601.117 789.697 554.728 821.393 554.167 790.276C553.977 780.136 571.967 781.669 579.607 778.3C587.997 774.598 595.207 768.967 602.957 763.36C611.217 757.105 618.437 755.181 628.646 755.036L629.377 754.994C632.197 754.479 639.857 754.274 643.107 754.117C647.547 749.163 651.657 741.71 655.167 735.89L698.527 662.719C705.357 651.091 718.637 627.317 726.557 617.071ZM151.297 851.346C166.687 850.076 190.387 856.416 200.437 870.286C201.505 871.745 200.746 872.926 200.146 874.306C197.027 876.755 196.367 877.456 192.577 878.416C184.967 874.016 175.827 867.316 167.667 865.076C160.157 863.016 151.166 867.215 144.566 862.246C141.907 856.066 146.167 853.665 151.297 851.346ZM450.507 586.37C455.257 584.611 489.225 481.894 495.127 468.348C495.317 495.956 496.567 532.605 495.157 559.438C496.547 584.815 495.747 613.448 495.487 639.018C494.757 710.187 496.957 781.952 495.367 853.035C487.657 851.095 479.937 849.206 472.207 847.376C389.777 825.066 307.227 803.183 224.567 781.724C190.648 772.902 148.307 759.432 114.777 752.767C114.737 744.122 114.947 735.202 115.037 726.532C130.896 718.152 136.267 712.609 133.987 693.803C145.267 682.635 146.076 676.735 144.437 661.478C157.046 645.987 157.066 634.037 145.997 617.724C157.557 587.674 138.587 577.321 114.407 568.11C114.547 548.049 114.547 527.986 114.417 507.925L341.127 561.892C373.237 569.564 405.287 578.337 437.587 585.12C440.717 585.778 447.527 587.474 450.507 586.37ZM789.387 683.897C794.746 676.437 801.067 666.364 805.837 658.395C809.127 663.427 811.207 667.934 813.837 673.347C813.247 688.093 809.476 707.013 808.187 723.031C805.397 757.797 802.537 796.757 802.727 831.605C791.877 822.676 780.796 812.149 769.896 803.353C768.646 802.34 766.477 802.283 764.887 802.337C758.357 805.198 745.207 830.415 741.337 837.935C734.767 828.126 725.417 814.854 719.657 804.719C718.107 801.875 717.907 801.719 717.807 798.577C721.157 793.055 736.496 789.132 743.427 786.704C748.552 784.601 785.524 771.286 785.927 770.816C791.617 763.509 788.797 694.375 789.387 683.897ZM113.396 707.445C101.287 711.059 77.8311 707.975 80.7275 691.101C89.3366 693.526 111.116 696.345 115.017 700.976C115.376 704.254 115.106 704.43 113.396 707.445ZM121.387 679.503C108.316 685.966 64.13 674.32 73.4756 654.481C80.7295 656.654 88.9569 660.9 96.4668 662.87C104.327 664.929 116.307 663.871 123.537 667.089C127.864 672.261 125.614 674.777 121.616 679.247L121.387 679.503ZM129.967 648.235C122.167 651.994 110.657 650.804 102.667 648.114L101.883 647.851C83.6933 641.735 64.6085 635.319 71.0547 612.486C81.6243 617.144 89.3469 623.335 101.937 626.764C109.767 628.896 127.047 627.701 131.777 631.414C133.697 632.907 134.867 635.162 134.987 637.59C135.175 642.171 132.796 644.941 130.036 648.155L129.967 648.235ZM813.707 490.145C822.877 489.286 834.237 502.564 837.977 510.049C857.066 548.271 835.137 611.462 823.417 650.582C819.767 638.572 815.156 625.33 809.217 614.286C798.037 618.541 786.497 623.357 775.357 627.794L773.817 627.737C771.868 625.026 766.697 596.775 763.777 588.621C751.927 589.228 733.977 594.227 722.027 597.332C733.637 577.183 744.537 556.705 756.977 537.009L757.18 536.686L757.182 536.683C760.992 530.637 765.048 524.2 768.447 517.955C768.137 513.781 767.216 513.746 764.537 510.001C763.877 504.208 770.157 502.58 775.077 501.099C787.847 497.261 800.877 493.722 813.707 490.145ZM117.026 612.813C90.0565 609.387 50.0879 586.166 89.9365 563.616L92.9971 564.133C95.0754 568.168 90.8575 576.739 95.5967 579.603C103.678 584.491 138.726 591.946 128.707 606.738C125.617 611.289 122.226 612.14 117.026 612.813ZM739.527 455.866C788.757 447.049 801.568 447.734 823.567 400.351C835.977 407.506 839.057 409.16 853.247 410.077C858.618 415.014 876.837 438.482 882.927 445.796C838.717 457.834 786.476 476.103 741.896 489.901C708.687 499.958 675.556 510.281 642.517 520.87C627.077 525.688 609.467 530.478 594.447 535.974C585.437 525.133 574.896 509.297 566.017 497.448C550.887 476.085 535.527 454.885 519.947 433.854C540.767 430.402 572.667 418.054 595.146 412.582C595.756 414.909 596.457 417.214 597.237 419.493C602.327 434.15 611.667 441.943 625.847 448.251C648.686 458.412 681.547 472.746 706.646 466.547C716.876 464.309 729.557 457.652 739.527 455.866ZM28.4053 442.506C54.201 411.214 80.1709 380.064 106.307 349.059C132.157 353.72 160.807 361.494 186.957 367.05C211.187 372.201 235.387 377.528 259.537 383.033C274.977 386.49 291.917 389.8 306.937 394.417C306.816 402.751 305.257 413.218 310.187 419.83C316.966 423.105 320.747 417.186 324.767 412.427C326.706 411.881 328.657 411.362 330.606 410.871C348.136 418.961 322.597 459.634 332.707 473.023C333.858 474.864 336.977 477.318 339.387 477.252C362.336 476.623 349.688 444.029 352.316 430.988C354.966 417.83 356.437 415.366 365.856 407.932C375.086 408.367 399.967 414.731 410.247 417.109L487.347 434.742C470.757 454.651 447.357 489.072 431.507 510.996C427.477 516.618 423.116 523.059 418.486 528.114C417.964 529.34 414.377 533.98 413.367 535.344C396.137 530.344 374.487 525.773 356.717 521.459C320.837 512.612 284.907 503.952 248.927 495.48L28.4053 442.506ZM649.817 147.121C664.247 132.92 674.627 112.52 698.396 119.896C702.826 121.791 704.017 121.414 706.387 124.888C704.836 131.504 696.627 133.505 690.657 134.467C686.697 136.196 683.437 137.072 681.357 140.874C679.948 149.861 691.947 144.401 694.837 154.918C693.236 164.164 684.747 166.477 687.697 172.541C694.657 174.077 702.327 166.769 703.957 160.164C705.397 154.289 700.738 146.705 706.396 142.538C716.596 136.012 728.857 135.655 739.967 137.238C740.587 137.328 741.207 137.425 741.817 137.531C736.127 143.437 727.657 153.687 726.767 162.11C733.579 176.75 797.556 161.05 811.257 157.032C809.176 163.285 802.767 178.757 802.057 183.831C807.808 194.87 839.066 178.249 846.297 173.267C848.407 190.098 849.457 195.658 847.807 212.388C827.547 239.457 835.297 239.468 846.407 265.871C847.976 269.596 844.667 281.755 847.137 287.991L848.787 288.397C853.637 284.492 855.097 276.641 855.967 270.661C857.417 260.754 851.467 248.418 847.577 239.257C849.387 232.683 851.867 225.293 856.437 220.052L858.777 220.326C861.117 225.223 860.277 231.981 860.137 237.629C869.626 246.741 875.867 251.66 885.677 260.092C881.167 280.745 875.496 291.721 865.727 310.236C855.336 312.256 833.327 318.856 839.667 333.544L841.547 334.399L842.031 334.217C858.065 328.179 880.623 319.684 888.177 343.168C891.366 353.156 890.427 364.008 885.547 373.291C881.267 381.516 873.816 387.643 864.927 390.253C835.557 398.955 827.586 372.011 820.396 371.257C809.117 376.943 800.137 420.458 778.997 427.904C754.397 436.569 733.707 432.749 710.537 445.899C698.287 452.853 675.797 447.24 663.557 443.265C649.897 438.155 622.428 430.228 616.167 416.298C612.937 409.135 612.557 403.117 611.677 395.391C603.097 389.08 596.087 383.151 594.837 371.755C593.057 355.606 600.547 334.238 602.987 318.088L611.177 325.541C608.387 346.128 602.248 369.39 616.697 386.186C648.567 423.222 717.037 439.175 749.867 394.436C754.067 388.723 762.047 372.064 767.487 369.904C771.756 372.329 770.097 376.519 769.487 380.956C768.257 386.099 765.197 394.711 767.977 399.208C771.606 398.892 774.507 392.378 775.447 389.125C779.567 381.667 781.597 376.948 784.807 369.167C795.566 364.937 807.927 357.75 812.447 345.505C812.967 344.102 811.737 343.033 810.917 342.029C810.187 341.755 807.107 340.409 806.637 340.742C774.807 363.373 764.576 357.387 730.957 336.464C734.257 343.787 735.457 345.824 740.137 352.423C706.567 350.215 657.317 331.72 627.137 317.319C616.577 311.159 597.078 303.387 592.837 291.48C590.997 286.299 588.627 273.163 594.637 271.293C599.917 273.242 602.937 277.25 607.427 280.24C629.336 294.819 658.547 285.598 673.097 265.914C681.896 254.029 685.497 239.085 683.077 224.497C680.857 210.468 673.007 197.95 661.357 189.833C647.278 179.841 632.907 180.497 616.737 183.191C631.897 159.279 637.697 161.125 664.227 161.588C666.716 160.271 665.787 161.232 666.896 158.42C665.146 153.493 655.188 150.084 649.817 147.121ZM419.087 398.388C441.167 342.129 485.387 309.936 546.037 306.221L538.877 342.712C547.027 338.177 554.597 333.95 562.517 328.992C560.516 353.881 547.296 388.048 529.977 406.72C519.697 417.808 501.836 416.141 488.767 413.681C490.607 408.021 494.066 400.872 491.217 395.409C484.837 393.774 479.977 404.175 477.087 408.887C469.407 407.546 463.917 406.426 456.317 404.462L462.197 397.739C467.197 394.02 477.927 387.524 477.587 380.69L475.787 379.344C467.927 379.091 460.537 384.48 454.977 389.657C450.827 392.634 445.647 399.112 442.217 403.229L419.087 398.388ZM661.896 383.117C666.296 382.918 676.837 382.619 680.027 385.623C677.477 389.501 673.927 391.622 673.337 395.022C682.137 398.571 700.367 381.591 712.127 391.67C715.167 394.284 721.427 397.121 722.487 401.484L719.646 403.14C715.447 404.738 711.097 405.919 706.667 406.663C694.627 408.753 649.019 404.925 647.827 391.554C650.887 386.433 656.207 385.272 661.896 383.117ZM317.027 373.919C321.347 370.945 325.687 367.996 330.047 365.074C334.567 367.653 339.707 376.107 342.807 380.703L333.807 378.588L317.027 373.919ZM719.977 374.37C705.787 380.155 697.838 372.05 700.607 357.438C708.057 360.359 720.407 358.643 723.177 366.274C722.367 370.343 722.166 370.847 719.977 374.37ZM399.837 356.546C409.007 347.376 424.707 342.724 437.037 340.323L438.067 341.16C436.207 344.152 432.287 348.369 429.927 351.477C424.907 358.114 421.127 364.147 417.057 371.409L409.597 364.502L399.837 356.546ZM303.507 227.12C322.397 226.369 329.527 232.92 342.627 245.11C370.797 245.212 378.297 256.345 388.337 279.771C380.077 279.199 372.996 278.99 364.736 278.885C360.376 271.515 346.716 251.638 337.526 261.903C336.497 271.402 350.447 275.106 353.267 284.079C354.836 287.004 352.127 305.239 354.087 306.956C365.371 316.846 366.063 294.464 366.173 290.884L366.177 290.772C395.507 294.401 407.627 301.891 404.927 333.898C400.897 338.199 392.826 344.554 388.066 348.497L386.927 348.249C388.457 339.251 389.207 325.106 380.137 319.715C376.637 319.527 378.297 319.206 375.047 320.95C369.157 332.847 385.606 366.914 344.776 354.141C312.287 344.341 315.247 358.978 290.307 369.549C268.407 365.866 231.177 356.253 208.417 351.025C208.218 350.804 208.021 350.582 207.824 350.361L207.665 350.182L207.413 349.9L207.282 349.752C207.134 349.587 206.986 349.421 206.837 349.255C203.837 338.048 210.417 323.743 219.077 316.543C229.517 307.876 239.127 311.757 251.106 312.923C253.556 313.162 254.917 311.121 256.477 309.584C258.707 299.535 237.167 297.734 230.307 297.541L229.287 297.519C224.047 289.928 230.337 279.378 235.167 273.084C245.727 259.303 263.727 247.866 281.537 253.782C288.947 256.241 295.067 266.384 303.947 265.105C307.527 260.854 306.837 257.966 303.467 253.716C296.197 244.536 284.666 241.819 273.606 240.405C282.376 233.306 290.077 229.958 300.856 227.259C301.736 227.202 302.617 227.156 303.507 227.12ZM642.667 356.473C623.867 352.147 624.527 347.703 628.816 331.405C637.616 335.714 642.797 338.123 652.057 341.38C649.837 346.943 648.336 350.155 645.526 355.444C644.746 355.901 643.587 356.182 642.667 356.473ZM128.637 236.075C135.227 234.566 140.827 233.344 147.507 232.269C149.337 238.386 155.327 243.67 153.447 248.558L150.857 250.681C139.808 261.325 133.687 273.738 133.347 289.112C114.977 309.026 122.417 304.784 114.697 324.293L114.513 324.354C109.926 325.863 107.239 326.747 103.657 323.068C93.8274 312.948 84.437 302.42 74.9922 291.937C62.8452 278.646 50.5894 265.452 38.2295 252.357C66.1564 248.585 101.927 238.777 128.637 236.075ZM407.146 285.886C409.396 264.046 412.367 242.301 414.377 220.412C436.317 227.018 460.007 233.122 482.197 239.247C479.677 250.45 478.617 281.581 468.067 287.059C449.668 284.76 431.697 286.356 415.237 295.457C412.367 292.241 409.866 289.221 407.146 285.886ZM626.437 196.343C647.016 193.045 666.366 207.036 669.687 227.604C673.006 248.173 659.046 267.546 638.477 270.892C617.877 274.245 598.467 260.249 595.137 239.645C591.807 219.041 605.827 199.646 626.437 196.343ZM405.377 201.092C406.597 193.982 407.727 186.856 408.767 179.716C419.327 181.658 448.287 190.807 460.097 194.287C490.397 203.364 520.827 211.987 551.387 220.156C548.757 225.79 547.037 230.996 545.027 236.841C544.538 238.49 544.857 237.707 543.067 239.055C538.538 238.883 532.697 236.488 528.247 235.168C487.527 223.104 446.007 213.398 405.377 201.092ZM126.507 104.555C132.487 85.0018 156.587 82.6478 166.677 98.5136C172.287 112.19 163.076 125.723 158.066 136.471C153.687 145.857 168.057 164.87 171.667 173.939C176.737 181.409 181.887 192.428 186.057 200.753C189.737 207.122 192.887 213.878 196.106 220.501C190.837 224.988 187.777 229.485 183.667 234.952C179.157 236.233 175.047 236.9 170.447 237.717C155.887 214.892 145.456 188.359 130.977 165.22C118.767 145.707 96.6771 163.761 85.0771 145.974C78.8412 136.408 82.0371 118.87 93.417 113.667C104.467 108.615 112.457 112.637 123.236 116.105C124.276 112.24 125.367 108.388 126.507 104.555ZM314.267 104.787C338.336 85.3382 327.887 72.3855 319.827 47.368C355.247 57.3202 363.246 95.5668 344.646 124.34C343.056 126.79 338.388 137.773 339.067 140.525C346.667 171.306 358.397 201.298 368.367 231.432C363.897 229.612 359.187 228.707 354.467 227.624C348.177 210.501 342.647 193.8 337.087 176.441L336.965 176.059C335.105 170.248 333.199 164.29 327.817 161.607C323.687 161.382 325.197 160.916 321.847 162.97C317.547 171.157 327.607 194.911 330.777 205.312L334.427 214.396L319.667 209.134C313.507 193.482 306.287 161.372 297.707 149.371C292.377 146.762 286.137 144.9 280.737 142.406C262.987 134.217 250.337 118.703 250.167 98.5741C250.057 86.3146 253.297 78.5754 258.717 67.6669C262.327 76.939 268.437 96.9832 273.267 104.774C283.757 108.132 295.277 109.986 306.137 111.696C309.946 109.413 311.307 107.181 314.267 104.787ZM514.077 146.894C533.547 113.773 555.347 108.819 591.677 118.397C575.797 143.65 565.087 158.371 532.867 159.15C529.297 159.107 525.297 159.476 522.257 157.949C523.257 155.365 524.477 155.361 527.427 153.466C533.747 148.856 545.357 143.016 552.667 139.103C558.087 136.078 558.167 135.928 559.317 130.095C548.128 126.834 524.397 141.253 514.077 146.894ZM455.638 134.08C431.498 115.476 426.897 91.3797 430.167 62.2147C432.167 63.1077 434.158 64.0145 436.147 64.9354C459.157 75.6293 470.097 84.3448 478.747 107.893C479.857 117.419 480.357 124.835 479.728 134.555L470.277 115.877C466.817 110.177 458.147 94.6043 451.287 93.5468C447.287 99.4129 458.617 116.378 460.647 122.838C464.047 129.573 466.157 135.267 468.827 142.274C464.677 139.912 459.218 137.033 455.638 134.08ZM520.977 67.9794C526.947 29.9834 545.787 19.3955 582.327 14.5165C583.977 14.4255 583.127 14.2905 584.767 15.5682C584.537 24.6701 580.947 38.1203 576.577 46.2333C565.317 67.1388 550.449 71.6334 529.646 77.9221L529.537 77.955C539.067 63.287 549.487 54.7284 558.447 41.8134C557.987 40.0064 557.927 40.3235 556.837 38.6776L554.157 38.3456C544.107 41.7546 528.447 59.9124 520.977 67.9794Z" fill="#020303"/>
<path d="M889.387 941.235C886.066 979.636 845.857 1081.71 815.377 1107.25C783.007 1134.06 740.826 1128.69 701.896 1129.15C697.986 1129.2 682.247 1128.26 681.857 1129.25C674.319 1148.39 695.897 1144.63 701.067 1144.56C745.437 1144.73 793.057 1150.65 827.127 1116.84C854.096 1090.06 861.637 1056.85 873.137 1021.91C876.176 1012.75 878.376 1013.41 887.297 1016.1L887.927 1016.29C896.366 1006.69 903.506 964.647 902.937 950.346C897.857 945.356 896.126 944.225 889.387 941.235Z" fill="white"/>
</svg>
