<svg width="985" height="1167" viewBox="0 0 985 1167" fill="none" xmlns="http://www.w3.org/2000/svg">
<path fill-rule="evenodd" clip-rule="evenodd" d="M757.047 215.397C789.857 210.767 820.147 233.77 824.507 266.618C828.857 299.466 805.597 329.565 772.717 333.644C740.227 337.674 710.557 314.754 706.247 282.293C701.947 249.833 724.617 219.972 757.047 215.397ZM780.946 232.405C759.736 224.418 735.907 233.598 725.537 253.75C715.177 273.901 721.557 298.624 740.377 311.238C759.207 323.853 784.506 320.352 799.196 303.098C803.656 297.861 806.847 291.665 808.517 284.992C814.006 263.007 802.156 240.391 780.946 232.405Z" fill="#020303"/>
<path d="M774.827 269.744C778.567 268.297 782.807 269.038 785.827 271.669C788.857 274.3 790.187 278.389 789.277 282.296C788.367 286.202 785.367 289.284 781.487 290.305C775.937 291.767 770.207 288.636 768.437 283.173C766.667 277.71 769.477 271.816 774.827 269.744Z" fill="#020303"/>
<path d="M680.337 275.93C693.867 275.363 695.407 285.966 696.827 297.332C697.777 305.026 697.507 314.426 690.417 319.203C682.587 319.841 680.967 314.672 678.477 308.348C675.587 300.028 665.587 316.818 657.637 308.633C655.317 297.067 671.657 281.954 680.337 275.93Z" fill="#020303"/>
<path d="M858.277 341.168C867.167 340.557 880.997 343.688 881.967 354.296C880.657 357.131 881.157 357.208 878.977 358.7C874.227 356.218 866.807 350.708 862.057 353.319C862.787 361.237 864.397 363.225 862.677 370.837C859.577 374.358 851.847 380.051 847.267 376.547C846.927 372.984 852.577 368.236 852.407 365.335C852.037 358.707 841.577 358.26 842.127 350.931C845.463 346.707 852.679 343.588 857.763 341.39C857.937 341.315 858.108 341.241 858.277 341.168Z" fill="#020303"/>
<path d="M408.267 421.064C413.007 420.764 420.077 422.083 424.967 422.811C419.287 429.344 413.457 435.744 407.477 442.006C402.937 445.43 399.297 447.118 395.157 442.436C391.987 432.114 400.977 425.866 408.267 421.064Z" fill="#020303"/>
<path d="M728.657 658.787C730.767 660.12 730.617 660.085 732.037 662.172C731.457 666.833 723.067 674.974 721.897 680.473C719.587 691.35 729.427 697.346 734.167 705.155C733.687 705.364 728.797 707.669 728.717 707.829C722.717 720.895 712.397 730.672 704.777 742.493L704.137 743.501C702.012 746.685 701.977 746.696 698.957 747.651C698.879 747.675 698.799 747.701 698.717 747.727L697.857 746.022C698.057 734.454 710.787 715.027 717.137 704.748C708.927 685.343 707.877 671.074 728.657 658.787Z" fill="#020303"/>
<path d="M320.367 275.598C320.4 275.613 320.433 275.629 320.465 275.644C323.746 277.18 324.237 277.41 326.287 280.44C327.977 292.143 311.147 299.141 301.997 301.734C303.007 306.232 303.347 310.666 303.837 315.25C318.277 312.112 339.557 310.04 348.347 327.951C349.247 329.798 348.877 330.497 347.987 332.1C340.277 335.261 322.347 323.308 315.317 325.041C289.857 331.316 295.617 352.479 263.477 351.592C255.977 350.889 238.897 346.081 240.337 336.54C247.407 331.782 263.637 340.305 270.977 339.29C285.187 335.763 291.287 323.407 291.337 310.156C291.397 295.133 267.557 290.53 267.027 281.1C278.687 268.811 289.777 291.763 302.237 289.95C310.297 288.777 315.317 281.463 320.367 275.598Z" fill="#020303"/>
<path d="M479.487 339.487C483.857 341.486 493.087 369.137 502.747 375.332C508.627 379.108 528.757 387.771 530.387 390.712L528.627 393.505C503.357 401.444 467.067 366.238 479.487 339.487Z" fill="#020303"/>
<path d="M510.717 325.785C516.107 323.811 522.097 326.496 524.217 331.841C526.337 337.186 523.807 343.244 518.527 345.503C514.977 347.019 510.887 346.49 507.847 344.122C504.797 341.754 503.277 337.919 503.877 334.108C504.467 330.297 507.087 327.11 510.717 325.785Z" fill="#020303"/>
<path d="M190.127 339.237C191.577 329.834 192.367 325.988 197.267 317.903C197.313 318.376 197.38 318.842 197.446 319.296C197.649 320.708 197.836 322.011 197.337 323.095C196.404 325.125 197.076 328.561 197.774 332.128C198.743 337.087 199.763 342.298 196.587 344.333C194.949 342.288 195.062 340.278 195.157 338.586C195.241 337.086 195.311 335.836 194.137 335.033L190.127 339.237Z" fill="#080B12"/>
<path d="M612.267 222.58C615.657 221.204 619.527 221.765 622.387 224.046C625.247 226.327 626.657 229.974 626.077 233.587C625.487 237.199 622.997 240.216 619.567 241.477C614.377 243.384 608.617 240.776 606.627 235.619C604.627 230.461 607.137 224.658 612.267 222.58Z" fill="#020303"/>
<path d="M597.087 179.557C597.036 179.483 596.985 179.409 596.937 179.336L596.736 179.028C596.847 179.204 596.965 179.381 597.087 179.557Z" fill="#020303"/>
<path fill-rule="evenodd" clip-rule="evenodd" d="M780.946 232.405C759.736 224.418 735.907 233.598 725.537 253.75C715.177 273.901 721.557 298.624 740.377 311.238C759.207 323.853 784.506 320.352 799.196 303.098C803.656 297.861 806.847 291.665 808.517 284.992C814.006 263.007 802.156 240.391 780.946 232.405ZM785.827 271.669C782.807 269.038 778.567 268.297 774.827 269.744C769.477 271.816 766.667 277.71 768.437 283.173C770.207 288.636 775.937 291.767 781.487 290.305C785.367 289.284 788.367 286.202 789.277 282.296C790.187 278.389 788.857 274.3 785.827 271.669Z" fill="white"/>
<path fill-rule="evenodd" clip-rule="evenodd" d="M669.687 227.604C666.366 207.036 647.016 193.045 626.437 196.343C605.827 199.646 591.807 219.041 595.137 239.645C598.467 260.249 617.877 274.245 638.477 270.892C659.046 267.546 673.006 248.173 669.687 227.604ZM622.387 224.046C619.527 221.765 615.657 221.204 612.267 222.58C607.137 224.658 604.627 230.461 606.627 235.619C608.617 240.776 614.377 243.384 619.567 241.477C622.997 240.216 625.487 237.199 626.077 233.587C626.657 229.974 625.247 226.327 622.387 224.046Z" fill="white"/>
<path d="M89.9365 563.616C50.0879 586.166 90.0565 609.387 117.026 612.813C122.226 612.14 125.617 611.289 128.707 606.738C136.335 595.476 117.838 588.467 105.01 583.606C100.989 582.082 97.525 580.77 95.5967 579.603C92.8049 577.916 93.1214 574.248 93.428 570.694C93.6419 568.215 93.8511 565.791 92.9971 564.133L89.9365 563.616Z" fill="#6A994E"/>
<path d="M336.437 912.006C331.633 917.512 327.121 923.117 322.608 928.723C319.229 932.921 315.849 937.119 312.347 941.276C322.645 953.912 324.066 962.232 325.659 971.555C326.779 978.109 327.984 985.16 332.417 994.556C334.831 999.678 342.343 1007.53 349.225 1014.71L349.227 1014.72C353.295 1018.97 357.143 1022.99 359.587 1026.08C364.937 1020.62 368.058 1016.95 372.787 1010.94C374.25 1009.21 375.745 1007.45 377.256 1005.67C384.073 997.638 391.244 989.192 397.497 981.196L397.503 980.808C397.591 974.757 397.669 969.375 397.307 963.306C396.172 963.521 394.281 963.983 391.89 964.568L391.885 964.569C378.402 967.867 349.017 975.053 349.507 963.846C349.958 953.543 350.861 942.337 351.75 931.298C352.28 924.722 352.805 918.206 353.227 911.975L336.437 912.006Z" fill="#6A994E"/>
<path d="M71.0547 612.486C64.6085 635.319 83.6933 641.735 101.883 647.851L102.667 648.114C110.657 650.804 122.167 651.994 129.967 648.235L130.036 648.155C132.796 644.941 135.175 642.171 134.987 637.59C134.867 635.162 133.697 632.907 131.777 631.414C128.977 629.216 121.776 628.738 114.743 628.271C109.897 627.95 105.131 627.634 101.937 626.764C93.9161 624.579 87.871 621.274 81.8067 617.958C78.3518 616.069 74.8908 614.177 71.0547 612.486Z" fill="#6A994E"/>
<path d="M73.4756 654.481C64.13 674.32 108.316 685.966 121.387 679.503L121.616 679.247C125.614 674.777 127.864 672.261 123.537 667.089C119.381 665.239 113.656 664.802 108.046 664.374C103.896 664.057 99.8089 663.745 96.4668 662.87C92.3973 661.802 88.117 660.067 83.8951 658.355C80.326 656.907 76.7987 655.477 73.4756 654.481Z" fill="#6A994E"/>
<path d="M80.7275 691.101C77.8311 707.975 101.287 711.059 113.396 707.445C113.516 707.234 113.629 707.037 113.735 706.851C113.736 706.85 113.737 706.848 113.738 706.846C115.141 704.389 115.351 704.022 115.017 700.976C112.268 697.713 100.644 695.35 91.0043 693.39C86.963 692.568 83.2707 691.818 80.7275 691.101Z" fill="#6A994E"/>
<path fill-rule="evenodd" clip-rule="evenodd" d="M749.597 611.007C743.862 612.11 737.301 613.995 731.236 615.737C729.633 616.197 728.065 616.648 726.557 617.071C720.13 625.384 710.176 642.604 703.001 655.015L703 655.016C701.333 657.901 699.815 660.526 698.527 662.719L655.167 735.89C654.576 736.87 653.967 737.897 653.343 738.951C650.263 744.151 646.799 749.998 643.107 754.117C642.445 754.149 641.598 754.183 640.647 754.221C636.934 754.371 631.622 754.584 629.377 754.994L628.646 755.036C618.437 755.181 611.217 757.105 602.957 763.36C602.569 763.641 602.182 763.922 601.797 764.203C601.179 764.652 600.564 765.101 599.952 765.548C593.309 770.401 586.904 775.08 579.607 778.3C577.232 779.347 573.855 779.921 570.336 780.519C562.537 781.844 554.036 783.289 554.167 790.276C554.516 809.616 572.568 804.692 589.044 800.197C599.077 797.46 608.526 794.882 613.037 798.04C614.416 801.321 614.446 803.418 612.687 806.902C607.456 817.266 592.136 847.306 581.146 850.596C570.447 853.795 561.816 856.416 550.887 860.935C572.046 888.164 594.927 874.595 613.537 853.456C613.938 853.001 614.381 852.48 614.858 851.918C619.246 846.751 626.597 838.095 632.297 844.796C633.675 854.946 616.217 871.966 609.337 878.355C612.828 883.594 626.437 878.545 630.697 876.355C634.726 874.284 638.699 869.16 642.642 864.075C647.341 858.015 651.998 852.009 656.657 851.286C660.996 853.476 661.097 855.456 661.277 860.225C658.952 862.551 656.171 866.885 653.966 870.32C653.516 871.021 653.09 871.685 652.697 872.286L652.747 873.916C658.677 873.506 669.356 866.106 673.127 861.706C676.947 857.106 678.648 854.375 681.787 849.225C688.287 844.365 695.066 818.127 696.337 809.342C696.99 807.645 697.42 804.504 697.876 801.172C698.462 796.897 699.09 792.307 700.287 790.048C706.573 778.197 714.335 765.937 721.736 754.247C723.554 751.376 725.35 748.539 727.097 745.751C748.836 711.704 770.357 677.511 791.646 643.178C790.388 643.708 788.934 644.366 787.347 645.084C778.862 648.926 766.562 654.495 759.797 651.506C756.249 648.184 753.283 631.383 751.232 619.767C750.595 616.161 750.047 613.055 749.597 611.007ZM732.037 662.172C730.617 660.085 730.767 660.12 728.657 658.787C707.877 671.074 708.927 685.343 717.137 704.748C710.787 715.027 698.057 734.454 697.857 746.022L698.717 747.727L698.957 747.651C701.977 746.696 702.012 746.685 704.137 743.501L704.777 742.493C712.397 730.672 722.717 720.895 728.717 707.829C728.797 707.669 733.687 705.364 734.167 705.155C729.427 697.346 719.587 691.35 721.897 680.473C723.067 674.974 731.457 666.833 732.037 662.172Z" fill="#6A994E"/>
<path fill-rule="evenodd" clip-rule="evenodd" d="M698.396 119.896C679.399 114.001 668.955 125.848 658.16 138.093C655.448 141.169 652.715 144.27 649.817 147.121C651.118 147.838 652.687 148.582 654.344 149.367C659.53 151.824 665.57 154.686 666.896 158.42C666.642 159.065 666.495 159.512 666.389 159.833C666.257 160.231 666.19 160.436 666.06 160.588C665.922 160.748 665.714 160.849 665.286 161.055C665.026 161.181 664.684 161.346 664.227 161.588C662.471 161.557 660.807 161.52 659.224 161.486C636.889 160.993 630.894 160.861 616.737 183.191C632.907 180.497 647.278 179.841 661.357 189.833C673.007 197.95 680.857 210.468 683.077 224.497C685.497 239.085 681.896 254.029 673.097 265.914C658.547 285.598 629.336 294.819 607.427 280.24C605.797 279.155 604.361 277.936 602.94 276.729C600.447 274.612 598 272.534 594.637 271.293C588.627 273.163 590.997 286.299 592.837 291.48C596.22 300.98 609.316 307.847 619.835 313.364C622.501 314.762 625.002 316.074 627.137 317.319C657.317 331.72 706.567 350.215 740.137 352.423C735.457 345.824 734.257 343.787 730.957 336.464C764.576 357.387 774.807 363.373 806.637 340.742C807.029 340.464 809.24 341.356 810.385 341.818C810.611 341.909 810.796 341.984 810.917 342.029C810.97 342.094 811.025 342.159 811.08 342.225C811.152 342.309 811.226 342.393 811.3 342.479C812.062 343.356 812.89 344.309 812.447 345.505C807.927 357.75 795.566 364.937 784.807 369.167C781.597 376.948 779.567 381.667 775.447 389.125C774.507 392.378 771.606 398.892 767.977 399.208C765.642 395.431 767.427 388.75 768.788 383.66C769.047 382.691 769.29 381.779 769.487 380.956C769.587 380.233 769.714 379.517 769.839 378.814C770.48 375.201 771.061 371.934 767.487 369.904C763.724 371.398 758.745 379.831 754.643 386.779C752.815 389.874 751.162 392.675 749.867 394.436C717.037 439.175 648.567 423.222 616.697 386.186C604.131 371.579 607.136 352.082 609.968 333.708C610.392 330.954 610.813 328.224 611.177 325.541L602.987 318.088C602.199 323.307 600.882 329.072 599.522 335.03L599.522 335.032C596.673 347.507 593.632 360.826 594.837 371.755C596.087 383.151 603.097 389.08 611.677 395.391C611.767 396.186 611.852 396.962 611.936 397.723C612.665 404.367 613.269 409.871 616.167 416.298C621.596 428.377 642.969 435.941 657.46 441.07C659.682 441.856 661.741 442.585 663.557 443.265C675.797 447.24 698.287 452.853 710.537 445.899C724.033 438.239 736.688 436.337 749.764 434.372C759.137 432.963 768.726 431.522 778.997 427.904C791.453 423.517 799.688 406.606 806.659 392.29C811.518 382.311 815.763 373.592 820.396 371.257C822.524 371.48 824.721 373.997 827.52 377.206C834.179 384.838 844.249 396.38 864.927 390.253C873.816 387.643 881.267 381.516 885.547 373.291C890.427 364.008 891.366 353.156 888.177 343.168C880.623 319.684 858.065 328.179 842.031 334.217L841.547 334.399L839.667 333.544C833.327 318.856 855.336 312.256 865.727 310.236C875.496 291.721 881.167 280.745 885.677 260.092C883.186 257.951 880.926 256.037 878.784 254.223L878.783 254.222C872.488 248.892 867.217 244.428 860.137 237.629C860.161 236.649 860.206 235.635 860.253 234.603C860.472 229.691 860.711 224.373 858.777 220.326L856.437 220.052C851.867 225.293 849.387 232.683 847.577 239.257C847.957 240.152 848.357 241.078 848.768 242.028C852.559 250.806 857.275 261.722 855.967 270.661C855.097 276.641 853.637 284.492 848.787 288.397L847.137 287.991C845.759 284.513 846.179 279.193 846.548 274.521C846.841 270.816 847.101 267.519 846.407 265.871C844.32 260.912 842.352 256.883 840.666 253.432C833.374 238.509 831.353 234.372 847.807 212.388C849.319 197.048 848.563 191.099 846.8 177.243C846.64 175.987 846.472 174.666 846.297 173.267C839.066 178.249 807.808 194.87 802.057 183.831C802.536 180.402 805.619 172.224 808.21 165.352C809.453 162.056 810.582 159.059 811.257 157.032C797.556 161.05 733.579 176.75 726.767 162.11C727.657 153.687 736.127 143.437 741.817 137.531C741.207 137.425 740.587 137.328 739.967 137.238C728.857 135.655 716.596 136.012 706.396 142.538C702.849 145.15 703.357 149.106 703.874 153.141C704.182 155.542 704.494 157.972 703.957 160.164C702.327 166.769 694.657 174.077 687.697 172.541C686.11 169.279 687.834 167.103 690.014 164.348C691.887 161.983 694.097 159.19 694.837 154.918C693.389 149.648 689.654 148.39 686.465 147.315C683.289 146.245 680.654 145.358 681.357 140.874C683.144 137.608 685.802 136.501 689.026 135.158C689.555 134.937 690.099 134.71 690.657 134.467C696.627 133.505 704.836 131.504 706.387 124.888C704.584 122.245 703.464 121.831 701.081 120.95C700.332 120.673 699.457 120.35 698.396 119.896ZM824.507 266.618C820.147 233.77 789.857 210.767 757.047 215.397C724.617 219.972 701.947 249.833 706.247 282.293C710.557 314.754 740.227 337.674 772.717 333.644C805.597 329.565 828.857 299.466 824.507 266.618ZM696.827 297.332C695.407 285.966 693.867 275.363 680.337 275.93C671.657 281.954 655.317 297.067 657.637 308.633C665.587 316.818 675.587 300.028 678.477 308.348C680.967 314.672 682.587 319.841 690.417 319.203C697.507 314.426 697.777 305.026 696.827 297.332ZM881.967 354.296C880.997 343.688 867.167 340.557 858.277 341.168L857.763 341.39C852.679 343.588 845.463 346.707 842.127 350.931C841.577 358.26 852.037 358.707 852.407 365.335C852.577 368.236 846.927 372.984 847.267 376.547C851.847 380.051 859.577 374.358 862.677 370.837C864.397 363.225 862.787 361.237 862.057 353.319C866.807 350.708 874.227 356.218 878.977 358.7C881.157 357.208 880.657 357.131 881.967 354.296Z" fill="#6A994E"/>
<path d="M700.607 357.438C697.838 372.05 705.787 380.155 719.977 374.37C722.166 370.847 722.367 370.343 723.177 366.274C721.328 361.18 715.21 360.251 709.131 359.328C706.103 358.868 703.084 358.409 700.607 357.438Z" fill="#FFE6A7"/>
<path d="M628.816 331.405C624.527 347.703 623.867 352.147 642.667 356.473C642.869 356.409 643.082 356.345 643.301 356.28L643.302 356.28C644.079 356.05 644.918 355.8 645.526 355.444C648.336 350.155 649.837 346.943 652.057 341.38C642.797 338.123 637.616 335.714 628.816 331.405Z" fill="#FFE6A7"/>
<path d="M495.127 468.348C493.097 473.008 487.745 488.221 481.403 506.247L481.403 506.249C469.311 540.621 453.623 585.216 450.507 586.37C447.845 587.356 442.129 586.109 438.708 585.362C438.298 585.273 437.922 585.19 437.587 585.12C416.662 580.726 395.842 575.496 375.042 570.272L375.04 570.272C363.734 567.432 352.434 564.594 341.127 561.892L114.417 507.925C114.547 527.986 114.547 548.049 114.407 568.11C138.587 577.321 157.557 587.674 145.997 617.724C157.066 634.037 157.046 645.987 144.437 661.478C146.076 676.735 145.267 682.635 133.987 693.803C136.267 712.609 130.896 718.152 115.037 726.532C115.008 729.313 114.967 732.12 114.926 734.936C114.838 740.897 114.75 746.896 114.777 752.767C136.762 757.137 162.534 764.432 187.236 771.425C200.21 775.097 212.888 778.686 224.567 781.724C307.227 803.183 389.777 825.066 472.207 847.376C479.937 849.206 487.657 851.095 495.367 853.035C496.264 812.941 495.955 772.631 495.646 732.333C495.408 701.185 495.169 670.045 495.487 639.018C495.536 634.204 495.604 629.281 495.673 624.291C495.971 602.781 496.285 580.037 495.157 559.438C496.189 539.798 495.796 514.898 495.437 492.135C495.305 483.798 495.178 475.748 495.127 468.348Z" fill="#D4A373"/>
<path fill-rule="evenodd" clip-rule="evenodd" d="M106.307 349.059C80.1709 380.064 54.201 411.214 28.4053 442.506L248.927 495.48C284.907 503.952 320.837 512.612 356.717 521.459C362.16 522.78 367.967 524.126 373.9 525.5C373.903 525.501 373.906 525.502 373.909 525.502C387.342 528.615 401.418 531.876 413.367 535.344C413.547 535.101 413.809 534.754 414.12 534.341C415.557 532.436 418.057 529.122 418.486 528.114C422.345 523.902 426.016 518.726 429.465 513.864C430.155 512.892 430.835 511.933 431.507 510.996C435.81 505.044 440.669 498.171 445.797 490.918C459.56 471.453 475.261 449.246 487.347 434.742L410.247 417.109C408.376 416.676 406.02 416.111 403.364 415.474C391.427 412.611 373.406 408.287 365.856 407.932C356.437 415.366 354.966 417.83 352.316 430.988C351.55 434.791 352.082 440.257 352.652 446.108C354.037 460.32 355.644 476.806 339.387 477.252C336.977 477.318 333.858 474.864 332.707 473.023C328.135 466.968 330.854 455.333 333.583 443.654C336.888 429.51 340.208 415.303 330.606 410.871C328.657 411.362 326.706 411.881 324.767 412.427C324.359 412.909 323.954 413.404 323.548 413.899C319.949 418.292 316.279 422.773 310.187 419.83C306.123 414.38 306.469 406.31 306.783 398.975C306.85 397.411 306.915 395.881 306.937 394.417C295.15 390.794 282.181 387.976 269.683 385.26C266.254 384.515 262.861 383.777 259.537 383.033C235.387 377.528 211.187 372.201 186.957 367.05C176.527 364.834 165.7 362.265 154.811 359.682C138.399 355.788 121.847 351.861 106.307 349.059ZM424.967 422.811C420.077 422.083 413.007 420.764 408.267 421.064C400.977 425.866 391.987 432.114 395.157 442.436C399.297 447.118 402.937 445.43 407.477 442.006C413.457 435.744 419.287 429.344 424.967 422.811Z" fill="#D4A373"/>
<path d="M823.567 400.351C802.954 444.748 790.408 446.945 748.413 454.298C745.588 454.792 742.63 455.31 739.527 455.866C734.302 456.802 728.332 459.076 722.361 461.351C716.939 463.416 711.515 465.482 706.646 466.547C681.547 472.746 648.686 458.412 625.847 448.251C611.667 441.943 602.327 434.15 597.237 419.493C596.457 417.214 595.756 414.909 595.146 412.582C585.715 414.878 574.626 418.384 563.393 421.935C547.851 426.849 532.032 431.851 519.947 433.854C535.527 454.885 550.887 476.085 566.017 497.448C569.282 501.805 572.771 506.701 576.327 511.689L576.331 511.694C582.444 520.271 588.752 529.12 594.447 535.974C604.757 532.201 616.288 528.761 627.499 525.417C627.502 525.416 627.504 525.415 627.506 525.414C632.625 523.887 637.678 522.38 642.517 520.87C675.556 510.281 708.687 499.958 741.896 489.901C757.659 485.022 774.38 479.585 791.365 474.061L791.368 474.06C822.417 463.962 854.35 453.577 882.927 445.796C881.171 443.688 878.408 440.237 875.236 436.276C875.234 436.273 875.232 436.271 875.23 436.269L875.229 436.267C867.396 426.485 857.069 413.59 853.247 410.077C839.057 409.16 835.977 407.506 823.567 400.351Z" fill="#D4A373"/>
<path d="M147.507 232.269C140.827 233.344 135.227 234.566 128.637 236.075C114.149 237.541 96.995 241.097 79.8732 244.647C65.4294 247.641 51.0083 250.631 38.2295 252.357C50.5894 265.452 62.8452 278.646 74.9922 291.937C75.99 293.045 76.9872 294.153 77.9844 295.261L77.9852 295.262C86.4266 304.641 94.8662 314.018 103.657 323.068C107.239 326.747 109.926 325.863 114.513 324.354L114.697 324.293C117.175 318.032 118.091 314.217 118.8 311.265C120.3 305.019 120.873 302.635 133.347 289.112C133.687 273.738 139.808 261.325 150.857 250.681L153.447 248.558C154.616 245.519 152.743 242.328 150.719 238.878C149.487 236.778 148.199 234.584 147.507 232.269Z" fill="#D4A373"/>
<path d="M591.677 118.397C555.347 108.819 533.547 113.773 514.077 146.894C515.177 146.293 516.428 145.593 517.8 144.825L517.804 144.823C529.315 138.38 549.32 127.181 559.317 130.095C558.167 135.928 558.087 136.078 552.667 139.103C551.359 139.804 549.912 140.566 548.383 141.372C541.37 145.067 532.615 149.681 527.427 153.466C526.681 153.945 526.046 154.303 525.497 154.613C523.874 155.528 523.004 156.018 522.257 157.949C524.756 159.205 527.905 159.178 530.93 159.153C531.584 159.148 532.232 159.143 532.867 159.15C565.087 158.371 575.797 143.65 591.677 118.397Z" fill="#588157"/>
<path d="M582.327 14.5165C545.787 19.3955 526.947 29.9834 520.977 67.9794C521.829 67.059 522.788 66.0072 523.833 64.8609C531.947 55.9609 545.254 41.3656 554.157 38.3456L556.837 38.6776C557.115 39.0974 557.326 39.3895 557.494 39.6218C557.984 40.2999 558.105 40.4673 558.447 41.8134C554.345 47.7267 549.936 52.7268 545.447 57.8182C540.132 63.8466 534.704 70.003 529.537 77.955L529.646 77.9221C550.449 71.6334 565.317 67.1388 576.577 46.2333C580.947 38.1203 584.537 24.6701 584.767 15.5682C584.294 15.2001 584.028 14.9492 583.85 14.7808C583.689 14.6284 583.599 14.5435 583.492 14.5003C583.357 14.4459 583.196 14.4574 582.832 14.4836C582.695 14.4934 582.53 14.5053 582.327 14.5165Z" fill="#588157"/>
<path d="M430.167 62.2147C426.897 91.3797 431.498 115.476 455.638 134.08C458.64 136.557 462.966 138.982 466.731 141.093C467.455 141.499 468.158 141.893 468.827 142.274C468.66 141.835 468.495 141.401 468.331 140.971C465.888 134.549 463.834 129.151 460.647 122.838C460.052 120.944 458.658 118.148 457.085 114.993C453.292 107.385 448.46 97.6933 451.287 93.5468C457.53 94.5091 465.272 107.492 469.222 114.116C469.612 114.771 469.966 115.364 470.277 115.877L479.728 134.555C480.357 124.835 479.857 117.419 478.747 107.893C470.097 84.3448 459.157 75.6293 436.147 64.9354C434.158 64.0145 432.167 63.1077 430.167 62.2147Z" fill="#588157"/>
<path d="M680.027 385.623C676.837 382.619 666.296 382.918 661.896 383.117C661.024 383.447 660.161 383.754 659.313 384.056C654.629 385.721 650.418 387.218 647.827 391.554C649.019 404.925 694.627 408.753 706.667 406.663C711.097 405.919 715.447 404.738 719.646 403.14L722.487 401.484C721.724 398.342 718.262 395.99 715.249 393.944C714.079 393.149 712.977 392.401 712.127 391.67C705.162 385.701 695.929 389.222 687.728 392.35C682.082 394.503 676.925 396.469 673.337 395.022C673.698 392.939 675.171 391.336 676.844 389.514C677.902 388.363 679.04 387.125 680.027 385.623Z" fill="#FF8B8B"/>
<path d="M837.977 510.049C834.237 502.564 822.877 489.286 813.707 490.145C811.117 490.867 808.52 491.588 805.917 492.309L805.916 492.31C795.627 495.163 785.269 498.036 775.077 501.099C774.88 501.159 774.681 501.218 774.481 501.278C769.666 502.717 763.904 504.44 764.537 510.001C765.156 510.865 765.68 511.532 766.126 512.098C767.609 513.983 768.209 514.745 768.447 517.955C765.048 524.2 760.992 530.637 757.182 536.683L757.18 536.686L756.977 537.009C748.411 550.571 740.576 564.503 732.737 578.443L732.736 578.445C732.734 578.447 732.733 578.45 732.731 578.453C729.187 584.755 725.641 591.06 722.027 597.332C723.252 597.014 724.539 596.676 725.877 596.325C737.592 593.249 753.142 589.166 763.777 588.621C765.159 592.48 767.045 600.842 768.856 608.866C770.87 617.796 772.79 626.309 773.817 627.737L775.357 627.794C779.181 626.271 783.052 624.703 786.939 623.129L786.943 623.128C794.379 620.116 801.876 617.08 809.217 614.286C815.156 625.33 819.767 638.572 823.417 650.582C824.34 647.502 825.326 644.272 826.35 640.917C826.352 640.913 826.353 640.908 826.354 640.904C838.34 601.653 855.56 545.257 837.977 510.049Z" fill="#008F8F"/>
<path d="M805.837 658.395C801.067 666.364 794.746 676.437 789.387 683.897C789.234 686.618 789.31 693.292 789.408 701.812C789.688 726.107 790.139 765.406 785.927 770.816C785.706 771.073 774.539 775.176 763.629 779.183L763.627 779.184C754.599 782.5 745.748 785.752 743.427 786.704C742.18 787.141 740.66 787.626 738.988 788.16C731.364 790.596 720.554 794.049 717.807 798.577C717.9 801.51 718.081 801.841 719.366 804.185C719.396 804.241 719.428 804.299 719.46 804.357C719.523 804.473 719.589 804.593 719.657 804.719C724.112 812.557 730.714 822.271 736.516 830.809C738.216 833.311 739.848 835.712 741.337 837.935C745.207 830.415 758.357 805.198 764.887 802.337C766.477 802.283 768.646 802.34 769.896 803.353C775.674 808.016 781.503 813.164 787.32 818.304C792.478 822.86 797.628 827.409 802.727 831.605C802.537 796.757 805.397 757.797 808.187 723.031C808.759 715.918 809.821 708.233 810.876 700.596C812.198 691.033 813.509 681.545 813.837 673.347C813.567 672.792 813.303 672.246 813.043 671.709C813.039 671.7 813.035 671.691 813.031 671.682C810.76 666.989 808.784 662.903 805.837 658.395Z" fill="#008F8F"/>
<path d="M788.577 900.435C788.989 901.739 789.463 903.156 789.963 904.648C792.477 912.151 795.628 921.558 794.577 928.056C789.924 933.424 761.594 932.652 747.254 932.262C744.636 932.191 742.484 932.132 741.027 932.126C741.04 933.39 741.091 935.332 741.154 937.719C741.486 950.384 742.147 975.587 739.177 978.725C731.439 981.379 700.513 968.935 683.976 962.28L683.975 962.28C683.972 962.279 683.97 962.278 683.967 962.277C680.886 961.037 678.305 959.998 676.467 959.296C672.636 965.259 669.869 971.074 666.9 977.315C666.513 978.128 666.123 978.948 665.727 979.776C670.436 985.345 671.947 986.787 677.707 991.316C697.264 1004.31 707.793 1002.3 726.366 998.755C729.141 998.224 732.096 997.66 735.287 997.106C764.237 992.076 788.647 980.705 805.697 955.806C813.837 943.916 826.216 916.846 808.307 907.746C805.117 906.126 791.838 900.866 788.577 900.435Z" fill="#6A994E"/>
<path d="M319.827 47.368C321.079 51.2547 322.389 54.8502 323.618 58.2241C330.301 76.5669 334.597 88.3597 314.267 104.787C313.158 105.683 312.274 106.557 311.402 107.42C309.944 108.86 308.52 110.268 306.137 111.696C295.277 109.986 283.757 108.132 273.267 104.774C269.867 99.2897 265.832 87.7329 262.482 78.1364L262.482 78.1354C261.073 74.1001 259.785 70.4116 258.717 67.6669C253.297 78.5754 250.057 86.3146 250.167 98.5741C250.337 118.703 262.987 134.217 280.737 142.406C283.25 143.567 285.945 144.59 288.645 145.616C291.748 146.795 294.857 147.976 297.707 149.371C303.318 157.22 308.348 173.67 312.88 188.492C315.278 196.333 317.536 203.718 319.667 209.134L334.427 214.396L330.777 205.312C330.142 203.226 329.229 200.603 328.21 197.675C324.149 186.008 318.41 169.515 321.847 162.97C322.343 162.665 322.732 162.417 323.049 162.214C323.777 161.749 324.123 161.528 324.5 161.442C324.841 161.365 325.207 161.399 325.904 161.463C326.367 161.505 326.975 161.561 327.817 161.607C333.199 164.29 335.105 170.248 336.965 176.059L337.087 176.441C342.647 193.8 348.177 210.501 354.467 227.624C355.191 227.79 355.914 227.952 356.637 228.114L356.642 228.115C360.629 229.007 364.584 229.891 368.367 231.432C365.464 222.657 362.411 213.894 359.355 205.119L359.355 205.118C351.916 183.762 344.454 162.342 339.067 140.525C338.388 137.773 343.056 126.79 344.646 124.34C363.246 95.5668 355.247 57.3202 319.827 47.368Z" fill="#9D9D9D"/>
<path d="M166.677 98.5136C156.587 82.6478 132.487 85.0018 126.507 104.555C125.367 108.388 124.276 112.24 123.236 116.105C121.843 115.657 120.496 115.199 119.182 114.753L119.181 114.753C110.339 111.749 103.038 109.268 93.417 113.667C82.0371 118.87 78.8412 136.408 85.0771 145.974C90.7423 154.66 98.9093 154.799 107.206 154.94C115.897 155.087 124.73 155.237 130.977 165.22C138.07 176.555 144.191 188.704 150.303 200.833C156.667 213.464 163.02 226.073 170.447 237.717C170.668 237.677 170.888 237.639 171.106 237.6C171.367 237.554 171.626 237.508 171.884 237.463C175.917 236.753 179.632 236.098 183.667 234.952C184.198 234.246 184.711 233.557 185.213 232.881C188.604 228.324 191.517 224.408 196.106 220.501C195.6 219.46 195.096 218.415 194.591 217.369C194.589 217.365 194.586 217.361 194.584 217.356C191.879 211.754 189.156 206.116 186.057 200.753C185.335 199.312 184.584 197.792 183.81 196.222L183.809 196.221C180.107 188.721 175.86 180.117 171.667 173.939C170.656 171.399 168.8 168.078 166.749 164.407C161.477 154.973 154.914 143.227 158.066 136.471C158.856 134.776 159.751 133.011 160.675 131.188C165.613 121.451 171.402 110.034 166.677 98.5136Z" fill="white"/>
<path fill-rule="evenodd" clip-rule="evenodd" d="M342.627 245.11C329.527 232.92 322.397 226.369 303.507 227.12C302.617 227.156 301.736 227.202 300.856 227.259C290.077 229.958 282.376 233.306 273.606 240.405C284.666 241.819 296.197 244.536 303.467 253.716C306.837 257.966 307.527 260.854 303.947 265.105C298.532 265.885 294.143 262.417 289.862 259.035C287.123 256.871 284.428 254.742 281.537 253.782C263.727 247.866 245.727 259.303 235.167 273.084C230.337 279.378 224.047 289.928 229.287 297.519L230.307 297.541C237.167 297.734 258.707 299.535 256.477 309.584C256.208 309.849 255.945 310.128 255.681 310.409C254.416 311.756 253.134 313.121 251.106 312.923C248.774 312.696 246.531 312.366 244.355 312.046C235.353 310.721 227.484 309.563 219.077 316.543C210.417 323.743 203.837 338.048 206.837 349.255C206.868 349.289 206.898 349.323 206.929 349.357C206.981 349.416 207.033 349.474 207.085 349.532C207.151 349.606 207.217 349.679 207.282 349.752C207.326 349.802 207.37 349.851 207.413 349.9C207.497 349.994 207.581 350.088 207.665 350.182C207.718 350.242 207.771 350.301 207.824 350.361C208.021 350.582 208.218 350.804 208.417 351.025C214.937 352.523 222.644 354.38 230.838 356.355C251.249 361.274 274.68 366.921 290.307 369.549C298.52 366.067 303.708 362.145 308.132 358.8C317.142 351.987 322.987 347.568 344.776 354.141C374.18 363.339 373.878 348.246 373.606 334.635C373.5 329.345 373.399 324.28 375.047 320.95C375.786 320.553 376.271 320.264 376.621 320.055C377.056 319.795 377.281 319.66 377.525 319.601C377.786 319.538 378.07 319.561 378.657 319.61C379.015 319.64 379.487 319.68 380.137 319.715C389.207 325.106 388.457 339.251 386.927 348.249L388.066 348.497C388.97 347.749 389.993 346.913 391.084 346.022C395.744 342.216 401.662 337.383 404.927 333.898C407.627 301.891 395.507 294.401 366.177 290.772L366.173 290.884C366.063 294.464 365.371 316.846 354.087 306.956C353.063 306.059 353.313 300.655 353.562 295.28C353.79 290.365 354.016 285.476 353.267 284.079C352.018 280.106 348.587 277.166 345.24 274.298C341.03 270.689 336.953 267.196 337.526 261.903C346.716 251.638 360.376 271.515 364.736 278.885C372.996 278.99 380.077 279.199 388.337 279.771C378.297 256.345 370.797 245.212 342.627 245.11ZM320.465 275.644L320.367 275.598C315.317 281.463 310.297 288.777 302.237 289.95C289.777 291.763 278.687 268.811 267.027 281.1C267.557 290.53 291.397 295.133 291.337 310.156C291.287 323.407 285.187 335.763 270.977 339.29C263.637 340.305 247.407 331.782 240.337 336.54C238.897 346.081 255.977 350.889 263.477 351.592C295.617 352.479 289.857 331.316 315.317 325.041C322.347 323.308 340.277 335.261 347.987 332.1C348.877 330.497 349.247 329.798 348.347 327.951C339.557 310.04 318.277 312.112 303.837 315.25C303.347 310.666 303.007 306.232 301.997 301.734C311.147 299.141 327.977 292.143 326.287 280.44C324.237 277.41 323.746 277.18 320.465 275.644Z" fill="#FFD0D0"/>
<path d="M190.127 339.237C191.577 329.834 192.367 325.988 197.267 317.903C201.927 310.993 205.117 308.168 212.007 303.37C211.237 284.8 212.967 272.68 226.247 258.192C228.077 256.228 229.967 254.326 231.927 252.491C231.368 252.29 230.76 252.085 230.123 251.871C224.9 250.11 217.703 247.683 219.307 241.391C226.76 235.505 236.322 240.579 243.475 244.374L243.637 244.46C245.61 242.709 247.854 240.663 250.206 238.519C255.653 233.556 261.681 228.061 266.276 224.455C237.387 215.697 216.106 221.702 198.356 246.039C198.831 248.098 199.46 250.17 200.08 252.21C201.9 258.205 203.638 263.929 201.146 268.276C200.473 268.558 199.973 268.783 199.584 268.958C198.896 269.268 198.551 269.423 198.192 269.468C197.831 269.513 197.457 269.447 196.706 269.314C196.293 269.241 195.767 269.148 195.066 269.043C190.871 266.035 189.121 260.933 187.396 255.905L187.395 255.903C187.089 255.012 186.784 254.123 186.467 253.249C172.567 256.275 162.847 262.802 154.617 274.934C147.45 285.5 154.307 288.617 162.893 292.521L163.117 292.623C169.457 286.17 184.266 277.422 193.066 282.135C195.046 285.748 193.717 287.688 191.307 290.915C188.845 292.095 186.517 292.816 184.33 293.493C179.259 295.063 174.954 296.396 171.537 302.664C169.884 305.695 171.339 310.841 172.763 315.878C175.034 323.907 177.226 331.66 166.627 330.128C160.673 326.71 159.714 319.582 158.838 313.066C158.249 308.683 157.697 304.576 155.687 302.061L155.508 301.985C153.219 301.005 151.885 300.434 149.497 301.73C134.817 309.681 133.767 321.336 134.087 335.157L135.566 335.337C140.159 335.922 148.484 337.881 157.259 339.946L157.26 339.947C170.323 343.021 184.383 346.33 188.606 345.689C189.952 343.723 190 342.455 190.077 340.393C190.09 340.034 190.105 339.651 190.127 339.237Z" fill="#FFD0D0"/>
<path fill-rule="evenodd" clip-rule="evenodd" d="M546.037 306.221C485.387 309.936 441.167 342.129 419.087 398.388L442.217 403.229C442.554 402.825 442.908 402.397 443.276 401.953C446.655 397.873 451.234 392.342 454.977 389.657C460.537 384.48 467.927 379.091 475.787 379.344L477.587 380.69C477.88 386.597 469.904 392.252 464.506 396.079C463.659 396.679 462.875 397.235 462.197 397.739L456.317 404.462C463.917 406.426 469.407 407.546 477.087 408.887C477.474 408.255 477.896 407.522 478.353 406.729C481.306 401.604 485.691 393.993 491.217 395.409C493.609 399.996 491.554 405.772 489.744 410.857C489.398 411.828 489.062 412.773 488.767 413.681C501.836 416.141 519.697 417.808 529.977 406.72C547.296 388.048 560.516 353.881 562.517 328.992C554.597 333.95 547.027 338.177 538.877 342.712L546.037 306.221ZM502.747 375.332C493.087 369.137 483.857 341.486 479.487 339.487C467.067 366.238 503.357 401.444 528.627 393.505L530.387 390.712C528.757 387.771 508.627 379.108 502.747 375.332ZM524.217 331.841C522.097 326.496 516.107 323.811 510.717 325.785C507.087 327.11 504.467 330.297 503.877 334.108C503.277 337.919 504.797 341.754 507.847 344.122C510.887 346.49 514.977 347.019 518.527 345.503C523.807 343.244 526.337 337.186 524.217 331.841Z" fill="#B3B3B3"/>
<path d="M437.037 340.323C424.707 342.724 409.007 347.376 399.837 356.546L409.597 364.502L417.057 371.409C421.127 364.147 424.907 358.114 429.927 351.477C430.823 350.297 431.944 348.957 433.091 347.585C434.967 345.343 436.914 343.016 438.067 341.16L437.037 340.323Z" fill="#B3B3B3"/>
<path d="M330.047 365.074C325.687 367.996 321.347 370.945 317.027 373.919L333.807 378.588L342.807 380.703C342.39 380.086 341.937 379.399 341.454 378.666C338.337 373.942 333.96 367.307 330.047 365.074Z" fill="#B3B3B3"/>
<path d="M414.377 220.412C413.227 232.93 411.764 245.401 410.3 257.87L410.3 257.872C409.205 267.205 408.11 276.536 407.146 285.886C409.866 289.221 412.367 292.241 415.237 295.457C431.697 286.356 449.668 284.76 468.067 287.059C476.057 282.911 478.604 264.048 480.464 250.272C481.06 245.858 481.586 241.966 482.197 239.247C475.446 237.384 468.557 235.522 461.619 233.648L461.616 233.647C445.753 229.361 429.641 225.008 414.377 220.412Z" fill="#FFDB8E"/>
<path d="M408.767 179.716C407.727 186.856 406.597 193.982 405.377 201.092C426.691 207.547 448.25 213.287 469.81 219.028C489.349 224.23 508.888 229.433 528.247 235.168C529.384 235.505 530.611 235.912 531.884 236.335C535.595 237.566 539.694 238.926 543.067 239.055C543.61 238.646 543.959 238.433 544.195 238.289C544.394 238.168 544.513 238.095 544.601 237.995C544.732 237.846 544.793 237.636 544.947 237.114C544.971 237.031 544.998 236.94 545.027 236.841C545.199 236.342 545.368 235.848 545.536 235.357C547.337 230.104 548.981 225.309 551.387 220.156C520.827 211.987 490.397 203.364 460.097 194.287C457.468 193.512 453.989 192.457 450.052 191.262L450.048 191.261C436.301 187.089 416.975 181.225 408.767 179.716Z" fill="#FFDB8E"/>
<path d="M200.437 870.286C190.387 856.416 166.687 850.076 151.297 851.346C146.167 853.665 141.907 856.066 144.566 862.246C148.486 865.197 153.25 864.914 158.045 864.63C161.324 864.435 164.618 864.24 167.667 865.076C173.713 866.736 180.298 870.844 186.399 874.651L186.4 874.652C188.533 875.983 190.606 877.276 192.577 878.416C196.06 877.534 196.9 876.87 199.436 874.866C199.659 874.69 199.894 874.503 200.146 874.306C200.214 874.149 200.284 873.995 200.354 873.843C200.895 872.655 201.384 871.58 200.437 870.286Z" fill="white"/>
<path d="M108.067 877.036C102.678 880.696 101.606 881.806 97.1465 886.626C97.5013 886.702 97.8693 886.781 98.2487 886.862L98.2502 886.862C103.889 888.068 112.03 889.809 116.687 892.076C154.157 910.754 177.577 946.351 200.513 981.213C209.394 994.713 218.203 1008.1 227.727 1020.36C233.681 1028.02 240.777 1034.31 247.866 1040.6L247.867 1040.6C253.766 1045.83 259.659 1051.06 264.887 1057.07C268.495 1061.22 264.307 1067.89 261.847 1071.53C278.346 1087.67 294.077 1103.28 302.957 1125.12L304.167 1125.34C307.025 1122.4 310.464 1116.89 313.152 1112.58C313.718 1111.67 314.25 1110.82 314.737 1110.06C305.427 1083.79 285.469 1062.49 265.842 1041.55C257.496 1032.64 249.209 1023.8 241.827 1014.67C233.736 1004.65 224.985 990.839 215.459 975.806C187.359 931.457 152.527 876.484 108.067 877.036Z" fill="white"/>
<path d="M255.517 925.605C255.783 927.355 256.108 930.055 256.486 933.201C257.684 943.164 259.419 957.601 261.547 960.496L261.679 960.56C264.437 961.887 264.487 961.911 268.217 960.966C270.587 949.186 269.646 929.386 255.517 925.605Z" fill="white"/>
<path d="M279.157 939.806C281.346 946.425 282.362 951.613 283.418 957.008C284.181 960.903 284.965 964.906 286.227 969.636C286.651 971.228 287.959 971.889 289.273 972.553L289.278 972.555C289.512 972.673 289.747 972.792 289.977 972.916C290.066 972.914 290.157 972.913 290.251 972.913C290.427 972.911 290.61 972.91 290.798 972.909C291.931 972.904 293.246 972.899 294.187 972.716C296.377 959.836 296.317 941.206 279.157 939.806Z" fill="white"/>
<path d="M726.327 1065.46C722.977 1062.93 720.237 1062.71 716.027 1063.03C705.887 1067.85 686.357 1082.27 690.227 1095.42C692.537 1098.13 697.307 1097.27 700.037 1095.57C700.21 1095.26 700.381 1094.95 700.55 1094.65C700.556 1094.63 700.563 1094.62 700.569 1094.61C702.366 1091.38 703.998 1088.45 706.657 1085.72C708.448 1083.88 711.303 1082.08 714.296 1080.19L714.298 1080.19C720.766 1076.11 727.884 1071.61 726.327 1065.46Z" fill="white"/>
<path d="M806.157 1015.85C803.337 1006.43 788.737 1002.99 780.107 1003.86C773.928 1007.17 768.706 1009.65 762.307 1012.52C763.524 1012.72 764.738 1012.92 765.948 1013.11L765.95 1013.11C774.568 1014.53 783.013 1015.91 791.527 1018.16C792.02 1018.3 792.536 1018.45 793.068 1018.61C798.003 1020.1 804.324 1022.01 806.157 1015.85Z" fill="white"/>
<path d="M759.547 1026.12C751.981 1027.61 750.961 1029.12 747.204 1034.67C747.008 1034.95 746.804 1035.26 746.592 1035.57C746.361 1035.91 746.12 1036.26 745.867 1036.63C762.527 1037.49 772.867 1039.17 788.657 1046.03C788.863 1046.06 789.057 1046.1 789.24 1046.13C792.14 1046.67 792.49 1046.73 795.527 1045.75L796.817 1044.3C795.527 1031.13 770.537 1025.98 759.547 1026.12Z" fill="white"/>
<path d="M889.387 941.235C886.066 979.636 845.857 1081.71 815.377 1107.25C787.96 1129.95 753.505 1129.58 719.949 1129.21C713.886 1129.14 707.853 1129.07 701.896 1129.15C700.737 1129.16 698.536 1129.09 696.005 1129H696.002C689.998 1128.81 682.132 1128.55 681.857 1129.25C675.146 1146.29 691.514 1145.18 698.834 1144.68C699.736 1144.62 700.5 1144.56 701.067 1144.56C706.66 1144.58 712.305 1144.69 717.968 1144.8C757.227 1145.59 797.352 1146.39 827.127 1116.84C850.395 1093.73 859.202 1065.84 868.566 1036.18C868.567 1036.18 868.568 1036.17 868.569 1036.17C870.057 1031.46 871.56 1026.7 873.137 1021.91C876.176 1012.75 878.376 1013.41 887.297 1016.1L887.927 1016.29C896.366 1006.69 903.506 964.647 902.937 950.346C897.857 945.356 896.126 944.225 889.387 941.235Z" fill="white"/>
<path fill-rule="evenodd" clip-rule="evenodd" d="M508.137 59.9003C513.957 13.4133 558.137 -1.1859 599.037 0.0741039C599.857 49.7578 582.096 83.8046 530.707 91.0995C522.56 92.2571 517.791 93.3213 514.782 101.105L514.497 101.88C507.618 115.389 504.347 127.054 500.407 141.556C510.106 123.113 515.257 117.359 533.184 106.442H533.187C533.971 106.164 534.993 105.788 536.16 105.358C541.064 103.552 548.535 100.801 551.767 100.415C567.417 98.5439 589.037 100.509 603.717 106.589C614.203 111.097 605.524 124.654 600.542 132.436L600.54 132.439C599.861 133.501 599.25 134.455 598.767 135.264C591.196 147.925 576.796 162.218 563.337 168.74C547.367 176.48 523.257 174.004 506.407 171.372C499.628 176.457 498.046 178.484 494.307 186.119C498.787 187.728 503.579 189.055 508.317 190.367C513.372 191.766 518.367 193.149 522.857 194.84C524.772 195.559 528.603 196.539 533.276 197.734C547.55 201.384 569.675 207.042 568.997 213.414C568.271 220.307 565.93 228.768 563.433 237.794C557.973 257.526 551.765 279.958 560.056 294.62L560.347 295.122C568.453 304.733 571.295 306.844 576.938 311.037C579.369 312.844 582.32 315.036 586.437 318.382C585.437 317.031 584.511 315.791 583.652 314.64C575.302 303.462 573.188 300.632 570.604 284.979L570.327 283.259L570.468 282.011C571.989 269.338 575.644 263.68 582.977 253.082C576.971 222.565 584.299 212.654 591.023 203.559C595.259 197.829 599.256 192.423 599.527 182.392L599.526 182.391C601.646 171.876 605.086 166.226 611.765 158.158H611.767C613.497 156.98 614.832 155.98 616.017 155.092C619.042 152.825 621.088 151.291 626.247 149.412C638.727 127.319 644.348 121.525 664.687 106.96C656.117 103.277 649.15 101.633 640.903 99.6878C639.016 99.2428 637.062 98.7819 635.007 98.2772C658.087 83.8663 678.787 81.2588 705.057 82.2138C701.727 75.9133 696.139 62.6958 700.057 56.2362C702.704 56.0197 703.349 56.5399 705.038 57.9005C705.557 58.3182 706.173 58.8152 706.977 59.3944C711.657 63.7874 719.358 70.4067 725.067 73.2264C737.242 79.8379 745.925 81.1435 756.19 82.6869C761.236 83.4456 766.664 84.2617 773.077 85.7938C814.087 95.592 874.057 125.345 891.277 166.381C899.717 162.07 918.417 153.662 924.927 164.881C924.27 167.878 919.586 171.166 914.553 174.698C910.592 177.478 906.416 180.409 903.817 183.469C915.557 185.976 935.187 193.826 933.057 208.941L931.167 210.582C927.456 210.079 924.11 208.799 920.535 207.432C916.413 205.854 911.986 204.161 906.347 203.41C915.186 235.223 904.446 281.809 888.646 310.007C887.797 311.531 886.906 313.038 885.977 314.522C893.426 318.654 900.777 326.644 900.777 326.644C905.347 334.425 906.896 338.825 908.597 346.713C912.096 373.785 900.116 393.367 876.577 405.954L916.142 454.5L837.977 482.5C844.558 486.24 847.247 489.172 851.947 494.483C869.386 520.398 868.387 553.16 862.277 582.539C856.117 612.126 847.997 641.16 838.787 669.916C837.187 674.896 835.627 680.098 834.337 685.177C826.767 727.703 824.307 771.711 823.187 814.853C823.034 820.581 823.126 826.396 823.218 832.223V832.225C823.362 841.304 823.506 850.409 822.727 859.246C822.364 863.354 815.636 865.575 811.767 863.966C805.22 861.256 799.871 856.712 794.514 852.16C791.37 849.488 788.222 846.814 784.827 844.506C784.77 846.012 784.714 847.441 784.661 848.799C784.092 863.279 783.844 869.583 786.693 873.789C788.89 877.032 792.929 879.028 800.081 882.562C803.323 884.164 807.206 886.082 811.847 888.576C828.327 883.096 842.427 884.196 858.197 893.066C869.124 899.217 880.73 908.074 892.105 916.755C899.614 922.485 907.022 928.138 914.067 932.886C916.997 934.857 921.077 941.476 922.197 944.806C927.186 970.666 913.776 1010.1 904.307 1034.55C902.957 1038.04 901.336 1038.92 898.807 1039.86C897.223 1040.44 895.522 1040.61 893.957 1040.76C891.441 1041 889.274 1041.21 888.497 1043.09C886.677 1047.47 885.123 1052.17 883.583 1056.82C882.56 1059.91 881.542 1062.98 880.457 1065.94C869.007 1097.09 854.116 1124.89 826.247 1144.65C848.357 1145.02 870.467 1145.09 892.577 1144.86C895.199 1144.85 897.885 1144.82 900.601 1144.78C908.626 1144.68 916.909 1144.58 924.567 1145.13C937.877 1146.07 938.377 1165.81 923.027 1166.1C913.508 1166.28 903.993 1166.18 894.476 1166.08C888.847 1166.02 883.218 1165.97 877.587 1165.97L182.027 1166.03C176.344 1166.02 170.612 1166.07 164.86 1166.12H164.845C151.777 1166.23 138.606 1166.34 125.667 1165.86C106.727 1165.16 109.497 1145.07 124.307 1144.88C142.49 1144.63 160.773 1144.86 179.064 1145.08H179.076C200.272 1145.33 221.479 1145.59 242.557 1145.13C224.437 1136.67 196.148 1111.33 184.037 1095.65C185.467 1088.8 186.587 1084.77 188.797 1078.13C182.212 1072.9 175.344 1068.12 168.465 1063.34C159.611 1057.19 150.738 1051.03 142.427 1043.86C110.957 1016.72 85.2969 983.815 70.1738 944.696C60.235 918.987 59.3371 889.436 83.832 871.206C89.7893 866.772 95.1377 860.707 100.236 854.926L100.238 854.924C101.75 853.21 103.24 851.52 104.717 849.906C134.587 821.836 182.737 823.236 213.047 849.886C228.705 863.202 236.561 877.454 245.691 894.016L245.692 894.02C247.168 896.696 248.677 899.433 250.257 902.236C251.16 903.824 254.227 904.967 256.191 905.699L256.193 905.7C256.429 905.788 256.649 905.87 256.847 905.946C258.565 906.86 260.41 907.751 262.284 908.656C267.4 911.126 272.727 913.698 276.247 917.116C278.769 918.906 285.009 921.398 290.499 923.59L290.5 923.591L290.502 923.591C293.197 924.668 295.712 925.672 297.517 926.485L310.167 912.525C308.552 912.628 306.839 912.769 305.068 912.916C296.622 913.616 286.853 914.425 280.017 911.565C279.012 909.384 278.822 908.015 278.668 906.094L278.497 903.935L278.908 903.313C281.833 898.993 286.605 894.083 291.013 889.547C293.209 887.287 295.314 885.121 297.057 883.166C302.758 876.778 308.935 870.334 315.153 863.846L315.155 863.844C324.52 854.073 333.98 844.203 342.057 834.276C329.275 831.374 315.017 827.406 301.31 823.592C295.275 821.912 289.346 820.262 283.697 818.746L186.767 792.871C184.095 792.149 179.34 790.935 173.356 789.406C148.77 783.128 103.426 771.549 96.457 766.996C92.9063 761.002 93.4457 743.252 93.7835 732.137C93.85 729.949 93.9086 728.019 93.9268 726.485C71.2944 718.714 57.4611 710.66 63.5869 683.915C51.1574 669.797 49.5412 661.717 56.5762 644.023C46.5855 627.98 48.1437 614.845 58.4736 599.701C50.2128 584.049 54.716 565.352 68.9092 554.949C76.9779 549.034 84.5472 546.788 93.9668 544.107L93.9766 479.087C77.0742 475.806 59.5909 471.294 42.2258 466.812C30.2318 463.716 18.2943 460.635 6.64355 457.984C3.06405 457.17 1.99312 454.609 0.764997 451.672C0.522912 451.093 0.274718 450.5 0 449.902C1.48594 441.583 8.05902 434.011 14.6853 426.378C17.7317 422.869 20.7894 419.347 23.3691 415.733C28.2812 410.725 34.901 402.666 40.6399 395.679L40.6424 395.676C42.7371 393.126 44.7143 390.719 46.4482 388.655L89.3066 337.721C85.3569 333.006 76.2988 323.43 65.6477 312.17C42.4316 287.626 11.6467 255.081 9.69434 247.432C9.15455 245.311 9.24 243.081 10.4141 241.181C12.148 238.376 15.4794 236.868 18.4951 235.86C26.6698 233.128 35.9446 231.678 44.9181 230.274L44.9201 230.274C48.395 229.731 51.8248 229.195 55.1279 228.594C62.4236 227.266 69.7357 225.98 77.0514 224.692L77.054 224.692L77.0553 224.692C96.9739 221.187 116.92 217.677 136.637 213.325C135.771 211.976 133.503 207.69 130.726 202.44C124.712 191.072 116.309 175.189 114.577 174.834C110.669 174.041 107.002 173.668 103.491 173.311C93.6051 172.305 84.9578 171.424 75.6709 161.669C70.4034 156.135 66.9158 150.345 65.0566 142.65C59.7247 108.552 81.1049 92.6006 111.467 93.8475C123.227 71.0358 146.917 61.908 169.097 76.8397C178.136 82.8648 184.297 92.3566 186.097 103.07C188.656 117.8 183.257 128.703 175.157 140.35C181.718 154.895 191.397 172.737 200.417 189.365L200.418 189.366C204.46 196.816 208.369 204.022 211.807 210.579C213.986 209.54 216.197 208.562 218.437 207.646C241.047 198.565 261.027 202.438 282.637 211.822C287.451 210.756 292.425 209.88 297.333 209.016C298.563 208.799 299.789 208.583 301.007 208.365C295.847 195.088 290.357 177.114 286.237 163.314C265.218 155.359 251.517 148.853 239.657 126.772C225.187 100.593 233.318 60.2904 258.677 44.08C270.216 36.7044 279.125 69.207 283.274 84.3455C283.979 86.9182 284.547 88.9895 284.967 90.2782C288.479 90.9855 292.432 91.5918 296.241 92.1758L296.242 92.1761C297.812 92.4168 299.357 92.6538 300.837 92.8925C306.096 88.4199 307.818 86.4899 312.257 81.1239C309.617 71.4175 306.267 60.2774 302.837 50.7958C294.697 28.2949 302.407 24.7909 323.507 29.3749C332.926 32.3108 337.027 34.0258 345.167 39.6337C360.616 51.4394 368.667 63.8634 371.217 83.455C374.205 106.375 368.625 116.771 359.859 133.101C358.771 135.129 357.633 137.247 356.457 139.493C358.55 145.848 360.632 152.206 362.713 158.563L362.713 158.565C372.75 189.226 382.78 219.867 394.127 250.082C394.252 249.493 394.389 248.857 394.534 248.181C396.417 239.429 399.746 223.96 397.027 217.048C395.708 215.462 394.102 214.578 392.599 213.75C390.425 212.553 388.465 211.474 387.896 208.557C386.757 202.62 394.207 160.896 401.457 162.013C417.415 164.47 433.749 169.367 449.976 174.231C458.753 176.863 467.498 179.484 476.137 181.706C476.415 161.525 473.085 159.879 461.952 154.377C458.668 152.754 454.706 150.796 449.957 147.928C415.568 127.155 407.568 81.6676 420.167 45.7479C436.287 49.4279 450.497 54.1173 464.407 63.6132C464.653 63.814 464.893 64.0111 465.131 64.205C468.729 67.1483 471.425 69.3531 474.727 72.869C484.156 82.7503 487.027 88.8854 491.437 101.963L494.797 114.466C495.943 110.685 497.481 106.637 498.949 102.776L498.952 102.768C499.328 101.78 499.698 100.804 500.057 99.8485C500.719 98.1261 501.832 95.783 502.977 93.374C504.652 89.8512 506.393 86.1874 506.887 84.1171C507.81 80.2177 507.791 75.2525 507.773 70.3601C507.759 66.6691 507.746 63.0195 508.137 59.9003ZM197.446 319.296C197.649 320.708 197.836 322.011 197.337 323.095C196.404 325.125 197.076 328.561 197.774 332.128C198.743 337.087 199.763 342.298 196.587 344.333C194.949 342.288 195.062 340.278 195.157 338.586C195.241 337.086 195.311 335.836 194.137 335.033L190.127 339.237C190.105 339.651 190.09 340.034 190.077 340.393C190 342.455 189.952 343.723 188.606 345.689C184.383 346.33 170.323 343.021 157.26 339.947L157.259 339.946C148.484 337.881 140.159 335.922 135.566 335.337L134.087 335.157C133.767 321.336 134.817 309.681 149.497 301.73C151.885 300.434 153.219 301.005 155.508 301.985L155.687 302.061C157.697 304.576 158.249 308.683 158.838 313.066C159.714 319.582 160.673 326.71 166.627 330.128C177.226 331.66 175.034 323.907 172.763 315.878C171.339 310.841 169.884 305.695 171.537 302.664C174.954 296.396 179.259 295.063 184.33 293.493C186.517 292.816 188.845 292.095 191.307 290.915C193.717 287.688 195.046 285.748 193.066 282.135C184.266 277.422 169.457 286.17 163.117 292.623L162.893 292.521C154.307 288.617 147.45 285.5 154.617 274.934C162.847 262.802 172.567 256.275 186.467 253.249C186.784 254.123 187.089 255.012 187.395 255.903L187.396 255.905C189.121 260.933 190.871 266.035 195.066 269.043C195.767 269.148 196.293 269.241 196.706 269.314C197.457 269.447 197.831 269.513 198.192 269.468C198.551 269.423 198.896 269.268 199.584 268.958C199.973 268.783 200.473 268.558 201.146 268.276C203.638 263.929 201.9 258.205 200.08 252.21C199.46 250.17 198.831 248.098 198.356 246.039C216.106 221.702 237.387 215.697 266.276 224.455C261.681 228.061 255.653 233.556 250.206 238.519C247.854 240.663 245.61 242.709 243.637 244.46L243.475 244.374C236.322 240.579 226.76 235.505 219.307 241.391C217.703 247.683 224.9 250.11 230.123 251.871C230.76 252.085 231.368 252.29 231.927 252.491C229.967 254.326 228.077 256.228 226.247 258.192C212.967 272.68 211.237 284.8 212.007 303.37C205.117 308.168 201.927 310.993 197.267 317.903C197.313 318.376 197.38 318.842 197.446 319.296ZM442.26 1018.06L442.262 1018.05C478.009 975.937 509.487 938.849 564.146 912.195C567.527 914.639 570.857 921.151 573.534 926.386C574.429 928.135 575.25 929.741 575.977 931.006C577.685 933.99 580.35 938.77 583.613 944.625L583.617 944.631C598.02 970.473 624.089 1017.24 631.197 1022.93C633.776 1024.98 635.338 1025.17 638.487 1024.81C643.738 1021.6 648.56 1012.4 652.434 1005.01C653.4 1003.17 654.306 1001.44 655.146 999.945C679.766 1022.69 702.378 1023.85 733.697 1018.7C731.391 1022.44 728.758 1028.43 726.58 1033.38C726.009 1034.68 725.47 1035.9 724.977 1037C722.43 1037.76 720.027 1038.46 717.747 1039.12C696.472 1045.29 685.946 1048.35 669.317 1072.08C657.798 1088.52 657.477 1126.13 661.977 1144.84C619.138 1145.59 575.04 1145.4 531.364 1145.2H531.355C511.699 1145.11 492.129 1145.03 472.797 1145.03L313.146 1144.85C317.391 1140.48 320.805 1135.89 324.092 1131.47C326.628 1128.07 329.088 1124.76 331.797 1121.74C332.869 1120.54 333.916 1119.37 334.939 1118.23L334.976 1118.19C356.896 1093.77 367.737 1081.69 371.347 1045.43C374.432 1041.38 377.922 1037.18 381.475 1032.9C388.218 1024.78 395.188 1016.39 400.047 1008.29C400.266 1010.83 400.292 1014.14 400.32 1017.8C400.411 1029.61 400.529 1044.96 407.327 1049.39C411.196 1050.13 414.967 1049.68 417.747 1046.54C426.32 1036.84 434.393 1027.33 442.26 1018.06ZM815.377 1107.25C845.857 1081.71 886.066 979.636 889.387 941.235C896.126 944.225 897.857 945.356 902.937 950.346C903.506 964.647 896.366 1006.69 887.927 1016.29L887.297 1016.1C878.376 1013.41 876.176 1012.75 873.137 1021.91C871.56 1026.7 870.057 1031.46 868.569 1036.17L868.566 1036.18C859.202 1065.84 850.395 1093.73 827.127 1116.84C797.352 1146.39 757.227 1145.59 717.968 1144.8C712.305 1144.69 706.66 1144.58 701.067 1144.56C700.5 1144.56 699.736 1144.62 698.834 1144.68C691.514 1145.18 675.146 1146.29 681.857 1129.25C682.132 1128.55 689.998 1128.81 696.002 1129H696.005C698.536 1129.09 700.737 1129.16 701.896 1129.15C707.85 1129.07 713.879 1129.14 719.938 1129.21H719.949C753.505 1129.58 787.96 1129.95 815.377 1107.25ZM97.1465 886.626C101.606 881.806 102.678 880.696 108.067 877.036C152.527 876.484 187.359 931.457 215.459 975.806C224.985 990.839 233.736 1004.65 241.827 1014.67C249.209 1023.8 257.496 1032.64 265.842 1041.55C285.469 1062.49 305.427 1083.79 314.737 1110.06C314.25 1110.82 313.718 1111.67 313.152 1112.58C310.464 1116.89 307.025 1122.4 304.167 1125.34L302.957 1125.12C294.077 1103.28 278.346 1087.67 261.847 1071.53C264.307 1067.89 268.495 1061.22 264.887 1057.07C259.659 1051.06 253.766 1045.83 247.867 1040.6L247.866 1040.6C240.777 1034.31 233.681 1028.02 227.727 1020.36C218.203 1008.1 209.394 994.713 200.513 981.213C177.577 946.351 154.157 910.754 116.687 892.076C112.03 889.809 103.889 888.068 98.2502 886.862L98.2487 886.862C97.8693 886.781 97.5013 886.702 97.1465 886.626ZM716.027 1063.03C720.237 1062.71 722.977 1062.93 726.327 1065.46C727.884 1071.61 720.766 1076.11 714.298 1080.19L714.296 1080.19C711.303 1082.08 708.448 1083.88 706.657 1085.72C703.998 1088.45 702.366 1091.38 700.569 1094.61L700.55 1094.65C700.381 1094.95 700.21 1095.26 700.037 1095.57C697.307 1097.27 692.537 1098.13 690.227 1095.42C686.357 1082.27 705.887 1067.85 716.027 1063.03ZM746.592 1035.57C746.804 1035.26 747.008 1034.95 747.204 1034.67C750.961 1029.12 751.981 1027.61 759.547 1026.12C770.537 1025.98 795.527 1031.13 796.817 1044.3L795.527 1045.75C792.49 1046.73 792.14 1046.67 789.24 1046.13C789.057 1046.1 788.863 1046.06 788.657 1046.03C772.867 1039.17 762.527 1037.49 745.867 1036.63C746.12 1036.26 746.361 1035.91 746.592 1035.57ZM312.347 941.276C315.849 937.119 319.229 932.921 322.608 928.723C327.121 923.117 331.633 917.512 336.437 912.006L353.227 911.975C352.805 918.206 352.28 924.722 351.75 931.298C350.861 942.337 349.958 953.543 349.507 963.846C349.017 975.053 378.402 967.867 391.885 964.569L391.89 964.568C394.281 963.983 396.172 963.521 397.307 963.306C397.669 969.375 397.591 974.757 397.503 980.808L397.497 981.196C391.244 989.192 384.073 997.638 377.256 1005.67C375.745 1007.45 374.25 1009.21 372.787 1010.94C368.058 1016.95 364.937 1020.62 359.587 1026.08C357.143 1022.99 353.295 1018.97 349.227 1014.72L349.225 1014.71C342.343 1007.53 334.831 999.678 332.417 994.556C327.984 985.16 326.779 978.109 325.659 971.555C324.066 962.232 322.645 953.912 312.347 941.276ZM780.107 1003.86C788.737 1002.99 803.337 1006.43 806.157 1015.85C804.324 1022.01 798.003 1020.1 793.068 1018.61C792.536 1018.45 792.02 1018.3 791.527 1018.16C783.013 1015.91 774.568 1014.53 765.95 1013.11L765.948 1013.11C764.738 1012.92 763.524 1012.72 762.307 1012.52C768.706 1009.65 773.928 1007.17 780.107 1003.86ZM789.963 904.648C789.463 903.156 788.989 901.739 788.577 900.435C791.838 900.866 805.117 906.126 808.307 907.746C826.216 916.846 813.837 943.916 805.697 955.806C788.647 980.705 764.237 992.076 735.287 997.106C732.096 997.66 729.141 998.224 726.366 998.755C707.793 1002.3 697.264 1004.31 677.707 991.316C671.947 986.787 670.436 985.345 665.727 979.776C666.123 978.948 666.513 978.128 666.9 977.315C669.869 971.074 672.636 965.259 676.467 959.296C678.305 959.998 680.886 961.037 683.967 962.277L683.975 962.28L683.976 962.28C700.513 968.935 731.439 981.379 739.177 978.725C742.147 975.587 741.486 950.384 741.154 937.719C741.091 935.332 741.04 933.39 741.027 932.126C742.483 932.132 744.635 932.191 747.253 932.262H747.254C761.594 932.652 789.924 933.424 794.577 928.056C795.628 921.558 792.477 912.151 789.963 904.648ZM283.418 957.008C282.362 951.613 281.346 946.425 279.157 939.806C296.317 941.206 296.377 959.836 294.187 972.716C293.246 972.899 291.932 972.904 290.799 972.909H290.798C290.61 972.91 290.427 972.911 290.251 972.913C290.157 972.913 290.066 972.914 289.977 972.916C289.747 972.792 289.512 972.673 289.278 972.555L289.273 972.553C287.959 971.889 286.651 971.228 286.227 969.636C284.965 964.906 284.181 960.903 283.418 957.008ZM261.547 960.496C259.419 957.601 257.684 943.164 256.486 933.201C256.108 930.055 255.783 927.355 255.517 925.605C269.646 929.386 270.587 949.186 268.217 960.966C264.487 961.911 264.437 961.887 261.679 960.56L261.547 960.496ZM726.557 617.071C728.065 616.648 729.633 616.197 731.236 615.737C737.301 613.995 743.862 612.11 749.597 611.007C750.047 613.055 750.595 616.161 751.232 619.767C753.283 631.383 756.249 648.184 759.797 651.506C766.562 654.495 778.862 648.926 787.347 645.084C788.934 644.366 790.388 643.708 791.646 643.178C770.357 677.511 748.836 711.704 727.097 745.751C725.35 748.539 723.554 751.376 721.736 754.247C714.335 765.937 706.573 778.197 700.287 790.048C699.09 792.307 698.462 796.897 697.876 801.172C697.42 804.504 696.99 807.645 696.337 809.342C695.066 818.127 688.287 844.365 681.787 849.225C678.648 854.375 676.947 857.106 673.127 861.706C669.356 866.106 658.677 873.506 652.747 873.916L652.697 872.286C653.09 871.685 653.516 871.021 653.966 870.32C656.171 866.885 658.952 862.551 661.277 860.225C661.097 855.456 660.996 853.476 656.657 851.286C651.998 852.009 647.341 858.015 642.642 864.075C638.699 869.16 634.726 874.284 630.697 876.355C626.437 878.545 612.828 883.594 609.337 878.355C616.217 871.966 633.675 854.946 632.297 844.796C626.597 838.095 619.246 846.751 614.858 851.918C614.381 852.48 613.938 853.001 613.537 853.456C594.927 874.595 572.046 888.164 550.887 860.935C561.816 856.416 570.447 853.795 581.146 850.596C592.136 847.306 607.456 817.266 612.687 806.902C614.446 803.418 614.416 801.321 613.037 798.04C608.526 794.882 599.077 797.46 589.044 800.197C572.568 804.692 554.516 809.616 554.167 790.276C554.036 783.289 562.537 781.844 570.336 780.519C573.855 779.921 577.232 779.347 579.607 778.3C586.904 775.08 593.309 770.401 599.952 765.548C600.564 765.101 601.179 764.652 601.797 764.203C602.182 763.922 602.569 763.641 602.957 763.36C611.217 757.105 618.437 755.181 628.646 755.036L629.377 754.994C631.622 754.584 636.934 754.371 640.647 754.221C641.598 754.183 642.445 754.149 643.107 754.117C646.799 749.998 650.263 744.151 653.343 738.951C653.967 737.897 654.576 736.87 655.167 735.89L698.527 662.719C699.815 660.526 701.333 657.901 703 655.016L703.001 655.015C710.176 642.604 720.13 625.384 726.557 617.071ZM151.297 851.346C166.687 850.076 190.387 856.416 200.437 870.286C201.384 871.58 200.895 872.655 200.354 873.843C200.284 873.995 200.214 874.149 200.146 874.306C199.894 874.503 199.659 874.69 199.436 874.866C196.9 876.87 196.06 877.534 192.577 878.416C190.606 877.276 188.533 875.983 186.4 874.652L186.399 874.651C180.298 870.844 173.713 866.736 167.667 865.076C164.618 864.24 161.324 864.435 158.045 864.63C153.25 864.914 148.486 865.197 144.566 862.246C141.907 856.066 146.167 853.665 151.297 851.346ZM450.507 586.37C453.623 585.216 469.311 540.621 481.403 506.249L481.403 506.247C487.745 488.221 493.097 473.008 495.127 468.348C495.178 475.747 495.305 483.797 495.437 492.133V492.135C495.796 514.898 496.189 539.798 495.157 559.438C496.285 580.037 495.971 602.781 495.673 624.291C495.604 629.281 495.536 634.204 495.487 639.018C495.169 670.044 495.408 701.182 495.646 732.328V732.333C495.955 772.631 496.264 812.941 495.367 853.035C487.657 851.095 479.937 849.206 472.207 847.376C389.777 825.066 307.227 803.183 224.567 781.724C212.888 778.686 200.21 775.097 187.236 771.425C162.534 764.432 136.762 757.137 114.777 752.767C114.75 746.896 114.838 740.897 114.926 734.936C114.967 732.12 115.008 729.313 115.037 726.532C130.896 718.152 136.267 712.609 133.987 693.803C145.267 682.635 146.076 676.735 144.437 661.478C157.046 645.987 157.066 634.037 145.997 617.724C157.557 587.674 138.587 577.321 114.407 568.11C114.547 548.049 114.547 527.986 114.417 507.925L341.127 561.892C352.434 564.594 363.734 567.432 375.04 570.272L375.042 570.272C395.842 575.496 416.662 580.726 437.587 585.12C437.922 585.19 438.298 585.273 438.708 585.362C442.129 586.109 447.845 587.356 450.507 586.37ZM789.387 683.897C794.746 676.437 801.067 666.364 805.837 658.395C808.784 662.903 810.76 666.989 813.031 671.682L813.043 671.709C813.303 672.246 813.567 672.792 813.837 673.347C813.509 681.545 812.198 691.033 810.876 700.596C809.821 708.233 808.759 715.918 808.187 723.031C805.397 757.797 802.537 796.757 802.727 831.605C797.628 827.409 792.478 822.86 787.32 818.304C781.503 813.164 775.674 808.016 769.896 803.353C768.646 802.34 766.477 802.283 764.887 802.337C758.357 805.198 745.207 830.415 741.337 837.935C739.848 835.712 738.216 833.311 736.516 830.809C730.714 822.271 724.112 812.557 719.657 804.719C719.589 804.593 719.523 804.473 719.46 804.357L719.366 804.185C718.081 801.841 717.9 801.51 717.807 798.577C720.554 794.049 731.364 790.596 738.988 788.16C740.66 787.626 742.18 787.141 743.427 786.704C745.748 785.752 754.599 782.5 763.627 779.184L763.629 779.183C774.539 775.176 785.706 771.073 785.927 770.816C790.139 765.406 789.688 726.107 789.408 701.812V701.809C789.31 693.291 789.234 686.617 789.387 683.897ZM113.396 707.445C101.287 711.059 77.8311 707.975 80.7275 691.101C83.2707 691.818 86.963 692.568 91.0043 693.39C100.644 695.35 112.268 697.713 115.017 700.976C115.351 704.022 115.141 704.389 113.738 706.846L113.735 706.851C113.629 707.037 113.516 707.234 113.396 707.445ZM121.387 679.503C108.316 685.966 64.13 674.32 73.4756 654.481C76.7987 655.477 80.326 656.907 83.8951 658.355C88.117 660.067 92.3973 661.802 96.4668 662.87C99.8089 663.745 103.896 664.057 108.046 664.374C113.656 664.802 119.381 665.239 123.537 667.089C127.864 672.261 125.614 674.777 121.616 679.247L121.387 679.503ZM129.967 648.235C122.167 651.994 110.657 650.804 102.667 648.114L101.883 647.851C83.6933 641.735 64.6085 635.319 71.0547 612.486C74.8908 614.177 78.3518 616.069 81.8067 617.958C87.871 621.274 93.9161 624.579 101.937 626.764C105.131 627.634 109.897 627.95 114.743 628.271C121.776 628.738 128.977 629.216 131.777 631.414C133.697 632.907 134.867 635.162 134.987 637.59C135.175 642.171 132.796 644.941 130.036 648.155L129.967 648.235ZM813.707 490.145C822.877 489.286 834.237 502.564 837.977 510.049C855.56 545.257 838.34 601.653 826.354 640.904L826.35 640.917C825.326 644.272 824.34 647.502 823.417 650.582C819.767 638.572 815.156 625.33 809.217 614.286C801.876 617.08 794.379 620.116 786.943 623.128L786.939 623.129C783.052 624.703 779.181 626.271 775.357 627.794L773.817 627.737C772.79 626.309 770.87 617.796 768.856 608.866C767.045 600.842 765.159 592.48 763.777 588.621C753.142 589.166 737.592 593.249 725.877 596.325C724.539 596.676 723.252 597.014 722.027 597.332C725.641 591.06 729.187 584.755 732.731 578.453L732.736 578.445L732.737 578.443C740.576 564.503 748.411 550.571 756.977 537.009L757.18 536.686L757.182 536.683C760.992 530.637 765.048 524.2 768.447 517.955C768.209 514.745 767.609 513.983 766.126 512.098C765.68 511.532 765.156 510.865 764.537 510.001C763.904 504.44 769.666 502.717 774.481 501.278C774.681 501.218 774.88 501.159 775.077 501.099C785.269 498.036 795.627 495.163 805.916 492.31L805.917 492.309C808.52 491.588 811.117 490.867 813.707 490.145ZM117.026 612.813C90.0565 609.387 50.0879 586.166 89.9365 563.616L92.9971 564.133C93.8511 565.791 93.6419 568.215 93.428 570.694C93.1214 574.248 92.8049 577.916 95.5967 579.603C97.525 580.77 100.989 582.082 105.01 583.606C117.838 588.467 136.335 595.476 128.707 606.738C125.617 611.289 122.226 612.14 117.026 612.813ZM739.527 455.866C742.63 455.31 745.588 454.792 748.413 454.298C790.408 446.945 802.954 444.748 823.567 400.351C835.977 407.506 839.057 409.16 853.247 410.077C857.069 413.59 867.396 426.485 875.229 436.267L875.23 436.269L875.236 436.276C878.408 440.237 881.171 443.688 882.927 445.796C854.35 453.577 822.417 463.962 791.368 474.06L791.365 474.061C774.38 479.585 757.659 485.022 741.896 489.901C708.687 499.958 675.556 510.281 642.517 520.87C637.678 522.38 632.625 523.887 627.506 525.414L627.499 525.417C616.288 528.761 604.757 532.201 594.447 535.974C588.752 529.12 582.444 520.271 576.331 511.694L576.327 511.689C572.771 506.701 569.282 501.805 566.017 497.448C550.887 476.085 535.527 454.885 519.947 433.854C532.032 431.851 547.851 426.849 563.393 421.935C574.626 418.384 585.715 414.878 595.146 412.582C595.756 414.909 596.457 417.214 597.237 419.493C602.327 434.15 611.667 441.943 625.847 448.251C648.686 458.412 681.547 472.746 706.646 466.547C711.515 465.482 716.939 463.416 722.361 461.351C728.332 459.076 734.302 456.802 739.527 455.866ZM28.4053 442.506C54.201 411.214 80.1709 380.064 106.307 349.059C121.847 351.861 138.399 355.788 154.811 359.682C165.7 362.265 176.527 364.834 186.957 367.05C211.187 372.201 235.387 377.528 259.537 383.033C262.861 383.777 266.254 384.515 269.683 385.26C282.181 387.976 295.15 390.794 306.937 394.417C306.915 395.881 306.85 397.411 306.783 398.975C306.469 406.31 306.123 414.38 310.187 419.83C316.279 422.773 319.949 418.292 323.548 413.899C323.954 413.404 324.359 412.909 324.767 412.427C326.706 411.881 328.657 411.362 330.606 410.871C340.208 415.303 336.888 429.51 333.583 443.654C330.854 455.333 328.135 466.968 332.707 473.023C333.858 474.864 336.977 477.318 339.387 477.252C355.644 476.806 354.037 460.32 352.652 446.108C352.082 440.257 351.55 434.791 352.316 430.988C354.966 417.83 356.437 415.366 365.856 407.932C373.406 408.287 391.427 412.611 403.364 415.474C406.02 416.111 408.376 416.676 410.247 417.109L487.347 434.742C475.261 449.246 459.56 471.453 445.797 490.918C440.669 498.171 435.81 505.044 431.507 510.996C430.835 511.933 430.155 512.892 429.465 513.864C426.016 518.726 422.345 523.902 418.486 528.114C418.057 529.122 415.557 532.436 414.12 534.341C413.809 534.754 413.547 535.101 413.367 535.344C401.418 531.876 387.342 528.615 373.909 525.502L373.9 525.5C367.967 524.126 362.16 522.78 356.717 521.459C320.837 512.612 284.907 503.952 248.927 495.48L28.4053 442.506ZM649.817 147.121C652.715 144.27 655.448 141.169 658.16 138.093C668.955 125.848 679.399 114.001 698.396 119.896C699.457 120.35 700.332 120.673 701.081 120.95C703.464 121.831 704.584 122.245 706.387 124.888C704.836 131.504 696.627 133.505 690.657 134.467C690.099 134.71 689.555 134.937 689.026 135.158C685.802 136.501 683.144 137.608 681.357 140.874C680.654 145.358 683.289 146.245 686.465 147.315C689.654 148.39 693.389 149.648 694.837 154.918C694.097 159.19 691.887 161.983 690.014 164.348C687.834 167.103 686.11 169.279 687.697 172.541C694.657 174.077 702.327 166.769 703.957 160.164C704.494 157.972 704.182 155.542 703.874 153.141C703.357 149.106 702.849 145.15 706.396 142.538C716.596 136.012 728.857 135.655 739.967 137.238C740.587 137.328 741.207 137.425 741.817 137.531C736.127 143.437 727.657 153.687 726.767 162.11C733.579 176.75 797.556 161.05 811.257 157.032C810.582 159.059 809.453 162.056 808.21 165.352C805.619 172.224 802.536 180.402 802.057 183.831C807.808 194.87 839.066 178.249 846.297 173.267C846.472 174.666 846.64 175.987 846.8 177.243C848.563 191.099 849.319 197.048 847.807 212.388C831.353 234.372 833.374 238.509 840.666 253.432C842.352 256.883 844.32 260.912 846.407 265.871C847.101 267.519 846.841 270.816 846.548 274.521C846.179 279.193 845.759 284.513 847.137 287.991L848.787 288.397C853.637 284.492 855.097 276.641 855.967 270.661C857.275 261.722 852.559 250.806 848.768 242.028C848.357 241.078 847.957 240.152 847.577 239.257C849.387 232.683 851.867 225.293 856.437 220.052L858.777 220.326C860.711 224.373 860.472 229.691 860.253 234.603C860.206 235.635 860.161 236.649 860.137 237.629C867.217 244.428 872.488 248.892 878.783 254.222L878.784 254.223C880.926 256.037 883.186 257.951 885.677 260.092C881.167 280.745 875.496 291.721 865.727 310.236C855.336 312.256 833.327 318.856 839.667 333.544L841.547 334.399L842.031 334.217C858.065 328.179 880.623 319.684 888.177 343.168C891.366 353.156 890.427 364.008 885.547 373.291C881.267 381.516 873.816 387.643 864.927 390.253C844.249 396.38 834.179 384.838 827.52 377.206C824.721 373.997 822.524 371.48 820.396 371.257C815.763 373.592 811.518 382.311 806.659 392.29C799.688 406.606 791.453 423.517 778.997 427.904C768.726 431.522 759.137 432.963 749.764 434.372C736.688 436.337 724.033 438.239 710.537 445.899C698.287 452.853 675.797 447.24 663.557 443.265C661.741 442.585 659.682 441.856 657.46 441.07C642.969 435.941 621.596 428.377 616.167 416.298C613.269 409.871 612.665 404.367 611.936 397.723C611.852 396.962 611.767 396.186 611.677 395.391C603.097 389.08 596.087 383.151 594.837 371.755C593.632 360.826 596.673 347.507 599.522 335.032L599.522 335.03C600.882 329.072 602.199 323.307 602.987 318.088L611.177 325.541C610.813 328.224 610.392 330.954 609.968 333.708C607.136 352.082 604.131 371.579 616.697 386.186C648.567 423.222 717.037 439.175 749.867 394.436C751.162 392.675 752.815 389.874 754.643 386.779C758.745 379.831 763.724 371.398 767.487 369.904C771.061 371.934 770.48 375.201 769.839 378.814C769.714 379.517 769.587 380.233 769.487 380.956C769.29 381.779 769.047 382.691 768.788 383.66C767.427 388.75 765.642 395.431 767.977 399.208C771.606 398.892 774.507 392.378 775.447 389.125C779.567 381.667 781.597 376.948 784.807 369.167C795.566 364.937 807.927 357.75 812.447 345.505C812.89 344.309 812.062 343.356 811.3 342.479C811.226 342.393 811.152 342.309 811.08 342.225C811.025 342.159 810.97 342.094 810.917 342.029C810.796 341.984 810.611 341.909 810.385 341.818C809.24 341.356 807.029 340.464 806.637 340.742C774.807 363.373 764.576 357.387 730.957 336.464C734.257 343.787 735.457 345.824 740.137 352.423C706.567 350.215 657.317 331.72 627.137 317.319C625.002 316.074 622.501 314.762 619.835 313.364C609.316 307.847 596.22 300.98 592.837 291.48C590.997 286.299 588.627 273.163 594.637 271.293C598 272.534 600.447 274.612 602.94 276.729C604.361 277.936 605.797 279.155 607.427 280.24C629.336 294.819 658.547 285.598 673.097 265.914C681.896 254.029 685.497 239.085 683.077 224.497C680.857 210.468 673.007 197.95 661.357 189.833C647.278 179.841 632.907 180.497 616.737 183.191C630.894 160.861 636.889 160.993 659.224 161.486C660.807 161.52 662.471 161.557 664.227 161.588C664.684 161.346 665.026 161.181 665.286 161.055C665.714 160.849 665.922 160.748 666.06 160.588C666.19 160.436 666.257 160.231 666.389 159.833C666.495 159.512 666.642 159.065 666.896 158.42C665.57 154.686 659.53 151.824 654.344 149.367C652.687 148.582 651.118 147.838 649.817 147.121ZM419.087 398.388C441.167 342.129 485.387 309.936 546.037 306.221L538.877 342.712C547.027 338.177 554.597 333.95 562.517 328.992C560.516 353.881 547.296 388.048 529.977 406.72C519.697 417.808 501.836 416.141 488.767 413.681C489.062 412.773 489.398 411.828 489.744 410.857C491.554 405.772 493.609 399.996 491.217 395.409C485.691 393.993 481.306 401.604 478.353 406.729C477.896 407.522 477.474 408.255 477.087 408.887C469.407 407.546 463.917 406.426 456.317 404.462L462.197 397.739C462.875 397.235 463.659 396.679 464.506 396.079C469.904 392.252 477.88 386.597 477.587 380.69L475.787 379.344C467.927 379.091 460.537 384.48 454.977 389.657C451.234 392.342 446.655 397.873 443.276 401.953C442.908 402.397 442.554 402.825 442.217 403.229L419.087 398.388ZM661.896 383.117C666.296 382.918 676.837 382.619 680.027 385.623C679.04 387.125 677.902 388.363 676.844 389.514C675.171 391.336 673.698 392.939 673.337 395.022C676.925 396.469 682.082 394.503 687.728 392.35C695.929 389.222 705.162 385.701 712.127 391.67C712.977 392.401 714.079 393.149 715.249 393.944C718.262 395.99 721.724 398.342 722.487 401.484L719.646 403.14C715.447 404.738 711.097 405.919 706.667 406.663C694.627 408.753 649.019 404.925 647.827 391.554C650.418 387.218 654.629 385.721 659.313 384.056C660.161 383.754 661.024 383.447 661.896 383.117ZM317.027 373.919C321.347 370.945 325.687 367.996 330.047 365.074C333.96 367.307 338.337 373.942 341.454 378.666C341.937 379.399 342.39 380.086 342.807 380.703L333.807 378.588L317.027 373.919ZM719.977 374.37C705.787 380.155 697.838 372.05 700.607 357.438C703.084 358.409 706.103 358.868 709.131 359.328C715.21 360.251 721.328 361.18 723.177 366.274C722.367 370.343 722.166 370.847 719.977 374.37ZM399.837 356.546C409.007 347.376 424.707 342.724 437.037 340.323L438.067 341.16C436.914 343.016 434.967 345.343 433.091 347.585C431.944 348.957 430.823 350.297 429.927 351.477C424.907 358.114 421.127 364.147 417.057 371.409L409.597 364.502L399.837 356.546ZM303.507 227.12C322.397 226.369 329.527 232.92 342.627 245.11C370.797 245.212 378.297 256.345 388.337 279.771C380.077 279.199 372.996 278.99 364.736 278.885C360.376 271.515 346.716 251.638 337.526 261.903C336.953 267.196 341.03 270.689 345.24 274.298C348.587 277.166 352.018 280.106 353.267 284.079C354.016 285.476 353.79 290.365 353.562 295.28C353.313 300.655 353.063 306.059 354.087 306.956C365.371 316.846 366.063 294.464 366.173 290.884L366.177 290.772C395.507 294.401 407.627 301.891 404.927 333.898C401.662 337.383 395.744 342.216 391.084 346.022C389.993 346.913 388.97 347.749 388.066 348.497L386.927 348.249C388.457 339.251 389.207 325.106 380.137 319.715C379.487 319.68 379.015 319.64 378.657 319.61C378.07 319.561 377.786 319.538 377.525 319.601C377.281 319.66 377.056 319.795 376.621 320.055C376.271 320.264 375.786 320.553 375.047 320.95C373.399 324.28 373.5 329.345 373.606 334.635C373.878 348.246 374.18 363.339 344.776 354.141C322.987 347.568 317.142 351.987 308.132 358.8C303.708 362.145 298.52 366.067 290.307 369.549C274.68 366.921 251.249 361.274 230.838 356.355C222.644 354.38 214.937 352.523 208.417 351.025C208.218 350.804 208.021 350.582 207.824 350.361L207.665 350.182L207.413 349.9L207.282 349.752L207.085 349.532C207.033 349.474 206.981 349.416 206.929 349.357L206.837 349.255C203.837 338.048 210.417 323.743 219.077 316.543C227.484 309.563 235.353 310.721 244.355 312.046C246.531 312.366 248.774 312.696 251.106 312.923C253.134 313.121 254.416 311.756 255.681 310.409C255.945 310.128 256.208 309.849 256.477 309.584C258.707 299.535 237.167 297.734 230.307 297.541L229.287 297.519C224.047 289.928 230.337 279.378 235.167 273.084C245.727 259.303 263.727 247.866 281.537 253.782C284.428 254.742 287.123 256.871 289.862 259.035C294.143 262.417 298.532 265.885 303.947 265.105C307.527 260.854 306.837 257.966 303.467 253.716C296.197 244.536 284.666 241.819 273.606 240.405C282.376 233.306 290.077 229.958 300.856 227.259C301.736 227.202 302.617 227.156 303.507 227.12ZM642.667 356.473C623.867 352.147 624.527 347.703 628.816 331.405C637.616 335.714 642.797 338.123 652.057 341.38C649.837 346.943 648.336 350.155 645.526 355.444C644.918 355.8 644.079 356.05 643.302 356.28L643.301 356.28C643.082 356.345 642.869 356.409 642.667 356.473ZM128.637 236.075C135.227 234.566 140.827 233.344 147.507 232.269C148.199 234.584 149.487 236.778 150.719 238.878C152.743 242.328 154.616 245.519 153.447 248.558L150.857 250.681C139.808 261.325 133.687 273.738 133.347 289.112C120.873 302.635 120.3 305.019 118.8 311.265C118.091 314.217 117.175 318.032 114.697 324.293L114.513 324.354C109.926 325.863 107.239 326.747 103.657 323.068C94.8662 314.018 86.4266 304.641 77.9852 295.262L77.9844 295.261C76.9872 294.153 75.99 293.045 74.9922 291.937C62.8452 278.646 50.5894 265.452 38.2295 252.357C51.0083 250.631 65.4294 247.641 79.8732 244.647C96.995 241.097 114.149 237.541 128.637 236.075ZM410.3 257.872L410.3 257.87C411.764 245.401 413.227 232.93 414.377 220.412C429.641 225.008 445.753 229.361 461.616 233.647L461.619 233.648C468.557 235.522 475.446 237.384 482.197 239.247C481.586 241.966 481.06 245.858 480.464 250.272C478.604 264.048 476.057 282.911 468.067 287.059C449.668 284.76 431.697 286.356 415.237 295.457C412.367 292.241 409.866 289.221 407.146 285.886C408.11 276.536 409.205 267.205 410.3 257.872ZM626.437 196.343C647.016 193.045 666.366 207.036 669.687 227.604C673.006 248.173 659.046 267.546 638.477 270.892C617.877 274.245 598.467 260.249 595.137 239.645C591.807 219.041 605.827 199.646 626.437 196.343ZM405.377 201.092C406.597 193.982 407.727 186.856 408.767 179.716C416.975 181.225 436.301 187.089 450.048 191.261L450.052 191.262C453.989 192.457 457.468 193.512 460.097 194.287C490.397 203.364 520.827 211.987 551.387 220.156C548.981 225.309 547.337 230.104 545.536 235.357C545.368 235.848 545.199 236.342 545.027 236.841C544.998 236.94 544.971 237.031 544.947 237.114C544.793 237.636 544.732 237.846 544.601 237.995C544.513 238.095 544.394 238.168 544.195 238.289C543.959 238.433 543.61 238.646 543.067 239.055C539.694 238.926 535.595 237.566 531.884 236.335C530.611 235.912 529.384 235.505 528.247 235.168C508.888 229.433 489.349 224.23 469.81 219.028C448.25 213.287 426.691 207.547 405.377 201.092ZM126.507 104.555C132.487 85.0018 156.587 82.6478 166.677 98.5136C171.402 110.034 165.613 121.451 160.675 131.188C159.751 133.011 158.856 134.776 158.066 136.471C154.914 143.227 161.477 154.973 166.749 164.407C168.8 168.078 170.656 171.399 171.667 173.939C175.86 180.117 180.107 188.721 183.809 196.221L183.81 196.222C184.584 197.792 185.335 199.312 186.057 200.753C189.156 206.116 191.879 211.754 194.584 217.356L194.591 217.369C195.096 218.415 195.6 219.46 196.106 220.501C191.517 224.408 188.604 228.324 185.213 232.881C184.711 233.557 184.198 234.246 183.667 234.952C179.632 236.098 175.917 236.753 171.884 237.463C171.626 237.508 171.367 237.554 171.106 237.6C170.888 237.639 170.668 237.677 170.447 237.717C163.02 226.073 156.667 213.464 150.303 200.833C144.191 188.704 138.07 176.555 130.977 165.22C124.73 155.237 115.897 155.087 107.206 154.94C98.9093 154.799 90.7423 154.66 85.0771 145.974C78.8412 136.408 82.0371 118.87 93.417 113.667C103.038 109.268 110.339 111.749 119.181 114.753L119.182 114.753C120.496 115.199 121.843 115.657 123.236 116.105C124.276 112.24 125.367 108.388 126.507 104.555ZM314.267 104.787C334.597 88.3597 330.301 76.5669 323.618 58.2241C322.389 54.8502 321.079 51.2547 319.827 47.368C355.247 57.3202 363.246 95.5668 344.646 124.34C343.056 126.79 338.388 137.773 339.067 140.525C344.454 162.342 351.916 183.762 359.355 205.118L359.355 205.119C362.411 213.894 365.464 222.657 368.367 231.432C364.584 229.891 360.629 229.007 356.642 228.115L356.637 228.114C355.914 227.952 355.191 227.79 354.467 227.624C348.177 210.501 342.647 193.8 337.087 176.441L336.965 176.059C335.105 170.248 333.199 164.29 327.817 161.607C326.975 161.561 326.367 161.505 325.904 161.463C325.207 161.399 324.841 161.365 324.5 161.442C324.123 161.528 323.777 161.749 323.049 162.214C322.732 162.417 322.343 162.665 321.847 162.97C318.41 169.515 324.149 186.008 328.21 197.675C329.229 200.603 330.142 203.226 330.777 205.312L334.427 214.396L319.667 209.134C317.536 203.718 315.278 196.333 312.88 188.492C308.348 173.67 303.318 157.22 297.707 149.371C294.857 147.976 291.748 146.795 288.645 145.616C285.945 144.59 283.25 143.567 280.737 142.406C262.987 134.217 250.337 118.703 250.167 98.5741C250.057 86.3146 253.297 78.5754 258.717 67.6669C259.785 70.4116 261.073 74.1001 262.482 78.1354L262.482 78.1364C265.832 87.7329 269.867 99.2897 273.267 104.774C283.757 108.132 295.277 109.986 306.137 111.696C308.52 110.268 309.944 108.86 311.402 107.42C312.274 106.557 313.158 105.683 314.267 104.787ZM514.077 146.894C533.547 113.773 555.347 108.819 591.677 118.397C575.797 143.65 565.087 158.371 532.867 159.15C532.232 159.143 531.584 159.148 530.93 159.153C527.905 159.178 524.756 159.205 522.257 157.949C523.004 156.018 523.874 155.528 525.497 154.613C526.046 154.303 526.681 153.945 527.427 153.466C532.615 149.681 541.37 145.067 548.383 141.372C549.912 140.566 551.359 139.804 552.667 139.103C558.087 136.078 558.167 135.928 559.317 130.095C549.32 127.181 529.315 138.38 517.804 144.823L517.8 144.825C516.428 145.593 515.177 146.293 514.077 146.894ZM455.638 134.08C431.498 115.476 426.897 91.3797 430.167 62.2147C432.167 63.1077 434.158 64.0145 436.147 64.9354C459.157 75.6293 470.097 84.3448 478.747 107.893C479.857 117.419 480.357 124.835 479.728 134.555L470.277 115.877C469.966 115.364 469.612 114.771 469.222 114.116C465.272 107.492 457.53 94.5091 451.287 93.5468C448.46 97.6933 453.292 107.385 457.085 114.993C458.658 118.148 460.052 120.944 460.647 122.838C463.834 129.151 465.888 134.549 468.331 140.971C468.495 141.401 468.66 141.835 468.827 142.274C468.158 141.893 467.455 141.499 466.731 141.093C462.966 138.982 458.64 136.557 455.638 134.08ZM520.977 67.9794C526.947 29.9834 545.787 19.3955 582.327 14.5165C582.53 14.5053 582.695 14.4934 582.832 14.4836C583.196 14.4574 583.357 14.4459 583.492 14.5003C583.599 14.5435 583.689 14.6284 583.85 14.7808C584.028 14.9492 584.294 15.2001 584.767 15.5682C584.537 24.6701 580.947 38.1203 576.577 46.2333C565.317 67.1388 550.449 71.6334 529.646 77.9221L529.537 77.955C534.704 70.003 540.132 63.8466 545.447 57.8182C549.936 52.7268 554.345 47.7267 558.447 41.8134C558.105 40.4673 557.984 40.2999 557.494 39.6218C557.326 39.3895 557.115 39.0974 556.837 38.6776L554.157 38.3456C545.254 41.3656 531.947 55.9609 523.833 64.8609C522.788 66.0072 521.829 67.059 520.977 67.9794Z" fill="#020303"/>
</svg>
