<svg width="1888" height="2240" viewBox="0 0 1888 2240" fill="none" xmlns="http://www.w3.org/2000/svg">
<g clip-path="url(#clip0_2154_101)">
<path d="M859.364 926.454C873.411 928.516 903.846 946.694 915.233 957.392C920.08 961.947 936.108 977.119 940.75 977.908C961.825 981.488 973.453 964.577 996.204 978.707C1009.36 986.876 1029.21 1003.42 1035.99 1021.16C1037.05 1023.92 1035.49 1026.12 1034.39 1028.29C1021.08 1025.74 998.388 1001.49 982.284 998.314C966.671 994.387 945.002 1009.77 929.91 999.816C905.655 983.81 885.407 954.672 860.739 937.635C857.415 935.339 856.901 930.259 859.364 926.454Z" fill="#1F1F1F"/>
<path d="M809.976 377.682C827.589 380.443 829.997 435.173 831.212 451.778C843.635 470.732 860.543 471.91 868.831 492.982C874.614 507.682 871.645 537.484 866.743 552.579C865.196 554.799 865.728 554.116 863.625 555.737C854.604 554.665 852.463 516.545 849.632 505.928C844.535 486.807 810.479 475.086 809.599 457.736C808.352 433.157 808.383 402.117 809.976 377.682Z" fill="#1F1F1F"/>
<path d="M575.732 1266.99C580.086 1266.62 584.324 1265.22 587.45 1269.19C586.235 1279.6 557.694 1292.27 549.481 1302.77C547.559 1311.3 546.618 1319.53 543.09 1327.22C534.872 1345.14 516.254 1351.91 500.818 1357.25C496.326 1358.65 493.825 1360.36 489.852 1357.26L489.618 1354.6C495.192 1342.07 512.419 1333.23 521.753 1321.56L522.631 1320.44C524.362 1309.03 524.763 1297.92 531.268 1288.77C541.963 1273.73 560.162 1268.92 575.732 1266.99Z" fill="#1F1F1F"/>
<path d="M1178.14 425.872C1203.66 423.996 1211.51 456.118 1185.33 464.584C1159.71 465.478 1154.01 432.724 1178.14 425.872Z" fill="#1F1F1F"/>
<path d="M1646.82 654.501C1660.18 653.976 1673.26 657.197 1684.81 665.553C1687.99 667.856 1692.23 671.966 1692.57 676.674C1692.82 680.041 1691.86 681.944 1690.16 684.563C1684.53 693.193 1667.56 673.98 1658.73 676.578C1648.16 679.688 1662.32 697.167 1653.83 713.498C1648.63 718.139 1632.03 730.249 1626.8 722.987C1626.75 715.308 1633.53 709.497 1634.99 700.148C1633.47 689.855 1616.31 684.685 1615.75 674.159C1619.52 666.14 1638.91 658.292 1646.82 654.501Z" fill="#1F1F1F"/>
<path d="M1489.85 516.309C1517.31 514.428 1525.45 548.927 1498.67 557.608C1489.68 558.772 1479.12 555.453 1475.19 544.782C1473.44 540.105 1473.41 534.77 1475.12 530.067C1478.1 521.702 1483.35 519.398 1489.85 516.309Z" fill="#1F1F1F"/>
<path fill-rule="evenodd" clip-rule="evenodd" d="M1456.56 412.933C1489.87 410.379 1520.15 418.305 1546.81 443.159C1605.19 497.581 1589.45 592.148 1523.93 627.009C1507.76 635.611 1497.66 638.422 1479.83 640.788C1448.02 643.433 1417.84 634.628 1391.99 611.822C1352.19 576.712 1340.27 512.711 1372.19 465.06C1394.28 432.088 1421.91 418.178 1456.56 412.933ZM1479.83 611.105C1591.38 593.37 1569.98 429.453 1456.43 441.173C1432.02 445.778 1409.62 457.947 1394.78 482.337C1384.74 498.74 1380.68 519.249 1383.53 539.24C1390.86 590.085 1439.77 616.81 1479.83 611.105Z" fill="#1F1F1F"/>
<path d="M1305.56 529.55C1330.15 527.859 1336.01 549.465 1337.41 574.714C1338.21 589.158 1334.69 618.104 1315.92 612.177C1309.17 610.047 1304.47 598.469 1301.64 591.192C1301.42 590.51 1300.29 589.153 1299.81 588.507C1290.47 584.126 1271.13 604.889 1261.96 593.567C1253.81 571.566 1292.98 538.899 1305.56 529.55Z" fill="#1F1F1F"/>
<path fill-rule="evenodd" clip-rule="evenodd" d="M606.583 2.2562L606.594 2.25928C630.988 8.90422 672.358 20.1738 689.04 28.8604C699.885 34.5074 712.429 53.5552 724.805 72.3469C733.258 85.1822 741.633 97.8981 749.333 106.143C761.034 118.67 773.872 129.304 786.593 139.842C809.518 158.832 832.065 177.508 846.899 206.388C859.573 231.059 865.158 258.389 870.778 285.896C872.067 292.205 873.358 298.523 874.737 304.82C879.426 326.195 885.033 347.273 891.536 367.969C899.221 392.674 908.437 416.281 917.686 439.97C923.183 454.05 928.692 468.159 933.896 482.545C936.945 490.972 939.016 500.377 941.094 509.813C943.751 521.876 946.418 533.99 951.154 544.174C956.342 553.01 988.387 575.32 997.212 580.697C1011.49 554.093 1022.7 562.2 1038.28 573.466L1038.28 573.467C1041.74 575.972 1045.42 578.632 1049.39 581.102C1057.32 586.028 1065.89 592.449 1074.65 599.005C1088.34 609.26 1102.48 619.849 1115.3 625.582C1118.25 618.12 1118.94 615.929 1120.63 607.951C1118.24 604.05 1115.78 600.316 1113.36 596.638C1101.83 579.154 1091.15 562.962 1093.65 536.257C1095.24 519.2 1105.51 503.061 1114.34 489.191C1115.16 487.9 1115.97 486.629 1116.76 485.379C1112 459.584 1111.1 447.073 1116.21 421.11C1118.41 409.903 1127.52 397.479 1134.92 387.392C1140.01 380.452 1144.28 374.618 1144.94 371.05C1153.36 325.103 1158.28 307.54 1200.22 286.403C1214.87 260.052 1227.81 241.438 1250.09 223.181C1253.14 220.679 1257.05 217.838 1260.96 214.995C1265.86 211.433 1270.77 207.869 1274 204.965C1252.35 197.251 1239.11 193.827 1216.84 188.686C1262.3 161.731 1300.89 155.453 1351.36 157.674C1346.37 147.532 1331.96 116.909 1342.68 107.868C1349.87 110.502 1357.52 116.846 1364.7 122.787C1368.01 125.532 1371.22 128.192 1374.23 130.359C1384.32 137.616 1399.61 146.956 1410.99 150.489C1425.16 154.888 1440.23 157.46 1455.26 160.024C1468.73 162.323 1482.17 164.615 1494.88 168.213C1564.96 188.049 1670.74 238.513 1706.9 315.9L1708.51 319.336C1709.66 318.803 1710.83 318.253 1712.02 317.693C1731.59 308.505 1756.68 296.719 1773.8 316.336C1768.13 325.348 1759.98 330.928 1751.53 336.709C1744.9 341.245 1738.1 345.905 1732.16 352.445C1748.13 355.747 1791.99 368.971 1788.5 398.646C1788.27 400.597 1787.93 400.985 1787.15 401.885C1786.9 402.165 1786.61 402.496 1786.27 402.939C1781.53 404.222 1770.51 400.522 1759.4 396.791C1751.31 394.073 1743.17 391.34 1737.37 390.505C1752.51 444.196 1738 517.183 1717.36 566.28C1711.84 579.419 1705.57 592.094 1698.59 604.216C1717.24 613.949 1730.55 626.445 1738.18 649.826C1745.38 672.345 1744.81 697.325 1736.59 719.349C1726.3 746.271 1702.63 769.007 1679.5 779.152C1656.47 789.26 1629.01 790.641 1605.46 782.053C1598.84 779.639 1592.33 776.161 1585.93 772.736C1583.35 771.357 1580.79 769.986 1578.24 768.696C1572.5 782.602 1563.48 799.155 1556.21 811.943C1592.3 832.441 1626.01 883.448 1639.86 927.051C1669.72 1021.06 1633.05 1118.44 1600.56 1204.73C1598.12 1211.22 1595.7 1217.64 1593.33 1224C1554.31 1328.82 1526.41 1432.88 1521.67 1547.71C1521.55 1550.73 1521.47 1553.84 1521.39 1557C1521.06 1570.36 1520.71 1584.61 1516.84 1596.24C1508.82 1619.29 1486.38 1602.99 1470.18 1591.24C1461.39 1584.86 1454.44 1579.82 1452.65 1583.14C1455.04 1644.3 1511 1696.57 1558.34 1706.85C1609.54 1682.66 1656.98 1719.03 1699.82 1751.86C1706.08 1756.66 1712.25 1761.39 1718.31 1765.84C1720.54 1767.47 1723.17 1769.3 1726.03 1771.28C1740.28 1781.18 1760.4 1795.14 1766.66 1810.24C1777.45 1860.54 1756.89 1919.97 1740.41 1967.61C1739.96 1968.9 1739.52 1970.18 1739.08 1971.45C1738.65 1972.68 1738.23 1973.91 1737.81 1975.13C1735.01 1983.04 1732.09 1989.22 1727.52 1994.63C1718.68 1997.51 1715.52 1997.85 1707.36 1998.74L1707.26 1998.75C1706.63 1998.82 1705.97 1998.89 1705.27 1998.97L1704.68 2000.09C1700.31 2008.65 1696.24 2020.97 1692.35 2032.77L1692.35 2032.77C1690.04 2039.78 1687.79 2046.6 1685.57 2052.35C1659.42 2119.95 1642.36 2159.45 1584.7 2197.26C1540.61 2226.17 1487.72 2232 1455.36 2236C1423 2240 1306.36 2236 1306.36 2236C1274.36 2237.5 1271.44 2215 1268.41 2197.59C1255.88 2125.65 1262.62 2058.77 1318.78 2018.29C1338.24 2004.26 1361.59 1998.04 1383.77 1992.14C1384.84 1991.85 1385.91 1991.57 1386.98 1991.28C1387.73 1991.08 1388.48 1990.88 1389.23 1990.68C1394.67 1978.21 1399.56 1967.29 1405.58 1955.22C1404.68 1955.45 1403.78 1955.66 1402.87 1955.85C1364.69 1963.76 1320.99 1963.19 1285.81 1941.97C1275.29 1935.63 1265.32 1927.35 1255.67 1919.3C1253.65 1922.43 1251.37 1926.77 1248.85 1931.57C1238.1 1952.03 1223.03 1980.72 1205.19 1958.54C1195.11 1945.95 1186.56 1931.23 1178.15 1916.78L1178.15 1916.78C1176.26 1913.52 1174.37 1910.28 1172.48 1907.08C1144.97 1860.55 1120.86 1811.45 1096.75 1762.36L1096.75 1762.36C1079.71 1727.67 1062.68 1692.99 1044.46 1659.23C1014.09 1602.94 969.044 1568.07 915.472 1549.44C847.023 1525.64 774.615 1513.75 703.164 1514.02C687.54 1514.07 671.926 1514.99 656.374 1516.77C654.519 1516.96 652.334 1517.25 649.927 1517.57C636.15 1519.39 615.1 1522.18 607.101 1513.19C596.488 1501.25 589.139 1468.89 587.753 1452.08C579.439 1458.17 570.742 1464.93 562.155 1471.61L562.153 1471.61L562.139 1471.62C556.602 1475.93 551.109 1480.2 545.794 1484.23C543.113 1486.26 539.356 1488.89 535.086 1491.87C521.122 1501.63 501.676 1515.23 496.474 1524.34C495.942 1592.86 431.21 1631.35 387.426 1655.11C384.717 1657.15 381.982 1660.32 379.277 1663.45C376.653 1666.48 374.056 1669.49 371.535 1671.41C369.228 1673.16 366.704 1675.13 364.005 1677.24C343.21 1693.45 312.043 1717.74 290.173 1714.77C222.509 1705.59 176.804 1634.54 143.285 1570.85C142.399 1569.17 141.557 1567.57 140.759 1566.06C132.87 1551.14 129.317 1544.42 129.954 1538.12C130.477 1532.96 133.816 1528.08 139.89 1519.2C141.725 1516.52 143.81 1513.48 146.142 1509.95C139.434 1496.75 122.454 1477.07 109.073 1461.56L109.066 1461.56C105.069 1456.92 101.394 1452.66 98.4102 1449.06C58.2576 1400.6 29.1385 1346.1 10.6201 1281.63C4.87037 1261.61 1.20711 1235.66 -1.63965 1214.87V1172.86C6.38357 1112.2 22.178 1103.87 65.3425 1081.12C67.0351 1080.23 68.7699 1079.31 70.5479 1078.37C76.8961 1075.01 82.8186 1071.53 88.693 1068.08L88.6941 1068.08C99.4518 1061.76 110.048 1055.54 122.801 1050.32C165.86 1032.5 213.169 1036.14 253.929 1060.41C294.455 1083.95 318.456 1125.25 331.517 1175.58C333.255 1182.28 334.652 1189.53 336.047 1196.77C337.833 1206.04 339.617 1215.3 342.11 1223.36C364.262 1234.14 370.074 1240.69 382.405 1264.61L383.524 1265.02C404.352 1272.73 409.296 1274.56 425.317 1293.17C449.728 1276.51 478.493 1252.95 501.721 1233.65C504.826 1231.07 507.722 1228.64 510.457 1226.35C533.775 1206.81 545.473 1197.01 576.686 1184.28C587.316 1130.34 599.643 1133.51 633.262 1142.17C637.223 1143.19 641.479 1144.28 646.062 1145.37C651.726 1146.79 657.908 1148.45 664.221 1150.15L664.238 1150.15L664.24 1150.16C675.65 1153.22 687.488 1156.4 697.47 1158.51L870.621 1220.54C884.624 1195.71 899.028 1168.63 913.264 1141.87L913.265 1141.86C921.541 1126.3 929.76 1110.85 937.81 1096.01C934.257 1093.12 929.872 1090.15 926.062 1087.7C888.603 1063.61 854.226 1033.89 819.865 1004.18C794.925 982.611 769.994 961.053 743.897 941.663C729.873 952.299 713.808 959.356 697.645 963.475C694.245 964.341 691.081 964.871 688.091 965.373C679.134 966.876 671.733 968.117 664.227 977.324C655.928 986.44 654.729 998.678 653.514 1011.07C652.64 1019.99 651.758 1028.99 648.22 1036.97C634.056 1068.91 603.775 1072.33 579.36 1057.48C549.176 1078.77 513.485 1080.34 497.652 1035.64C480.775 1041.31 467.37 1043.5 450.889 1035.13C412.397 1015.58 428.642 974.386 441.615 941.495C443.444 936.858 445.208 932.385 446.744 928.162C446.367 928.335 445.99 928.509 445.612 928.682C438.372 932.012 431.055 935.376 423.343 936.917C399.326 941.714 371.449 927.134 368.015 895.646C365.188 869.455 383.512 854.168 400.211 840.235C404.582 836.589 408.841 833.035 412.581 829.403C415.387 826.679 418.179 823.832 420.99 820.964L420.992 820.963C433.722 807.98 446.857 794.585 463.487 790.322C475.316 787.29 487.396 785.758 499.484 784.226L499.486 784.226C511.102 782.753 522.724 781.279 534.136 778.472C547.896 775.087 561.356 770.476 574.828 765.861C579.694 764.194 584.561 762.526 589.445 760.916C624.259 750.036 664.211 739.836 700.382 743.069C723.569 745.209 746.284 751.977 767.571 763.088C792.781 776.094 819.278 795.296 845.042 813.966C858.511 823.727 871.779 833.342 884.559 841.852C923.375 868.506 964.204 890.015 1005.14 911.541C1011.66 914.971 1016.6 918.166 1020.51 920.691C1034.64 929.836 1035.2 930.197 1048.13 901.108C1039.37 893.661 1030.32 887.84 1020.98 881.828C1019.52 880.892 1018.06 879.952 1016.59 879C991.542 863.01 966.088 847.938 940.261 833.805C938.145 832.62 935.492 831.248 932.546 829.725C920.492 823.491 903.541 814.725 898.48 805.935C896.589 790.493 910.585 758.273 917.229 744.021C888.788 718.489 857.309 694.845 824.89 677.271C804.072 665.986 796.52 642.41 788.955 618.791C785.25 607.227 781.543 595.653 776.273 585.506C750.18 535.256 740.513 478.554 730.83 421.758L730.83 421.754C729.485 413.868 728.14 405.98 726.751 398.106C723.3 378.552 718.346 358.743 713.511 339.409L713.511 339.408L713.479 339.282C712.958 337.199 712.439 335.122 711.923 333.052C707.586 329.781 702.521 328.019 697.514 326.277L697.51 326.276C696.556 325.944 695.604 325.613 694.66 325.272C666.41 332.745 628.381 335.973 609.971 302.378C600.896 285.819 602.81 271.652 606.552 253.768C604.29 251.982 602.02 250.211 599.741 248.455C599.567 248.492 599.36 248.537 599.125 248.587C595.608 249.338 585.736 251.445 584.464 252.517C578.017 257.956 573.355 264.121 568.791 270.156C561.758 279.455 554.959 288.444 542.228 293.992C529.008 299.849 510.273 300.47 497.657 292.375C456.513 265.971 480.666 232.559 501.376 203.91L501.377 203.908C504.391 199.739 507.332 195.67 509.988 191.738C510.899 190.39 511.826 189.087 512.741 187.802C515.579 183.814 518.297 179.994 520.035 175.499C490.837 176.474 448.863 159.234 460.525 112.302C465.89 90.7121 492.451 82.2331 513.491 75.5169C519.006 73.7561 524.143 72.1165 528.418 70.3936C548.44 62.3249 548.115 58.512 547.425 50.4296C546.948 44.8288 546.295 37.1777 552.117 24.6396C559.784 8.80418 575.592 3.92633 590.312 0H598.33C600.763 0.670766 603.541 1.4275 606.583 2.2562ZM1705.28 1806.88C1692.43 1896.41 1624.48 2070.42 1561.01 2126.56C1512.37 2169.6 1430.67 2168.41 1369.63 2167.52C1364.9 2167.45 1360.3 2167.38 1355.85 2167.34C1348.79 2167.51 1341.68 2167.34 1334.58 2167.17H1334.57H1334.57C1326.26 2166.97 1317.95 2166.76 1309.71 2167.12C1305.68 2167.29 1305.03 2171.07 1304.41 2174.68C1304.31 2175.29 1304.21 2175.89 1304.09 2176.47C1300.23 2195.37 1319.1 2198 1330.24 2197.55C1348.83 2196.7 1367.81 2196.97 1386.86 2197.24H1386.87C1464.94 2198.33 1544.25 2199.45 1602.75 2124.02C1635.01 2082.43 1649.82 2036.25 1665.71 1986.7C1669.28 1975.55 1672.91 1964.23 1676.81 1952.75C1679.43 1945.02 1685.81 1946.71 1691.95 1948.35C1697.19 1949.74 1702.27 1951.09 1704.7 1946.5C1720.44 1916.77 1730.93 1859.38 1730.98 1824.92C1721.44 1814.99 1717.45 1812.14 1705.28 1806.88ZM1374.48 2040.26C1356.63 2044.8 1320.51 2074.08 1320.85 2099.35C1320.95 2106.77 1334.06 2105.92 1338.35 2104.76C1342.61 2101.9 1345.25 2097.48 1347.95 2092.94C1349.95 2089.59 1351.99 2086.18 1354.74 2083.29C1357.02 2080.9 1361.55 2078.03 1366.69 2074.77C1379.2 2066.84 1395.31 2056.62 1391.38 2045.47C1386.93 2040.98 1382.55 2040.73 1377.01 2040.42C1376.19 2040.37 1375.35 2040.32 1374.48 2040.26ZM1526.41 2002.85C1521.12 1977.51 1472.55 1967.98 1454.56 1970.15C1440.98 1973.23 1437.53 1977.44 1429.13 1990.04C1458.08 1990.78 1479.77 1995.01 1507.27 2005.81L1507.61 2005.94C1513.22 2008.13 1517.81 2009.93 1523.74 2008.01C1524.33 2007.42 1524.76 2007.04 1525.08 2006.76C1525.49 2006.39 1525.7 2006.2 1525.84 2005.96C1525.98 2005.7 1526.03 2005.37 1526.12 2004.69C1526.19 2004.25 1526.27 2003.67 1526.41 2002.85ZM1543.99 1950.94C1542.21 1930 1507.97 1925.62 1494.03 1927.47C1483.09 1933.03 1472.1 1938.47 1461.07 1943.8C1463.35 1944.15 1465.63 1944.5 1467.9 1944.84L1467.9 1944.84C1484.88 1947.43 1501.5 1949.95 1518.31 1954.69C1519.1 1954.88 1519.98 1955.12 1520.91 1955.37C1528.69 1957.45 1540.7 1960.66 1543.99 1950.94ZM1505.24 1742L1505.24 1742C1514.53 1762.53 1526.57 1789.11 1504.38 1791.33C1477.83 1793.99 1443.16 1791.67 1416.79 1787.08C1419.39 1800.27 1426.75 1874.41 1412.38 1875.47C1381.19 1877.76 1324.85 1854.31 1296.37 1841.28C1291.39 1850.08 1287.18 1858.37 1282.86 1866.85L1282.86 1866.87C1280.58 1871.35 1278.27 1875.89 1275.81 1880.58C1284.57 1891.69 1292.5 1898.61 1303.75 1906.03C1338.99 1926.43 1354.45 1923.67 1385.58 1918.11C1390.74 1917.19 1396.32 1916.19 1402.5 1915.21C1466.56 1905.04 1530.54 1877.12 1560.47 1803.43C1567.95 1784.73 1573.66 1754.98 1551.82 1745.51L1551.4 1745.34L1551.4 1745.34C1533.16 1738.14 1515.76 1731.27 1497.85 1722.84C1498.54 1727.22 1501.69 1734.17 1505.24 1742ZM139.779 1126.85C127.87 1116.41 113.655 1106.42 98.3633 1108.11C97.4922 1108.37 96.4876 1108.65 95.3998 1108.95L95.3964 1108.95C89.3802 1110.62 80.8232 1112.99 78.2578 1117.45C79.4283 1121.44 84.3887 1124.04 88.8757 1126.39C90.823 1127.41 92.6811 1128.38 94.1016 1129.4C151.412 1170.62 175.187 1244.4 198.616 1317.09C209.798 1351.79 220.901 1386.24 235.533 1416.79C244.391 1435.28 255.587 1450.77 266.783 1466.25C275.919 1478.89 285.056 1491.53 292.923 1505.8C297.121 1513.47 291.76 1520.76 287.221 1526.93C284.801 1530.22 282.614 1533.19 282.236 1535.73C284.194 1540.99 287.947 1547.07 291.505 1552.84L291.506 1552.84C293.469 1556.02 295.374 1559.1 296.885 1561.9C303.213 1573.64 310.469 1587.82 315.384 1600.48C319.4 1611.07 322.637 1622.06 325.056 1633.31C325.296 1634.47 325.744 1636.96 326.276 1639.93L326.276 1639.93C327.484 1646.67 329.129 1655.83 329.79 1657.41C330.763 1656.62 332.028 1655.61 333.495 1654.45L333.503 1654.44C343.637 1646.4 363.371 1630.73 362.755 1624.01C358.022 1572.3 328.915 1525.34 301.322 1480.82C289.488 1461.73 277.933 1443.09 268.698 1424.71C259.571 1406.54 257.763 1402.13 253.975 1392.86C252.293 1388.75 250.22 1383.68 246.943 1376.03C235.799 1349.53 227.533 1320.07 219.205 1290.4C201.855 1228.57 184.241 1165.8 139.779 1126.85ZM1035.16 614.833C1034.47 619.652 1035.17 625.937 1035.9 632.464C1037.26 644.646 1038.71 657.672 1031.41 663.587C1025.23 668.586 1014.11 671.358 1003.98 673.885C998.86 675.162 993.99 676.376 990.139 677.783C990.677 679.77 991.706 683.088 992.982 687.2C998.191 703.989 1007.5 734.002 1004.21 740.572C998.928 751.1 984.575 761.665 970.988 771.667C959.728 779.956 948.994 787.858 944.385 795.03C986.495 817.467 1028.61 841.614 1068.19 869.87C1068.63 869.115 1069.15 868.198 1069.76 867.148C1077.76 853.165 1099.28 815.597 1109.44 821.973C1118.07 840.563 1077.77 928.228 1068.61 947.908C1076.31 954.387 1084.3 960.53 1092.26 966.638L1092.26 966.64C1093.92 967.921 1095.59 969.2 1097.25 970.48C1116.19 969.538 1171.08 962.483 1189.23 957.249C1192.36 941.428 1195.77 933.878 1210.85 930.569C1218.47 928.901 1226.41 928.061 1234.26 927.232C1237.02 926.941 1239.76 926.651 1242.47 926.327C1259.66 924.339 1276.79 921.799 1293.86 918.71C1316.45 914.552 1338.47 910.169 1360.83 904.354C1419.84 889.009 1487.93 873.864 1539.69 921.59C1545.97 927.379 1555.48 939.232 1555.45 948.923C1552.01 953.082 1543.37 946.851 1536.82 942.13C1534.69 940.599 1532.79 939.226 1531.35 938.418C1479.65 909.292 1422.07 924.083 1367.28 938.157L1367.27 938.158C1357.1 940.772 1347.02 943.361 1337.09 945.64C1308.48 952.094 1279.58 956.542 1250.53 958.96C1253.2 960.748 1257.47 963.328 1262.33 966.269L1262.33 966.27C1274.09 973.388 1289.34 982.618 1293.94 987.831C1302.01 996.967 1288.12 1016.77 1278.39 1030.64L1278.38 1030.65C1275.67 1034.52 1273.28 1037.92 1271.78 1040.51C1273.37 1041.07 1275.51 1041.78 1278.02 1042.62L1278.02 1042.62C1293.05 1047.65 1321.39 1057.14 1326.06 1064.17C1332.33 1073.62 1316.72 1128.57 1308.84 1156.29C1307 1162.78 1305.58 1167.77 1304.96 1170.35C1347.35 1157.59 1389.38 1143.21 1430.98 1127.23C1432.31 1126.73 1433.63 1126.22 1434.95 1125.73C1436.71 1125.06 1438.47 1124.4 1440.22 1123.74L1440.22 1123.74C1466.46 1113.87 1491.65 1104.39 1515.65 1087.47L1515.88 1087.31L1515.88 1087.3C1521.28 1083.5 1530.79 1076.8 1536.64 1079.53C1545.66 1096.76 1487.63 1135.64 1476.99 1142.57C1478.41 1143.03 1480.08 1143.55 1481.93 1144.11C1492.58 1147.39 1508.85 1152.39 1514.2 1159.42C1514.34 1160.06 1514.45 1160.51 1514.54 1160.85C1514.68 1161.4 1514.75 1161.66 1514.71 1161.91C1514.68 1162.15 1514.56 1162.37 1514.33 1162.8C1514.14 1163.13 1513.89 1163.6 1513.56 1164.29C1502.45 1172.52 1472.89 1170.67 1449.43 1169.2C1440.24 1168.63 1431.99 1168.11 1426.15 1168.28C1416.75 1168.56 1406.48 1172.65 1396.84 1176.49C1393.58 1177.79 1390.4 1179.06 1387.34 1180.14C1385.89 1180.66 1384.03 1181.32 1381.85 1182.1L1381.8 1182.12L1381.8 1182.12C1356.54 1191.16 1287.08 1216.03 1274.32 1212.92C1263.62 1210.3 1255.08 1193.62 1249.77 1183.26L1249.7 1183.12C1243.85 1171.71 1238.49 1159.97 1233.61 1147.93C1203.54 1149.4 1171.24 1152.58 1141.18 1155.74C1134.04 1156.49 1126.72 1158.08 1119.28 1159.7L1119.27 1159.7C1110.86 1161.52 1102.28 1163.39 1093.61 1164.11C1060.49 1166.54 1042.95 1155.11 1018.48 1139.17C1014.09 1136.32 1009.48 1133.31 1004.52 1130.22C997.866 1126.07 985.582 1120.3 976.575 1116.07L976.572 1116.06C975.41 1115.52 974.303 1115 973.269 1114.51C972.672 1114.23 972.1 1113.96 971.556 1113.7C960.241 1130.47 948.622 1153.03 937.498 1174.62L937.497 1174.62C931.059 1187.12 924.786 1199.3 918.835 1209.85C916.477 1214.03 913.985 1219.04 911.451 1224.15L911.45 1224.15C907.792 1231.51 904.046 1239.06 900.487 1244.51C906.032 1249.49 911.802 1254.42 917.605 1259.38C928.205 1268.45 938.918 1277.61 948.577 1287.31C1015.75 1354.74 1090.51 1408.23 1173.44 1443.85C1176.1 1441.14 1180.26 1436.57 1185.32 1431.01C1205.3 1409.06 1239.31 1371.7 1250.19 1372.48C1254.27 1372.78 1257.98 1375.33 1260.52 1379.09C1267.25 1389.04 1271.78 1411.44 1276.61 1435.32C1281.69 1460.48 1287.11 1487.28 1295.79 1502.89C1313.83 1493.27 1327.94 1481.97 1344.01 1468.25C1346.23 1466.52 1348.94 1464.06 1351.96 1461.33L1351.97 1461.33C1363.39 1450.99 1379.26 1436.62 1390.03 1441.82C1397.07 1445.23 1404.04 1457.96 1410.07 1468.96C1412.72 1473.81 1415.2 1478.33 1417.41 1481.56C1430.03 1499.99 1442.66 1517.53 1458.49 1532.41C1466.81 1540.23 1474.43 1546.38 1483.51 1552.82C1492.01 1423.18 1517.42 1312.55 1563.54 1195.47C1601.97 1097.93 1645.78 976.192 1576.57 883.039C1564.28 865.968 1547.33 849.794 1529.9 840.601C1501.39 861.104 1479.94 863.773 1454.77 866.904C1443.16 868.348 1430.77 869.89 1416.53 873.323C1406.9 875.919 1397.2 879.834 1387.44 883.773C1371.81 890.078 1356.04 896.441 1340.18 897.547C1319.59 898.982 1290.96 895.803 1270.73 888.083C1262.97 885.04 1254.65 882.191 1246.09 879.262L1246.09 879.262C1209.9 866.868 1169.49 853.032 1149.16 816.974C1146.25 811.824 1144.27 802.623 1142.52 794.518C1140.97 787.368 1139.62 781.07 1137.97 779.155C1107.64 743.879 1094.38 721.399 1108.04 664.654C1096.95 656.227 1085.25 648.208 1073.71 640.298L1073.71 640.297C1070.79 638.296 1067.88 636.301 1064.99 634.309C1063.34 633.169 1061.4 631.794 1059.3 630.301C1051.53 624.781 1041.49 617.646 1035.16 614.833ZM645.616 1216.63C630.767 1215.37 619.789 1214.76 604.72 1215.6C575.654 1218.63 557.667 1234.27 536.73 1252.46L536.723 1252.47C531.856 1256.7 526.829 1261.07 521.467 1265.45C495.392 1286.57 469.064 1307.25 442.492 1327.48C446.197 1341.16 448.4 1353.23 448.148 1367.76C448.055 1373.14 447.699 1378.49 447.342 1383.85C446.962 1389.57 446.581 1395.3 446.52 1401.07C446.269 1424.81 457.897 1445.16 468.8 1464.24C470.13 1466.57 471.449 1468.88 472.734 1471.17C475.256 1475.67 477.843 1480.05 480.897 1484C490.995 1478.34 504.339 1468.29 514.704 1460.48L514.705 1460.48C515.863 1459.61 516.984 1458.77 518.06 1457.96C520.705 1455.98 523.626 1453.83 526.672 1451.59L526.689 1451.58C535.595 1445.03 545.57 1437.71 552.872 1431.33C555.639 1428.93 558.552 1426.3 561.57 1423.58C573.471 1412.85 586.994 1400.66 599.553 1395.08C607.291 1391.64 614.179 1397.1 620.759 1402.32C623.633 1404.6 626.449 1406.83 629.25 1408.25C635.109 1411.44 642.726 1412.88 649.207 1414.1L649.209 1414.1C649.828 1414.22 650.437 1414.34 651.032 1414.45C657.14 1409.99 665.556 1395.68 672.727 1383.49L672.728 1383.49C675.842 1378.2 678.72 1373.3 681.073 1369.79C679.511 1368.48 676.964 1366.44 673.768 1363.86L673.765 1363.86C656.106 1349.66 618.615 1319.5 617.516 1310.38C617.014 1306.21 618.903 1302.72 621.251 1299.9C627.442 1292.44 643.38 1282.1 658.062 1272.58L658.063 1272.58C667.107 1266.71 675.673 1261.15 681.19 1256.77C674.14 1248.5 667.048 1240.61 659.943 1232.7C655.17 1227.39 650.391 1222.07 645.616 1216.63ZM379.557 1299.71C378.863 1319.14 376.968 1336.31 373.861 1355.43C372.557 1363.45 383.653 1367.29 389.554 1363.36C400.302 1342.1 404.007 1309.27 379.557 1299.71ZM329.761 1320.16L329.761 1320.17C329.214 1322.75 328.667 1325.35 328.122 1327.94C327.233 1332.18 336.371 1336.26 340.007 1335.95C340.674 1335.9 341.339 1335.82 342.001 1335.71C356.667 1318.8 363.883 1275.81 340.507 1265.02C337.474 1283.64 333.628 1301.85 329.761 1320.16ZM216.505 1090.14C209.202 1087.56 203.762 1086.46 196.012 1087.41C188.823 1092.66 185.06 1101.87 194.309 1107.97C199.507 1111.4 205.248 1113.42 210.989 1115.43C219.543 1118.43 228.099 1121.44 234.866 1129.12C242.141 1135.64 246.707 1144.59 250.958 1152.93C256.496 1163.79 261.497 1173.6 271.252 1175.6C271.457 1175.47 271.661 1175.35 271.863 1175.23C274.136 1173.87 276.142 1172.67 276.997 1169.63C279.597 1160.4 274.297 1148.38 270.791 1140.55C259.756 1115.91 238.783 1098.02 216.505 1090.14ZM745.151 790.108C720.862 778.277 699.615 774.845 673.551 776.963C646.134 779.775 618.672 786.336 592.022 795.254C572.525 801.778 555.021 807.436 534.803 812.946C527.473 814.944 517.236 816.134 506.693 817.36C492.18 819.048 477.085 820.803 468.192 824.825C460.884 828.131 451.647 837.573 442.427 846.997C434.232 855.374 426.052 863.737 419.253 867.761C418.965 867.997 418.682 868.229 418.405 868.457C412.67 873.163 409.178 876.03 404.042 882.492C399.764 887.874 401.205 896.931 406.156 901.261C409.571 904.248 416.301 903.826 420.722 902.286C433.731 897.753 444.735 887.693 455.662 877.704C462.311 871.626 468.931 865.574 475.957 860.809C482.763 856.193 490.759 855.459 498.687 854.731C503.147 854.322 507.585 853.914 511.777 852.819C515.366 851.938 520.231 849.412 525.442 846.707C535.006 841.742 545.735 836.172 551.881 839.047C556.733 848.418 532.528 869.27 512.658 886.388C501.383 896.101 491.503 904.612 489.12 909.141C483.693 919.373 480.198 930.442 476.671 941.608C474.236 949.317 471.787 957.072 468.678 964.631L468.4 965.305C465.3 972.824 458.067 990.371 460.82 998.35C463.652 1006.55 474.411 1010.77 480.928 1005.41C493.532 995.041 498.677 977.789 503.815 960.56C507.37 948.639 510.922 936.729 516.939 927.117C523.014 917.765 534.653 907.959 544.91 899.318C549.008 895.865 552.885 892.599 556.099 889.621C556.9 888.878 557.734 888.086 558.596 887.268C565.232 880.966 573.501 873.113 581.241 874.271C587.85 881.431 573.978 899.549 560.077 917.705C548.849 932.37 537.602 947.059 537.113 956.02C535.106 965.361 526.835 1028.1 531.865 1032.52C557.72 1055.22 561.997 1013.2 564.875 984.919C565.664 977.164 566.348 970.443 567.343 966.375C571.272 950.313 607.142 907.369 620.125 904.625C620.764 904.876 621.23 905.034 621.58 905.152C622.084 905.323 622.347 905.412 622.537 905.582C622.743 905.766 622.863 906.047 623.114 906.632C623.293 907.048 623.538 907.62 623.928 908.421C624.52 916.818 617.241 929.999 610.19 942.768C604.928 952.297 599.793 961.596 598.151 968.505C595.14 981.181 585.953 1037.12 607.394 1033C619.618 1030.65 621.363 1012.95 622.869 997.67C623.518 991.089 624.122 984.959 625.5 980.698C628.834 969.69 632.921 964.464 638.656 957.133C639.801 955.67 641.011 954.123 642.294 952.429C650.418 940.791 657.976 933.783 671.203 932.447C698.396 929.7 719.053 922.247 738.218 898.073C739.237 896.379 740.307 894.475 741.428 892.477L741.43 892.473C746.605 883.257 752.896 872.052 760.604 870.27C770.877 874.146 765.74 900.172 763.274 909.562C773.396 919.062 785.274 928.703 797.034 938.248L797.038 938.251C805.415 945.05 813.732 951.8 821.311 958.416L822.887 959.793L822.889 959.794C864.528 996.146 906.139 1032.47 951.898 1061.23C966.318 1070.29 980.473 1077.4 994.703 1084.55L994.706 1084.55L994.71 1084.55C1003.29 1088.86 1011.9 1093.19 1020.61 1097.96C1027.92 1101.97 1034.36 1106.44 1040.51 1110.72C1056.91 1122.11 1071.31 1132.12 1095.03 1128.28C1100.12 1127.45 1105.65 1126.27 1111.22 1125.08L1111.22 1125.08C1119.01 1123.41 1126.86 1121.73 1133.67 1121C1144.36 1119.84 1155.53 1118.81 1166.96 1117.75C1207.57 1113.99 1251.44 1109.92 1288.5 1098.86C1288.75 1097.82 1289.01 1096.77 1289.27 1095.71L1289.27 1095.68L1289.27 1095.68C1290.21 1091.82 1291.17 1087.9 1291.94 1084.06C1280.54 1078.99 1268.63 1074.82 1256.89 1070.71L1256.89 1070.71C1250.49 1068.46 1244.13 1066.23 1237.94 1063.89C1218.63 1056.58 1240.14 1025.59 1251.66 1009.01C1253.62 1006.18 1255.3 1003.76 1256.43 1001.96C1255.98 1001.66 1255.48 1001.32 1254.92 1000.96C1249.18 997.115 1238.44 989.941 1233.47 989.418C1220.38 988.04 1202.84 991.188 1188.06 993.84C1184.75 994.434 1181.58 995.003 1178.63 995.49C1158.61 998.838 1138.58 1002.06 1118.53 1005.16C1118.73 1005.61 1118.93 1006.07 1119.15 1006.56L1119.16 1006.6C1122.56 1014.27 1127.94 1026.44 1121.61 1033.06C1114.17 1034.39 1099.54 1020.18 1089.63 1010.56L1089.63 1010.56C1087.16 1008.16 1084.99 1006.05 1083.29 1004.53C1049.13 973.996 1010.1 953.304 971.191 932.678L971.19 932.678C960.409 926.963 949.638 921.253 938.982 915.34C918.514 903.997 898.728 892.172 879.025 879.036C860.437 867.675 842.642 854.636 824.862 841.607C799.056 822.697 773.279 803.809 745.151 790.108ZM1352.93 240.755C1348.85 227.858 1322.73 226.995 1312.7 227.923C1289.88 231.942 1275.4 248.674 1260.48 265.915C1255.62 271.535 1250.71 277.208 1245.45 282.514C1247.8 283.782 1250.4 285.029 1253.11 286.322C1262.44 290.782 1272.93 295.8 1277.91 304.221L1278.08 306.561C1276.12 309.218 1272.4 309.825 1269.57 309.807C1266.68 309.788 1263.9 309.755 1261.23 309.724L1261.22 309.724C1223.65 309.282 1207.35 309.09 1182.57 351.51C1219.46 346.689 1248.85 344.756 1280.06 374.462C1297.14 390.867 1308.07 414.616 1310.45 440.536C1316.86 515.915 1240.84 566.277 1184.72 548.204C1174.31 544.849 1165.8 538.7 1157.2 532.479C1152.02 528.73 1146.8 524.955 1141.1 521.749C1139.25 520.706 1137.87 521.533 1136.31 522.467C1136.07 522.617 1135.81 522.769 1135.55 522.917C1129.71 531.463 1132.2 550.744 1136.06 559.789C1144.57 579.731 1174.52 595.021 1191 603.265C1262.8 639.175 1340.44 667.508 1418.08 676.771C1417.03 675.054 1415.95 673.298 1414.84 671.512C1409.61 663.083 1403.96 653.974 1400.46 645.04C1447.8 676.555 1482.8 698.846 1533.28 662.871C1534.14 662.261 1535.04 661.573 1535.98 660.86L1535.98 660.858C1542.64 655.794 1551.01 649.428 1556.44 660.177C1557.16 682.731 1521.44 700.652 1505.52 708.641L1505.52 708.644C1504.88 708.962 1504.28 709.265 1503.71 709.552C1499.53 720.924 1482.31 760.066 1474.22 765.863L1472.28 765.479C1468.58 758.488 1470.96 747.566 1473.24 737.09C1475.58 726.356 1477.81 716.091 1473.3 711.004C1464.73 709.956 1453.58 729.526 1445.49 743.711C1442.67 748.673 1440.21 752.977 1438.38 755.508C1374.32 843.93 1240.35 813.383 1178.61 737.185C1156.77 710.222 1164.1 667.333 1169.92 633.302C1170.4 630.473 1170.88 627.705 1171.32 625.013C1170.83 624.56 1170.32 624.097 1169.8 623.627C1169.45 623.311 1169.1 622.992 1168.74 622.67L1168.74 622.668C1164.47 618.811 1159.67 614.476 1156.28 610.305C1148.87 637.877 1132.55 702.312 1143.8 728.41C1148.49 739.286 1156.34 746.202 1164.13 753.064C1166.46 755.119 1168.79 757.168 1171.02 759.318C1171.43 761.522 1171.81 763.686 1172.19 765.818C1174.22 777.235 1176.09 787.748 1180.47 798.718C1199.45 835.728 1302.53 864.413 1340.09 861.736C1350.66 860.983 1362.42 855.569 1374.11 850.187C1383.76 845.743 1393.37 841.321 1402.22 839.561C1413.82 836.238 1427.04 834.441 1440.46 832.616C1463.58 829.473 1487.32 826.245 1504.5 814.997C1520.44 804.556 1532.16 780.742 1543.38 757.94C1552.76 738.856 1561.81 720.481 1572.68 711.248C1578.57 715.672 1584.38 721.866 1589.96 727.815L1589.96 727.821C1591.9 729.887 1593.81 731.925 1595.69 733.848C1611.93 750.493 1630.15 755.353 1651.02 750.802C1670.59 746.537 1685.9 737.37 1697.08 717.192C1705.2 702.627 1707.96 684.763 1704.73 667.727C1696.62 623.353 1663.46 624.707 1634.06 634.503C1632.74 634.942 1631.16 635.561 1629.43 636.237C1623.03 638.739 1614.6 642.033 1610.07 639.981C1604.86 633.704 1607.75 622.348 1612.66 617.009C1624.57 604.038 1644.15 597.984 1659.66 595.494L1660.37 594.125C1678.93 558.249 1687.79 541.127 1697.66 499.622C1692.02 494.577 1686.47 489.777 1680.97 485.018L1680.96 485.013C1670.04 475.566 1659.31 466.281 1648.39 455.566C1648.46 454.473 1648.54 453.341 1648.62 452.181L1648.62 452.178C1649.26 443.073 1650.03 432.26 1646 425.031C1636.05 418.946 1626.93 451.07 1624.84 459.367C1625.34 460.517 1625.84 461.667 1626.34 462.819C1636.06 485.143 1645.97 507.912 1638.27 533.223C1636.3 539.691 1632.29 550.944 1626.39 553.345C1621 549.694 1621.87 537.326 1622.59 527.131C1622.93 522.27 1623.23 517.903 1622.81 515.21C1621.28 505.344 1615.75 494.268 1610.55 483.832L1610.55 483.831C1607.68 478.085 1604.91 472.532 1602.96 467.482C1595.02 446.942 1612.06 424.801 1623.29 410.21C1624.04 409.242 1624.76 408.308 1625.44 407.409C1627.56 377.964 1627.17 363.062 1622.24 333.096C1620.26 334.171 1618.26 335.272 1616.24 336.384C1593.82 348.714 1568.7 362.532 1544.01 359.448C1541.51 357.138 1539.63 355.402 1536.97 353.37C1540.91 337.244 1548.8 316.318 1555.74 301.455C1513.96 313.423 1441.28 331.721 1398.14 317.294C1396.65 316.796 1393.76 312.573 1393.69 310.688C1393.1 295.59 1413.15 272.165 1421.47 263.981C1408.39 261.672 1352.75 257.686 1348.57 284.801C1348.08 287.978 1348.33 291.727 1348.59 295.679C1349.21 304.861 1349.89 315.14 1341.53 321.892C1335.85 326.551 1323.03 336.001 1316.81 328.993C1316.02 323.498 1320.24 317.881 1324.43 312.316C1330.64 304.056 1336.76 295.909 1326.29 288.443C1324.11 286.885 1321.34 285.729 1318.51 284.548C1312.96 282.231 1307.18 279.82 1305.14 274.095C1305.36 264.818 1316.41 261.311 1327.87 257.679C1339.23 254.078 1350.97 250.352 1352.93 240.755ZM1303.42 740.3C1292.67 735.72 1280.46 733.293 1269.04 735.19C1268.52 735.386 1267.85 735.625 1267.07 735.906C1258.7 738.899 1237.09 746.627 1243.84 757.317C1251.05 768.744 1276.89 774.508 1287.71 776.559C1318.91 782.468 1346.85 783.705 1377.62 774.669C1378.09 774.428 1378.57 774.206 1379.03 773.986C1381.1 773.017 1383.05 772.103 1384.07 769.917C1383.25 765.507 1380.47 762.969 1377.4 760.721C1376.18 759.826 1375 758.958 1373.87 758.119C1360.09 747.92 1352.34 742.186 1334.06 747.685C1332.28 748.222 1329.53 749.246 1326.28 750.461L1326.27 750.463C1314.96 754.684 1297.5 761.204 1292.69 757.588C1291.92 752.054 1297.42 746.45 1301.47 742.321C1302.18 741.6 1302.84 740.923 1303.42 740.3ZM597.976 32.9785C594.856 32.3917 591.675 32.4353 588.567 33.1074C564.471 48.6004 591.534 72.2178 608.437 75.1113C624.971 77.9415 648.938 83.4562 656.615 102.153C657.4 103.969 658.634 106.594 660.096 109.704C665.869 121.987 675.193 141.826 674.436 149.135C673.067 151.314 671.395 152.235 669.159 152.645C663.292 153.718 655.746 150.015 651.214 145.779C646.822 141.674 643.375 136.431 639.921 131.178C636.735 126.333 633.544 121.479 629.601 117.502C629.437 117.337 629.279 117.163 629.121 116.989C628.825 116.662 628.53 116.336 628.195 116.069C624.019 112.738 613.091 109.887 604.11 107.544C600.135 106.507 596.542 105.57 594.083 104.734C589.813 103.283 585.679 101.354 581.549 99.4264C575.825 96.7553 570.11 94.0882 564.054 92.7021C563.888 92.6641 563.723 92.6188 563.558 92.5735L563.557 92.5731C563.379 92.5243 563.202 92.4754 563.022 92.4355C559.418 91.6342 500.315 113.257 495.882 116.867C493.904 118.477 491.874 120.91 491.418 123.814C490.848 127.446 492.694 132.041 494.719 134.659C499.212 140.467 507.16 141.579 513.42 141.635C520.979 141.702 531.454 138.046 541.845 134.419C554.555 129.983 567.14 125.591 574.114 128.106C579.789 130.154 585.554 134.011 591.015 137.665L591.017 137.666C592.799 138.858 594.549 140.029 596.253 141.108C597.298 141.77 598.356 142.433 599.42 143.1C608.552 148.823 618.221 154.883 625.371 163.676C627.813 166.679 629.578 169.31 629.61 173.667C624.926 185.022 617.918 183.505 610.266 181.85C606.765 181.092 603.129 180.305 599.519 180.709C587.916 183.141 559.564 189.692 550.306 196.959C538.933 205.884 523.145 230.897 513.585 246.044L513.56 246.084C512.795 247.295 512.071 248.443 511.392 249.514C508.811 253.584 508.585 263.141 514.513 264.474C531.502 268.292 539.744 256.468 548.331 244.153C553.745 236.386 559.296 228.424 567.264 224.065C577.901 218.555 599.045 213.339 611.035 212.542C617.988 216.777 619.79 219.667 622.07 223.323C623.43 225.504 624.96 227.958 627.855 231.133C646.587 220.475 660.636 220.336 676.508 220.178C684.907 220.095 693.817 220.007 704.201 218.352C710.58 217.335 716.483 214.081 721.844 211.126C727.433 208.046 732.433 205.29 736.77 205.729C741.494 209.271 739.227 215.925 736.477 220.725C729.116 233.565 719.56 242.336 706.168 246.171C701.418 247.531 694.363 247.908 686.545 248.327C663.537 249.557 633.913 251.142 636.928 279.161C637.241 282.069 639.944 287.604 641.409 290.218C642.307 290.807 643.106 291.344 643.834 291.833C648.653 295.069 650.367 296.22 657.194 296.885C665.317 297.676 674.411 295.461 683.234 293.312C691.195 291.372 698.936 289.487 705.543 289.913C712.791 290.381 719.649 292.193 726.478 293.998C738.01 297.046 749.457 300.071 762.56 296.56C766.614 295.473 772.181 292.061 777.719 288.667C784.919 284.255 792.068 279.873 795.773 280.675C795.92 280.818 796.075 280.966 796.236 281.119C797.71 282.526 799.658 284.385 799.399 286.553C796.735 308.861 771.309 323.702 757.3 327.75L748.356 329.595C755.509 358.936 760.849 388.642 766.191 418.363L766.191 418.364C771.192 446.184 776.194 474.016 782.688 501.573C787.629 522.538 796.077 541.156 804.337 559.359L804.337 559.36C809.834 571.474 815.248 583.404 819.488 595.72C822.179 603.534 824.144 609.981 825.801 615.417C833.294 639.992 834.482 643.888 867.839 659.967C874.207 663.036 888.516 674.514 904.424 687.274L904.426 687.276C929.258 707.194 957.985 730.237 966.483 729.302C970.82 723.858 966.214 710.834 961.319 696.991C956.102 682.24 950.557 666.559 955.15 658.126C958.926 651.196 969.084 648.907 979.06 646.659C989.309 644.35 999.365 642.084 1002.11 634.874C996.705 621.53 971.701 604.525 949.639 589.522C934.461 579.2 920.676 569.825 915.624 563.241C914.177 556.386 912.938 548.638 911.666 540.685L911.666 540.684L911.666 540.682C909.345 526.169 906.916 510.978 902.919 499.306C896.667 481.047 889.976 463.618 883.332 446.311C871.815 416.312 860.439 386.678 851.733 353.722C847.583 337.984 843.723 322.141 840.157 306.203C839.199 301.771 838.259 297.189 837.301 292.517L837.299 292.507C831.578 264.627 825.202 233.549 810.478 212.117C796.55 191.847 778.791 177.273 760.812 162.517C746.903 151.103 732.863 139.58 720.361 125.228C714.55 118.555 706.33 105.953 698.14 93.3943C687.993 77.8377 677.891 62.3487 672.465 58.2832C667.125 54.2822 605.694 34.3886 597.976 32.9785ZM1341.88 686.595C1341.17 700.215 1341.24 704.882 1347.83 716.568C1359.65 723.521 1367.47 724.971 1380.03 717.827C1393.06 696.157 1376.17 692.947 1362 690.256L1362 690.256C1360.34 689.94 1358.72 689.632 1357.19 689.303C1353.38 688.481 1349.45 687.839 1345.57 687.205L1345.57 687.204L1345.56 687.203C1344.33 687.001 1343.1 686.801 1341.88 686.595ZM1204.96 636.474C1204.75 637.373 1204.5 638.39 1204.23 639.498C1202.07 648.297 1198.51 662.788 1201.75 669.005C1206.66 678.44 1232.6 690.007 1239.18 678.412C1239.96 676.766 1240.75 675.076 1241.55 673.365C1244.39 667.283 1247.35 660.932 1250.37 655.333C1240.28 652.265 1232.28 649.031 1222.65 644.524C1221.59 644.027 1220.18 643.34 1218.61 642.573C1213.96 640.305 1207.88 637.336 1204.96 636.474ZM1223.97 520.104C1318.44 498.456 1294.2 366.362 1201.14 376.57C1180.61 380.384 1162.96 389.915 1150.42 410.327C1141.77 424.281 1138.21 441.77 1140.52 458.872C1146.9 504.987 1188.36 524.575 1223.97 520.104Z" fill="#1F1F1F"/>
</g>
<defs>
<clipPath id="clip0_2154_101">
<rect width="1888" height="2240" fill="white"/>
</clipPath>
</defs>
</svg>
